<svg width="26" height="24" viewBox="0 0 26 24" fill="none" xmlns="http://www.w3.org/2000/svg">
<path fill-rule="evenodd" clip-rule="evenodd" d="M18.4601 16.3188L22.7639 20.6227C22.9151 20.7741 23.0001 20.9793 23 21.1933C22.9999 21.4074 22.9148 21.6126 22.7635 21.7639C22.6121 21.9151 22.4068 22.0001 22.1928 22C21.9788 21.9999 21.7736 21.9148 21.6223 21.7635L17.3185 17.4595C16.0319 18.4561 14.4141 18.925 12.794 18.771C11.174 18.617 9.67346 17.8516 8.59771 16.6305C7.52196 15.4093 6.95179 13.8243 7.0032 12.1977C7.0546 10.5711 7.72372 9.02522 8.87443 7.87448C10.0251 6.72374 11.571 6.0546 13.1975 6.0032C14.8241 5.95179 16.4091 6.52197 17.6302 7.59775C18.8513 8.67352 19.6167 10.1741 19.7707 11.7942C19.9247 13.4143 19.4558 15.0322 18.4593 16.3188H18.4601ZM13.4003 17.1996C14.6733 17.1996 15.8941 16.6939 16.7943 15.7937C17.6944 14.8935 18.2001 13.6727 18.2001 12.3997C18.2001 11.1266 17.6944 9.90577 16.7943 9.00562C15.8941 8.10546 14.6733 7.59976 13.4003 7.59976C12.1273 7.59976 10.9065 8.10546 10.0063 9.00562C9.10621 9.90577 8.60052 11.1266 8.60052 12.3997C8.60052 13.6727 9.10621 14.8935 10.0063 15.7937C10.9065 16.6939 12.1273 17.1996 13.4003 17.1996Z" fill="#FAB447"/>
</svg>
