<svg width="14" height="3" viewBox="0 0 14 3" fill="none" xmlns="http://www.w3.org/2000/svg">
<path d="M11.7703 -2.58438e-08C12.1651 -4.32332e-08 12.5438 0.158035 12.8229 0.43934C13.1021 0.720644 13.2589 1.10218 13.2589 1.5C13.2589 1.89782 13.1021 2.27936 12.8229 2.56066C12.5438 2.84196 12.1651 3 11.7703 3C11.3755 3 10.9969 2.84196 10.7178 2.56066C10.4386 2.27936 10.2818 1.89782 10.2818 1.5C10.2818 1.10218 10.4386 0.720644 10.7178 0.43934C10.9969 0.158035 11.3755 -8.45432e-09 11.7703 -2.58438e-08ZM6.80841 1.92713e-07C7.20321 1.75324e-07 7.58183 0.158035 7.86099 0.43934C8.14016 0.720644 8.29699 1.10218 8.29699 1.5C8.29699 1.89782 8.14016 2.27936 7.86099 2.56066C7.58183 2.84196 7.20321 3 6.80841 3C6.41362 3 6.03499 2.84196 5.75583 2.56066C5.47666 2.27936 5.31983 1.89782 5.31983 1.5C5.31983 1.10218 5.47666 0.720644 5.75583 0.43934C6.03499 0.158035 6.41362 2.10103e-07 6.80841 1.92713e-07ZM1.84649 4.1127e-07C2.24128 3.93881e-07 2.61991 0.158035 2.89907 0.43934C3.17823 0.720645 3.33506 1.10218 3.33506 1.5C3.33506 1.89782 3.17823 2.27936 2.89907 2.56066C2.61991 2.84196 2.24128 3 1.84649 3C1.45169 3 1.07307 2.84196 0.793904 2.56066C0.514742 2.27936 0.35791 1.89782 0.35791 1.5C0.35791 1.10218 0.514742 0.720645 0.793904 0.43934C1.07307 0.158035 1.45169 4.2866e-07 1.84649 4.1127e-07Z" fill="#FAB447"/>
</svg>
