<svg width="66" height="15" viewBox="0 0 66 15" fill="none" xmlns="http://www.w3.org/2000/svg">
<path d="M9.108 1.454V2.786H5.688V14H4.05V2.786H0.612V1.454H9.108ZM21.9243 8.69C21.9243 9.002 21.9063 9.332 21.8703 9.68H13.9863C14.0463 10.652 14.3763 11.414 14.9763 11.966C15.5883 12.506 16.3263 12.776 17.1903 12.776C17.8983 12.776 18.4863 12.614 18.9543 12.29C19.4343 11.954 19.7703 11.51 19.9623 10.958H21.7263C21.4623 11.906 20.9343 12.68 20.1423 13.28C19.3503 13.868 18.3663 14.162 17.1903 14.162C16.2543 14.162 15.4143 13.952 14.6703 13.532C13.9383 13.112 13.3623 12.518 12.9423 11.75C12.5223 10.97 12.3123 10.07 12.3123 9.05C12.3123 8.03 12.5163 7.136 12.9243 6.368C13.3323 5.6 13.9023 5.012 14.6343 4.604C15.3783 4.184 16.2303 3.974 17.1903 3.974C18.1263 3.974 18.9543 4.178 19.6743 4.586C20.3943 4.994 20.9463 5.558 21.3303 6.278C21.7263 6.986 21.9243 7.79 21.9243 8.69ZM20.2323 8.348C20.2323 7.724 20.0943 7.19 19.8183 6.746C19.5423 6.29 19.1643 5.948 18.6843 5.72C18.2163 5.48 17.6943 5.36 17.1183 5.36C16.2903 5.36 15.5823 5.624 14.9943 6.152C14.4183 6.68 14.0883 7.412 14.0043 8.348H20.2323ZM30.6924 3.956C31.8924 3.956 32.8644 4.322 33.6084 5.054C34.3524 5.774 34.7244 6.818 34.7244 8.186V14H33.1044V8.42C33.1044 7.436 32.8584 6.686 32.3664 6.17C31.8744 5.642 31.2024 5.378 30.3504 5.378C29.4864 5.378 28.7964 5.648 28.2804 6.188C27.7764 6.728 27.5244 7.514 27.5244 8.546V14H25.8864V4.136H27.5244V5.54C27.8484 5.036 28.2864 4.646 28.8384 4.37C29.4024 4.094 30.0204 3.956 30.6924 3.956ZM44.0061 3.956C45.2061 3.956 46.1781 4.322 46.9221 5.054C47.6661 5.774 48.0381 6.818 48.0381 8.186V14H46.4181V8.42C46.4181 7.436 46.1721 6.686 45.6801 6.17C45.1881 5.642 44.5161 5.378 43.6641 5.378C42.8001 5.378 42.1101 5.648 41.5941 6.188C41.0901 6.728 40.8381 7.514 40.8381 8.546V14H39.2001V4.136H40.8381V5.54C41.1621 5.036 41.6001 4.646 42.1521 4.37C42.7161 4.094 43.3341 3.956 44.0061 3.956ZM53.3597 2.534C53.0477 2.534 52.7837 2.426 52.5677 2.21C52.3517 1.994 52.2437 1.73 52.2437 1.418C52.2437 1.106 52.3517 0.842 52.5677 0.625999C52.7837 0.409999 53.0477 0.301999 53.3597 0.301999C53.6597 0.301999 53.9117 0.409999 54.1157 0.625999C54.3317 0.842 54.4397 1.106 54.4397 1.418C54.4397 1.73 54.3317 1.994 54.1157 2.21C53.9117 2.426 53.6597 2.534 53.3597 2.534ZM54.1517 4.136V14H52.5137V4.136H54.1517ZM62.2354 14.162C61.4794 14.162 60.8014 14.036 60.2014 13.784C59.6014 13.52 59.1274 13.16 58.7794 12.704C58.4314 12.236 58.2394 11.702 58.2034 11.102H59.8954C59.9434 11.594 60.1714 11.996 60.5794 12.308C60.9994 12.62 61.5454 12.776 62.2174 12.776C62.8414 12.776 63.3334 12.638 63.6934 12.362C64.0534 12.086 64.2334 11.738 64.2334 11.318C64.2334 10.886 64.0414 10.568 63.6574 10.364C63.2734 10.148 62.6794 9.938 61.8754 9.734C61.1434 9.542 60.5434 9.35 60.0754 9.158C59.6194 8.954 59.2234 8.66 58.8874 8.276C58.5634 7.88 58.4014 7.364 58.4014 6.728C58.4014 6.224 58.5514 5.762 58.8514 5.342C59.1514 4.922 59.5774 4.592 60.1294 4.352C60.6814 4.1 61.3114 3.974 62.0194 3.974C63.1114 3.974 63.9934 4.25 64.6654 4.802C65.3374 5.354 65.6974 6.11 65.7454 7.07H64.1074C64.0714 6.554 63.8614 6.14 63.4774 5.828C63.1054 5.516 62.6014 5.36 61.9654 5.36C61.3774 5.36 60.9094 5.486 60.5614 5.738C60.2134 5.99 60.0394 6.32 60.0394 6.728C60.0394 7.052 60.1414 7.322 60.3454 7.538C60.5614 7.742 60.8254 7.91 61.1374 8.042C61.4614 8.162 61.9054 8.3 62.4694 8.456C63.1774 8.648 63.7534 8.84 64.1974 9.032C64.6414 9.212 65.0194 9.488 65.3314 9.86C65.6554 10.232 65.8234 10.718 65.8354 11.318C65.8354 11.858 65.6854 12.344 65.3854 12.776C65.0854 13.208 64.6594 13.55 64.1074 13.802C63.5674 14.042 62.9434 14.162 62.2354 14.162Z" fill="black"/>
</svg>
