<svg width="18" height="18" viewBox="0 0 18 18" fill="none" xmlns="http://www.w3.org/2000/svg">
<path d="M3.91509 14.9434C3.91509 15.3187 4.06418 15.6786 4.32957 15.944C4.59495 16.2094 4.95488 16.3585 5.33019 16.3585H12.4057C12.781 16.3585 13.1409 16.2094 13.4063 15.944C13.6717 15.6786 13.8208 15.3187 13.8208 14.9434V6.4528H15.2358V5.03771H12.4057V3.62261C12.4057 3.24731 12.2566 2.88737 11.9912 2.62199C11.7258 2.35661 11.3659 2.20752 10.9906 2.20752H6.74528C6.36998 2.20752 6.01004 2.35661 5.74466 2.62199C5.47928 2.88737 5.33019 3.24731 5.33019 3.62261V5.03771H2.5V6.4528H3.91509V14.9434ZM6.74528 3.62261H10.9906V5.03771H6.74528V3.62261ZM6.03774 6.4528H12.4057V14.9434H5.33019V6.4528H6.03774Z" fill="#505050"/>
<path d="M6.74512 7.86792H8.16021V13.5283H6.74512V7.86792ZM9.57531 7.86792H10.9904V13.5283H9.57531V7.86792Z" fill="#505050"/>
</svg>
