<svg width="29" height="21" viewBox="0 0 29 21" fill="none" xmlns="http://www.w3.org/2000/svg">
<g clip-path="url(#clip0_687_2820)">
<path d="M29 19.7167C28.9395 20.0174 28.8714 20.3253 28.8336 20.6333C28.7957 20.9046 28.6595 20.9999 28.3796 20.9999C26.9799 20.9926 25.5878 20.9999 24.1881 20.9999C21.0937 20.9999 17.9992 20.9999 14.9048 20.9999C12.8393 20.9999 10.7738 20.9999 8.70832 20.9999C6.04513 20.9999 3.38951 20.9999 0.726324 20.9999C0.272371 20.9999 0.264805 20.9926 0.174015 20.56C-0.673363 16.6884 1.78555 12.8023 5.7425 11.7611C5.81816 11.7391 5.89382 11.7171 6.00731 11.6804C5.90895 11.6291 5.83329 11.5851 5.75763 11.5484C4.01748 10.7052 2.9053 8.90877 3.2155 6.87769C3.53326 4.82462 5.12966 3.32881 7.19515 3.05018C7.40699 3.02085 7.6718 2.93286 7.76259 3.24815C7.81555 3.43879 7.6718 3.53412 7.27081 3.58544C5.25828 3.85674 3.76781 5.4772 3.73754 7.43495C3.70728 9.42937 5.13723 11.0865 7.17245 11.4164C7.27081 11.4311 7.37673 11.4311 7.48265 11.4458C7.65667 11.4751 7.78529 11.5631 7.77015 11.7611C7.75502 11.9517 7.63397 12.025 7.45239 12.0324C6.56718 12.0837 5.71224 12.2523 4.91025 12.619C2.42865 13.7482 0.968432 15.6179 0.643099 18.2649C0.559874 18.9175 0.665797 19.5921 0.69606 20.252C0.69606 20.318 0.82468 20.4353 0.892773 20.4353C2.48917 20.4426 4.08557 20.4426 5.67441 20.4426C5.70467 20.4426 5.72737 20.428 5.75763 20.4206C4.7665 15.046 8.87477 10.5586 13.8985 10.2873C19.8983 9.96463 24.2335 15.2806 23.1062 20.428C23.1894 20.4353 23.2726 20.4426 23.3559 20.4426C24.9144 20.4426 26.473 20.4426 28.024 20.45C28.2207 20.45 28.3115 20.4206 28.3493 20.1933C29.0227 16.6078 26.4806 12.9269 22.7884 12.201C22.4101 12.1277 22.0243 12.0837 21.646 12.0397C21.4417 12.0177 21.2601 12.003 21.2525 11.7537C21.245 11.5044 21.4266 11.4604 21.6308 11.4384C23.2953 11.2698 24.6572 10.1699 25.1338 8.61547C25.8526 6.25444 24.1427 3.79808 21.6308 3.57811C21.419 3.55611 21.245 3.50479 21.2601 3.26282C21.2828 3.02818 21.472 3.01352 21.6687 3.03551C23.424 3.18949 25.096 4.37001 25.6635 6.21778C26.3141 8.32218 25.323 10.5439 23.2878 11.5411C23.2045 11.5778 23.1289 11.6218 23.0078 11.6877C24.2638 11.9957 25.3608 12.5236 26.3066 13.3229C27.8046 14.5987 28.6974 16.1898 28.9546 18.1183C28.9622 18.1989 28.9924 18.2722 29.0151 18.3529C29 18.8075 29 19.2621 29 19.7167ZM13.8304 20.4353C13.3538 19.8194 12.9301 19.2401 12.4761 18.6829C12.3021 18.4702 12.2794 18.2796 12.3702 18.0303C12.9301 16.4611 13.4824 14.892 14.0347 13.3229C14.0725 13.2202 14.0877 13.0736 14.0347 12.9929C13.611 12.3257 13.1722 11.6658 12.7409 11.0058C7.70206 12.003 5.4096 16.9304 6.39316 20.4353C8.85207 20.4353 11.311 20.4353 13.8304 20.4353ZM16.1077 10.9985C15.6916 11.6364 15.2831 12.2597 14.8669 12.8829C14.761 13.0369 14.7535 13.1616 14.814 13.3375C15.3739 14.914 15.9262 16.4978 16.486 18.0743C16.5693 18.2942 16.5466 18.4629 16.3877 18.6535C16.0245 19.0935 15.6765 19.5554 15.3209 20.0027C15.215 20.1347 15.1166 20.274 14.9956 20.428C15.0788 20.4353 15.1166 20.4426 15.1545 20.4426C17.5301 20.4426 19.9134 20.4353 22.2891 20.4353C22.4934 20.4353 22.516 20.3326 22.5387 20.186C22.7279 19.0935 22.6825 18.0083 22.4253 16.9231C21.7443 14.0048 19.119 11.5338 16.1077 10.9985ZM14.4357 13.9461C14.4054 13.9975 14.3903 14.0195 14.3827 14.0488C13.8985 15.4126 13.4143 16.7764 12.9376 18.1403C12.9074 18.2282 12.9528 18.3749 13.0133 18.4556C13.3084 18.8588 13.6186 19.2475 13.9212 19.6434C14.0801 19.8487 14.239 20.054 14.4054 20.274C14.8972 19.6507 15.3512 19.0568 15.8202 18.4776C15.9337 18.3382 15.9413 18.2209 15.8808 18.0596C15.6084 17.319 15.3587 16.5785 15.0939 15.8306C14.8821 15.2073 14.6627 14.5914 14.4357 13.9461ZM13.3235 10.8665C13.7169 11.4678 14.065 11.9957 14.4281 12.5456C14.7913 11.9884 15.1393 11.4604 15.5252 10.8665C14.7686 10.8665 14.0801 10.8665 13.3235 10.8665Z" fill="white"/>
<path d="M14.413 1.78045e-05C17.2956 -0.0073146 19.6486 2.25107 19.6561 5.03005C19.6637 7.85302 17.3259 10.1261 14.4206 10.1261C11.538 10.1187 9.2001 7.86036 9.19254 5.08137C9.18497 2.2804 11.5228 0.00735021 14.413 1.78045e-05ZM14.4357 9.57614C17.0308 9.56881 19.1038 7.54506 19.0963 5.03005C19.0887 2.54436 16.993 0.535283 14.4054 0.542616C11.833 0.549948 9.74485 2.58102 9.75241 5.06671C9.76754 7.56706 11.8557 9.58347 14.4357 9.57614Z" fill="white"/>
</g>
<defs>
<clipPath id="clip0_687_2820">
<rect width="29" height="21" fill="white"/>
</clipPath>
</defs>
</svg>
