<svg width="18" height="16" viewBox="0 0 18 16" fill="none" xmlns="http://www.w3.org/2000/svg">
<path d="M0 15.1792C0.0560112 15.3022 0.120594 15.4221 0.193367 15.538C0.582289 16.0836 1.45327 16.1382 1.94243 15.7429C1.99721 15.6971 2.05199 15.6489 2.10676 15.6012L8.85264 9.60656C8.89756 9.56665 8.94412 9.52917 9.03286 9.4542C9.06823 9.51108 9.1093 9.56501 9.15557 9.61533C11.4197 11.629 13.6839 13.6433 15.948 15.6582C16.338 16.0072 16.9154 16.0763 17.3317 15.9016C17.4932 15.8336 17.635 15.7334 17.746 15.6089C17.857 15.4843 17.9342 15.3388 17.9717 15.1834C18.0092 15.0281 18.006 14.8672 17.9622 14.7132C17.9185 14.5592 17.8355 14.4161 17.7195 14.2952C17.6648 14.2402 17.6067 14.1896 17.5486 14.138C15.3005 12.1396 13.0519 10.1415 10.8027 8.1438C10.7578 8.1034 10.7074 8.06689 10.6477 8.01967C10.7058 7.96515 10.7507 7.92231 10.7984 7.8785C13.068 5.86194 15.3372 3.84523 17.6061 1.82834C18.0991 1.39024 18.1315 0.77641 17.691 0.345611C17.4884 0.147493 17.2238 0.0608473 16.9433 0H16.6968C16.2772 0.0705828 15.9946 0.320786 15.7075 0.576831C13.5245 2.52394 11.3394 4.46749 9.15228 6.40746C9.10844 6.45714 9.07165 6.51142 9.04272 6.56907C8.96556 6.51934 8.89564 6.46129 8.83456 6.39627C6.64893 4.45305 4.46367 2.5095 2.27876 0.565636C1.99556 0.312998 1.714 0.0705828 1.30152 0H1.05557C0.716494 0.0676622 0.407005 0.18449 0.213093 0.457085C0.13413 0.582025 0.063343 0.710914 0.00109673 0.843103V1.24907C0.102983 1.57229 0.354424 1.79913 0.612974 2.02792C2.81029 3.97503 5.00542 5.92507 7.19836 7.87802C7.24656 7.92037 7.29202 7.96467 7.35501 8.02405C7.30024 8.06543 7.24985 8.09561 7.20876 8.13212C5.00523 10.0896 2.80153 12.0468 0.597635 14.0036C0.342918 14.229 0.0986004 14.4549 0.00109673 14.7737L0 15.1792Z" fill="#9A9A9A"/>
</svg>
