<svg width="50" height="50" viewBox="0 0 50 50" fill="none" xmlns="http://www.w3.org/2000/svg">
<path d="M50 23.3391C50 24.4456 50 25.5521 50 26.6585C49.9271 27.264 49.8541 27.8798 49.7708 28.4853C49.229 32.17 47.9996 35.5938 45.9158 38.6836C41.79 44.8109 36.0804 48.5061 28.7768 49.7066C28.0788 49.8214 27.3703 49.8944 26.6618 49.9884C25.5574 49.9884 24.453 49.9884 23.3382 49.9884C22.7339 49.9153 22.1192 49.8423 21.5149 49.7587C17.3786 49.1533 13.5862 47.6606 10.2313 45.1554C4.73015 41.0531 1.40654 35.5938 0.291727 28.8089C0.17712 28.0886 0.0937695 27.3684 0 26.6481C0 25.5416 0 24.4352 0 23.3287C0.0312565 23.1825 0.0729319 23.0468 0.0937695 22.9007C0.208377 22.0343 0.27089 21.1471 0.437591 20.2911C1.67743 14.1116 4.76141 9.02806 9.78329 5.18672C15.2844 0.969602 21.5357 -0.65879 28.4018 0.238914C33.2986 0.875657 37.6328 2.85896 41.3524 6.11574C45.9679 10.1554 48.7706 15.2076 49.7187 21.2828C49.8229 21.9613 49.9062 22.6502 50 23.3391ZM25.8908 11.408C25.8908 12.6815 25.8804 13.9446 25.9116 15.218C25.9116 15.4372 26.0471 15.7191 26.2138 15.8548C28.7456 17.9007 31.2878 19.9362 33.8404 21.9508C33.9862 22.0656 34.2676 22.1178 34.4343 22.0656C37.0598 21.2097 39.6749 20.3329 42.2796 19.4456C42.4463 19.383 42.6443 19.1742 42.686 19.0072C43.2382 16.7734 43.7591 14.5291 44.2801 12.2848C44.3217 12.1283 44.2696 11.8986 44.1759 11.7629C41.7795 8.31824 38.6851 5.70864 34.9031 3.91323C34.726 3.82973 34.4551 3.81929 34.2676 3.89236C31.5899 4.94664 28.9331 6.02179 26.2555 7.06564C25.9533 7.18046 25.8908 7.34747 25.8908 7.65019C25.9012 8.9028 25.8908 10.1554 25.8908 11.408ZM24.1092 11.4811C24.1092 10.1972 24.0988 8.91323 24.1196 7.62931C24.1196 7.34747 24.0571 7.20134 23.7758 7.08651C21.0669 6.03223 18.3684 4.95708 15.6699 3.9028C15.5136 3.84017 15.2844 3.8506 15.1282 3.91323C11.3253 5.70864 8.22046 8.33912 5.82413 11.7942C5.74078 11.9195 5.6991 12.1283 5.73036 12.2744C6.2513 14.5187 6.78266 16.7629 7.30361 19.0072C7.36612 19.289 7.50156 19.4038 7.76203 19.4873C10.3667 20.3433 12.961 21.2201 15.5657 22.0761C15.7429 22.1283 16.0242 22.0865 16.1596 21.9717C18.7227 19.9466 21.2753 17.9007 23.8175 15.8443C23.9737 15.7191 24.0988 15.4477 24.0988 15.2389C24.13 13.9863 24.1092 12.7337 24.1092 11.4811ZM13.6487 39.0698C13.7112 39.0176 13.8675 38.9237 13.9717 38.7775C15.1594 37.2118 16.3263 35.6251 17.5245 34.0698C17.7224 33.8088 17.7537 33.5792 17.6703 33.2765C16.9098 30.2911 16.17 27.2953 15.4303 24.3099C15.3574 24.0385 15.2428 23.8715 14.951 23.7775C12.3776 22.932 9.80413 22.0761 7.24109 21.2097C6.98062 21.1157 6.81392 21.1366 6.62638 21.3663C5.10523 23.2139 3.56324 25.0406 2.05251 26.8882C1.91707 27.0552 1.83372 27.3266 1.85455 27.5354C2.21921 31.1575 3.41738 34.4874 5.3657 37.5458C5.44905 37.6711 5.62617 37.7859 5.77204 37.8172C6.43884 37.9425 7.11607 38.0468 7.79329 38.1512C9.69994 38.4435 11.6066 38.7462 13.6487 39.0698ZM48.208 27.2744C48.1663 27.2013 48.1038 27.0448 47.9996 26.9091C46.468 25.051 44.9156 23.2139 43.384 21.3558C43.1965 21.1262 43.0298 21.1053 42.7693 21.1992C40.2063 22.0656 37.6328 22.9111 35.0698 23.788C34.8823 23.8506 34.6635 24.0698 34.6114 24.2577C33.83 27.3057 33.0798 30.3642 32.3297 33.4122C32.288 33.5688 32.3297 33.8089 32.4234 33.9341C33.6424 35.5729 34.8823 37.2118 36.1325 38.8297C36.2263 38.9445 36.4555 39.0385 36.6014 39.0176C38.9456 38.6627 41.2794 38.2452 43.6237 37.932C44.3009 37.8381 44.6656 37.5667 44.999 37.003C46.7597 34.0281 47.8329 30.8235 48.208 27.2744ZM15.2532 40.0823C15.274 40.1345 15.2949 40.1867 15.3157 40.2285C16.8785 42.6815 18.4413 45.1345 20.0146 47.5876C20.0979 47.7128 20.2751 47.8276 20.4313 47.859C23.6924 48.5375 26.9535 48.4539 30.2042 47.7233C30.3917 47.6815 30.6105 47.5145 30.7147 47.3475C32.0483 45.0615 33.3611 42.7546 34.6531 40.4477C34.7364 40.3015 34.7156 39.9988 34.6114 39.8631C33.4341 38.2661 32.2359 36.6899 31.0169 35.1137C30.9023 34.9675 30.6522 34.8423 30.4543 34.8423C26.8077 34.8214 23.1611 34.8318 19.5145 34.8423C19.3478 34.8423 19.1186 34.9362 19.0248 35.0615C17.7641 36.7212 16.5139 38.4122 15.2532 40.0823Z" fill="black"/>
</svg>
