<svg width="55" height="55" viewBox="0 0 55 55" fill="none" xmlns="http://www.w3.org/2000/svg">
<g filter="url(#filter0_d_687_2522)">
<circle cx="25.209" cy="24.5" r="16.875" fill="#54D2E0"/>
<path d="M31.1741 18.5347C29.7897 17.1412 27.9625 16.2745 26.0075 16.0838C24.0525 15.8931 22.0922 16.3905 20.4647 17.4902C18.8371 18.5899 17.6442 20.223 17.0917 22.108C16.5391 23.9929 16.6616 26.0116 17.4378 27.8159C17.5187 27.9836 17.5453 28.1724 17.5138 28.3559L16.7713 31.925C16.7427 32.0618 16.7485 32.2036 16.7883 32.3377C16.828 32.4717 16.9005 32.5937 16.9991 32.6928C17.0799 32.7731 17.1762 32.8361 17.282 32.8782C17.3879 32.9202 17.5011 32.9404 17.615 32.9375H17.7838L21.395 32.2119C21.5786 32.1898 21.7647 32.216 21.935 32.2878C23.7394 33.0641 25.758 33.1865 27.643 32.634C29.5279 32.0814 31.161 30.8885 32.2607 29.261C33.3604 27.6334 33.8578 25.6732 33.6672 23.7182C33.4765 21.7632 32.6097 19.936 31.2163 18.5516L31.1741 18.5347ZM21.8338 25.3438C21.6669 25.3438 21.5038 25.2943 21.365 25.2016C21.2262 25.1088 21.1181 24.9771 21.0542 24.8229C20.9904 24.6687 20.9737 24.4991 21.0062 24.3354C21.0388 24.1717 21.1191 24.0214 21.2371 23.9034C21.3551 23.7854 21.5055 23.705 21.6692 23.6725C21.8328 23.6399 22.0025 23.6566 22.1567 23.7205C22.3108 23.7843 22.4426 23.8925 22.5353 24.0312C22.628 24.17 22.6775 24.3331 22.6775 24.5C22.6775 24.7238 22.5886 24.9384 22.4304 25.0966C22.2722 25.2549 22.0575 25.3438 21.8338 25.3438ZM25.2088 25.3438C25.0419 25.3438 24.8788 25.2943 24.74 25.2016C24.6012 25.1088 24.4931 24.9771 24.4292 24.8229C24.3654 24.6687 24.3487 24.4991 24.3812 24.3354C24.4138 24.1717 24.4941 24.0214 24.6121 23.9034C24.7301 23.7854 24.8805 23.705 25.0442 23.6725C25.2078 23.6399 25.3775 23.6566 25.5317 23.7205C25.6858 23.7843 25.8176 23.8925 25.9103 24.0312C26.003 24.17 26.0525 24.3331 26.0525 24.5C26.0525 24.7238 25.9636 24.9384 25.8054 25.0966C25.6472 25.2549 25.4325 25.3438 25.2088 25.3438ZM28.5838 25.3438C28.4169 25.3438 28.2538 25.2943 28.115 25.2016C27.9762 25.1088 27.8681 24.9771 27.8042 24.8229C27.7404 24.6687 27.7237 24.4991 27.7562 24.3354C27.7888 24.1717 27.8691 24.0214 27.9871 23.9034C28.1051 23.7854 28.2555 23.705 28.4192 23.6725C28.5828 23.6399 28.7525 23.6566 28.9067 23.7205C29.0608 23.7843 29.1926 23.8925 29.2853 24.0312C29.378 24.17 29.4275 24.3331 29.4275 24.5C29.4275 24.7238 29.3386 24.9384 29.1804 25.0966C29.0222 25.2549 28.8075 25.3438 28.5838 25.3438Z" fill="white"/>
<circle cx="32.5215" cy="18.3125" r="3.9375" fill="#F8A27E"/>
</g>
<defs>
<filter id="filter0_d_687_2522" x="-4.16602" y="-3.875" width="62.75" height="62.75" filterUnits="userSpaceOnUse" color-interpolation-filters="sRGB">
<feFlood flood-opacity="0" result="BackgroundImageFix"/>
<feColorMatrix in="SourceAlpha" type="matrix" values="0 0 0 0 0 0 0 0 0 0 0 0 0 0 0 0 0 0 127 0" result="hardAlpha"/>
<feOffset dx="2" dy="3"/>
<feGaussianBlur stdDeviation="5"/>
<feColorMatrix type="matrix" values="0 0 0 0 0 0 0 0 0 0 0 0 0 0 0 0 0 0 0.25 0"/>
<feBlend mode="normal" in2="BackgroundImageFix" result="effect1_dropShadow_687_2522"/>
<feBlend mode="normal" in="SourceGraphic" in2="effect1_dropShadow_687_2522" result="shape"/>
</filter>
</defs>
</svg>
