<svg width="26" height="27" viewBox="0 0 26 27" fill="none" xmlns="http://www.w3.org/2000/svg">
<g clip-path="url(#clip0_687_2798)">
<path d="M26 8.84346C25.8601 9.09144 25.752 9.35849 25.5802 9.58104C25.275 9.96891 24.8043 10.0452 24.3527 10.1024C24.1492 10.1279 24.022 10.2042 23.9711 10.4013C23.9711 10.4077 23.9711 10.4204 23.9648 10.4267C23.7613 10.7319 23.8249 10.9863 24.0475 11.2851C24.658 12.1117 24.5817 12.8048 23.8503 13.5424C23.6595 13.7332 23.475 13.9303 23.2652 14.1083C22.7691 14.5407 22.1204 14.5979 21.5416 14.2736C21.4589 14.2291 21.3699 14.191 21.3063 14.121C20.9628 13.7204 20.5939 13.8603 20.2314 14.0702C20.1742 14.102 20.1233 14.191 20.1106 14.2609C20.0533 14.4835 20.0342 14.7124 19.9706 14.9286C19.7989 15.5517 19.3028 15.9714 18.6605 16.0159C18.317 16.0413 17.9672 16.0477 17.6238 16.0286C16.797 15.9904 16.2818 15.5263 16.1164 14.7187C16.1101 14.6933 16.1037 14.6679 16.1037 14.6424C16.1419 14.121 15.7794 13.9557 15.3787 13.8476C15.3023 13.8285 15.1942 13.8858 15.1115 13.9303C14.7745 14.0956 14.4565 14.3181 14.1067 14.4326C13.6996 14.5725 13.2926 14.439 12.9682 14.1655C12.6248 13.8794 12.3004 13.5615 12.0205 13.2181C11.6326 12.7412 11.6071 12.2008 11.8679 11.6476C11.9188 11.5395 11.976 11.4314 12.0587 11.3487C12.3831 11.0308 12.3894 10.6938 12.1477 10.3377C12.0841 10.2487 11.9824 10.1597 11.8806 10.1279C11.6835 10.0643 11.4672 10.0579 11.2637 10.0007C10.6531 9.84174 10.2143 9.31398 10.1698 8.69085C10.1507 8.34749 10.138 7.99777 10.157 7.65441C10.1952 6.78965 10.6849 6.26825 11.5881 6.12201C12.0841 6.03935 12.2495 5.88674 12.3449 5.39078C12.3576 5.31447 12.3068 5.2191 12.2622 5.14279C12.0523 4.81851 11.7979 4.51966 11.7343 4.11907C11.6644 3.68033 11.7598 3.2861 12.0396 2.96182C12.294 2.66297 12.5802 2.37684 12.8728 2.11614C13.3816 1.65832 14.0685 1.60745 14.66 1.96353C14.7427 2.0144 14.8253 2.05891 14.8889 2.12249C15.1561 2.39591 15.4295 2.40863 15.7666 2.22423C15.9511 2.12249 16.0528 2.03348 16.0719 1.81729C16.1355 1.27045 16.2691 0.736337 16.797 0.437486C17.0323 0.303957 17.3121 0.227655 17.5793 0.189504C17.8464 0.144994 18.1199 0.195862 18.387 0.176787C19.1248 0.11956 19.9261 0.558298 20.0342 1.55023C20.0851 2.0144 20.2887 2.24967 20.7084 2.33868C20.8038 2.35776 20.9247 2.3514 21.001 2.30689C21.1918 2.1988 21.3635 2.05255 21.5479 1.94446C22.114 1.61381 22.8009 1.6774 23.2906 2.11614C23.5577 2.35776 23.8185 2.61846 24.0602 2.88552C24.5181 3.38784 24.5753 4.08728 24.2255 4.67226C24.1937 4.72949 24.1619 4.79307 24.1111 4.84394C23.774 5.16823 23.7549 5.51795 24.0157 5.88674C24.0729 5.96304 24.1556 6.03935 24.2446 6.07114C24.4036 6.12201 24.5753 6.14108 24.7407 6.17287C25.364 6.29369 25.7647 6.65612 25.9491 7.26654C25.9555 7.29833 25.9809 7.31741 26 7.3492C26 7.83245 26 8.34113 26 8.84346ZM13.8395 10.9354C13.7759 11.0817 13.725 11.2406 13.636 11.3805C13.4706 11.6348 13.2926 11.8828 13.1145 12.1308C13.0127 12.2707 13.0191 12.3915 13.1463 12.5123C13.3116 12.6713 13.477 12.8302 13.6296 12.9956C13.7759 13.1545 13.9095 13.1482 14.0685 13.0274C14.3102 12.843 14.5646 12.6713 14.8126 12.4996C15.0479 12.3406 15.2833 12.3152 15.5568 12.436C15.9574 12.6204 16.3645 12.7794 16.7715 12.9383C17.0514 13.0464 17.2104 13.2436 17.2613 13.5297C17.3121 13.8285 17.3694 14.1274 17.4139 14.4262C17.4393 14.6043 17.522 14.6997 17.7128 14.6869C17.9418 14.6806 18.1707 14.6742 18.3997 14.6869C18.6223 14.6997 18.705 14.5916 18.7368 14.4008C18.7813 14.1083 18.8449 13.8222 18.8894 13.5297C18.934 13.2054 19.1248 13.0274 19.4173 12.9129C19.7926 12.7667 20.1742 12.6204 20.5367 12.4487C20.8356 12.3089 21.1027 12.3279 21.3699 12.5187C21.6115 12.6904 21.8596 12.8557 22.0949 13.0337C22.2539 13.1482 22.3811 13.1418 22.5147 12.9956C22.661 12.8366 22.82 12.6776 22.979 12.5314C23.1189 12.3979 23.1443 12.2771 23.0171 12.1181C22.8327 11.8765 22.6673 11.6158 22.4892 11.3741C22.3112 11.1198 22.2984 10.8655 22.4256 10.5857C22.5974 10.1978 22.7564 9.80995 22.909 9.41572C23.0235 9.11687 23.227 8.95155 23.5387 8.90068C23.8312 8.85617 24.1174 8.79259 24.41 8.75444C24.6071 8.729 24.6898 8.62726 24.6835 8.43015C24.6771 8.22032 24.6707 8.00413 24.6835 7.7943C24.7025 7.55267 24.5817 7.46365 24.3655 7.4255C24.0729 7.38099 23.7867 7.32377 23.4941 7.2729C23.1952 7.22203 23.0171 7.05035 22.909 6.77693C22.7564 6.38271 22.5974 5.99484 22.4256 5.60697C22.2984 5.32719 22.3112 5.07285 22.4892 4.81851C22.6673 4.56417 22.8454 4.30347 23.0298 4.04913C23.1316 3.90924 23.1252 3.79479 22.998 3.67397C22.8263 3.50865 22.6546 3.34333 22.4956 3.17165C22.3684 3.03176 22.2476 3.03176 22.0949 3.13986C21.8532 3.32426 21.5925 3.48958 21.3508 3.66762C21.1027 3.84565 20.842 3.86473 20.5621 3.73756C20.1678 3.56588 19.7735 3.40056 19.3728 3.24795C19.1057 3.14622 18.9403 2.96818 18.8894 2.68204C18.8386 2.38319 18.7813 2.08434 18.7368 1.78549C18.705 1.57566 18.6096 1.46757 18.3806 1.48664C18.1644 1.49936 17.9418 1.493 17.7192 1.48664C17.5347 1.48028 17.4457 1.5693 17.4139 1.7537C17.3694 2.04619 17.3058 2.33233 17.2613 2.62482C17.2167 2.9491 17.0323 3.15258 16.727 3.26703C16.339 3.41328 15.9574 3.57224 15.5822 3.73756C15.3023 3.86473 15.0479 3.85837 14.7935 3.67397C14.5391 3.48958 14.2784 3.3179 14.024 3.1335C13.8777 3.0254 13.7632 3.03812 13.6487 3.16529C13.4834 3.33697 13.318 3.50229 13.1463 3.66762C13.0064 3.79479 13.0064 3.92196 13.1145 4.0682C13.2989 4.32254 13.477 4.57688 13.6551 4.83758C13.8204 5.07921 13.8395 5.32719 13.7123 5.60061C13.5342 5.98848 13.3689 6.38906 13.2162 6.78965C13.1145 7.05671 12.9364 7.22203 12.6502 7.2729C12.3576 7.32377 12.0714 7.38099 11.7789 7.4255C11.5626 7.4573 11.4418 7.53996 11.4609 7.78794C11.4799 8.00413 11.4736 8.22668 11.4609 8.44923C11.4545 8.63998 11.5372 8.729 11.7153 8.75444C12.0015 8.79894 12.2813 8.86253 12.5612 8.90068C12.911 8.94519 13.1208 9.13595 13.2417 9.46023C13.3752 9.82267 13.5342 10.1787 13.6805 10.5348C13.7441 10.6556 13.7823 10.7828 13.8395 10.9354Z" fill="white"/>
<path d="M8.98679 26.1576C8.77691 26.0686 8.56067 25.9987 8.36986 25.8842C7.79746 25.5345 7.58121 24.9686 7.53033 24.3455C7.49853 23.9131 7.30773 23.7223 6.90705 23.5379C6.44276 23.3217 6.13112 23.379 5.76859 23.6905C5.23434 24.1483 4.59834 24.3709 3.93689 24.0593C3.1228 23.6778 2.49951 23.042 2.10519 22.2408C1.8317 21.6876 1.96526 21.1153 2.31507 20.6066C2.49315 20.3459 2.77935 20.1043 2.81751 19.8309C2.84932 19.5702 2.60127 19.2777 2.51223 18.9916C2.44863 18.7945 2.35323 18.7118 2.14335 18.6864C1.8317 18.6482 1.52642 18.591 1.2275 18.502C0.521526 18.3049 0.0318004 17.6499 0.0127202 16.9251C0 16.5245 0 16.1302 0 15.7297C0.00636008 14.8267 0.572407 14.1527 1.45646 13.9811C1.76174 13.9238 2.13699 13.9556 2.35959 13.7839C2.56947 13.625 2.60763 13.2498 2.74119 12.9828C2.83023 12.8047 2.8366 12.6712 2.70303 12.5059C2.53131 12.2961 2.37867 12.0735 2.23875 11.8382C1.81898 11.1452 1.87622 10.3758 2.41683 9.77172C2.74119 9.40928 3.09736 9.05956 3.46624 8.74164C3.98777 8.29018 4.77006 8.23931 5.36791 8.59539C5.63503 8.75435 5.89579 8.93875 6.14384 9.12315C6.27104 9.21853 6.37916 9.24396 6.5318 9.1613C6.74804 9.04685 6.97701 8.95783 7.20597 8.88153C7.37133 8.8243 7.44765 8.74164 7.46673 8.55724C7.49217 8.29654 7.54305 8.0422 7.60665 7.78786C7.69569 7.42542 8.05822 7.20288 8.3953 7.28554C8.72603 7.36184 8.94863 7.71156 8.89775 8.06128C8.82779 8.50001 8.75147 8.94511 8.66879 9.38385C8.61791 9.66362 8.45254 9.84802 8.18542 9.95612C7.66389 10.1659 7.14237 10.3821 6.62084 10.6047C6.341 10.7255 6.08024 10.7128 5.83219 10.5284C5.50147 10.2931 5.17074 10.0579 4.83366 9.82895C4.55382 9.63819 4.40117 9.65091 4.15949 9.88617C3.92417 10.1151 3.68885 10.3503 3.45988 10.5856C3.24364 10.8082 3.23092 10.9608 3.409 11.2151C3.63796 11.5521 3.87329 11.8827 4.10861 12.2134C4.31213 12.4868 4.31849 12.7539 4.17857 13.0654C3.96233 13.536 3.75881 14.0192 3.58072 14.5088C3.45352 14.8522 3.23092 15.0302 2.88112 15.0811C2.48679 15.1447 2.09883 15.2146 1.71086 15.2846C1.43102 15.3354 1.31654 15.469 1.31018 15.7551C1.30382 16.0921 1.30382 16.4291 1.31018 16.7725C1.31654 17.0777 1.44374 17.2175 1.74266 17.2684C2.14335 17.3384 2.53767 17.4083 2.93836 17.4782C3.25 17.5291 3.44716 17.7008 3.56164 17.9996C3.75881 18.5083 3.96869 19.017 4.19129 19.513C4.31849 19.7928 4.30577 20.0471 4.13405 20.3014C3.89873 20.6321 3.66977 20.9627 3.43444 21.2997C3.23092 21.5986 3.23728 21.7385 3.48532 21.9864C3.70157 22.209 3.92417 22.4315 4.14677 22.6477C4.40117 22.9021 4.5411 22.9148 4.83366 22.7113C5.15802 22.4888 5.48875 22.2599 5.80675 22.0246C6.08024 21.8275 6.34736 21.8211 6.659 21.961C7.12965 22.1836 7.61937 22.3807 8.10274 22.5587C8.43346 22.6795 8.61791 22.883 8.66243 23.2327C8.71967 23.6269 8.79599 24.0148 8.86595 24.4027C8.91683 24.6888 9.06311 24.816 9.34932 24.8223C9.6864 24.8287 10.0235 24.8287 10.3669 24.8223C10.6659 24.816 10.7931 24.7015 10.8503 24.409C10.9203 24.0339 10.9966 23.6651 11.0475 23.2899C11.1047 22.8957 11.3019 22.6604 11.6898 22.5333C12.1414 22.3807 12.5866 22.1963 13.0191 21.9801C13.3625 21.8084 13.6551 21.8148 13.9604 22.0437C14.272 22.2789 14.59 22.4951 14.9144 22.7177C15.1815 22.9021 15.3341 22.8894 15.5631 22.6604C15.7984 22.4315 16.0338 22.1963 16.2627 21.961C16.4853 21.7321 16.498 21.5731 16.3136 21.3061C16.091 20.9754 15.862 20.6511 15.6267 20.3332C15.4105 20.0407 15.4168 19.7546 15.5695 19.4303C15.7794 18.9789 15.9765 18.521 16.1419 18.0569C16.2627 17.7072 16.4662 17.5037 16.8415 17.4528C17.2613 17.3956 17.6747 17.3066 18.0881 17.2366C18.4379 17.1794 18.7877 17.4274 18.8513 17.7517C18.9149 18.095 18.705 18.4384 18.3552 18.5274C18.1008 18.591 17.8464 18.6419 17.5856 18.6673C17.3948 18.6864 17.3058 18.769 17.2485 18.9471C17.1786 19.1569 17.0959 19.3604 16.9941 19.5511C16.8987 19.7292 16.8987 19.8627 17.0323 20.028C17.1977 20.2315 17.3439 20.4477 17.4839 20.6702C17.9163 21.376 17.8527 22.1645 17.2994 22.7749C16.9941 23.1119 16.6698 23.4362 16.3263 23.735C15.7348 24.2437 14.9716 24.2946 14.3038 23.8876C14.0431 23.7287 13.8077 23.5379 13.547 23.379C13.4706 23.3344 13.3434 23.3154 13.2608 23.3472C13 23.4362 12.7392 23.5443 12.4912 23.6714C12.4085 23.7096 12.3258 23.805 12.3004 23.894C12.2368 24.1293 12.205 24.3709 12.1605 24.6125C12.0333 25.3565 11.6199 25.8524 10.8885 26.075C10.8503 26.0877 10.8185 26.1131 10.7867 26.1322C10.2079 26.1576 9.59736 26.1576 8.98679 26.1576Z" fill="white"/>
<path d="M9.88356 20.7212C7.6321 20.6767 5.77495 19.0235 5.49511 16.7916C5.19619 14.3563 7.03425 12.0863 9.47652 11.8829C9.60372 11.8701 9.73092 11.8511 9.85812 11.8511C10.2206 11.8511 10.5323 12.1436 10.5514 12.4933C10.5705 12.8176 10.3097 13.1355 9.95353 13.1673C9.47016 13.2182 8.99951 13.269 8.55431 13.4852C7.36497 14.0638 6.6272 15.3737 6.80529 16.62C7.00881 18.0443 8.00098 19.0807 9.38112 19.3096C11.1937 19.6085 12.8537 18.2795 12.9555 16.4483C12.9618 16.2957 12.9809 16.1367 13.0382 16.0032C13.159 15.7107 13.4834 15.5581 13.7632 15.6217C14.1003 15.698 14.3165 15.9905 14.3038 16.3529C14.2402 18.3686 12.911 20.0472 10.9775 20.5432C10.6213 20.6449 10.2461 20.664 9.88356 20.7212Z" fill="white"/>
<path d="M18.0626 11.247C16.3072 11.2342 14.9017 9.81628 14.9207 8.07405C14.9398 6.30638 16.3518 4.92658 18.1262 4.9393C19.8562 4.95201 21.2427 6.38904 21.2299 8.15035C21.2109 9.86079 19.7798 11.2597 18.0626 11.247ZM18.069 9.91802C19.0675 9.91802 19.888 9.11049 19.907 8.10584C19.9198 7.12027 19.0739 6.26823 18.069 6.26187C17.0895 6.25551 16.25 7.10119 16.25 8.09312C16.25 9.09777 17.0641 9.91166 18.069 9.91802Z" fill="white"/>
</g>
<defs>
<clipPath id="clip0_687_2798">
<rect width="26" height="26" fill="white" transform="translate(0 0.157715)"/>
</clipPath>
</defs>
</svg>
