<svg width="47" height="33" viewBox="0 0 47 33" fill="none" xmlns="http://www.w3.org/2000/svg">
<path d="M0 27.9183C0.343424 27.2785 0.870825 27.0817 1.5822 27.0817C7.2119 27.1063 12.8416 27.094 18.4713 27.1063C18.8147 27.1063 18.9742 27.0324 19.0968 26.6879C19.7714 24.7808 21.5253 23.575 23.5245 23.575C25.5237 23.5873 27.2409 24.7808 27.9154 26.6756C28.0504 27.0447 28.2343 27.1063 28.5778 27.1063C34.2688 27.094 39.9598 27.094 45.6508 27.1063C46.4358 27.1063 46.9509 27.5246 47.0123 28.1767C47.0613 28.8535 46.6075 29.4072 45.9329 29.481C45.7612 29.4933 45.6018 29.4933 45.4301 29.4933C39.8004 29.4933 34.1707 29.4933 28.541 29.481C28.1975 29.481 28.0504 29.5794 27.9277 29.9116C27.2409 31.8188 25.4992 33.0246 23.4877 33.0123C21.5008 33 19.7714 31.7942 19.1091 29.8993C18.9864 29.5548 18.827 29.481 18.4836 29.481C12.8539 29.4933 7.22416 29.481 1.59447 29.5056C0.88309 29.5056 0.355689 29.3087 0.0122651 28.6689C0 28.4105 0 28.1644 0 27.9183ZM23.4877 25.9497C22.1876 25.962 21.1696 26.9832 21.1819 28.2998C21.1819 29.604 22.1999 30.6253 23.5123 30.6253C24.8369 30.6253 25.8549 29.5794 25.8426 28.2629C25.8181 26.9463 24.7878 25.9374 23.4877 25.9497Z" fill="#DADADA"/>
<path d="M0 16.1309C0.343424 15.4911 0.870824 15.2942 1.5822 15.2942C11.8604 15.3066 22.1508 15.3066 32.429 15.3066C32.6252 15.3066 32.8215 15.3066 33.0055 15.3066C34.1339 12.7719 35.5934 11.7137 37.8011 11.7875C39.8371 11.8614 41.3457 13.0549 42.1798 15.3066C43.3572 15.3066 44.5469 15.3066 45.7367 15.3066C46.4848 15.3066 47 15.7864 47.0122 16.4755C47.0245 17.1768 46.5094 17.6813 45.7489 17.6936C44.5715 17.7059 43.394 17.6936 42.2166 17.6936C41.4316 19.8837 39.9598 21.2126 37.5926 21.2003C35.2622 21.188 33.815 19.8714 33.03 17.6936C32.846 17.6936 32.6498 17.6936 32.4535 17.6936C22.1754 17.6936 11.8849 17.6936 1.60673 17.7059C0.895354 17.7059 0.367954 17.509 0.0245303 16.8692C0 16.6231 0 16.377 0 16.1309ZM37.6662 14.1623C36.3538 14.1253 35.2745 15.1589 35.25 16.4632C35.2254 17.7305 36.2312 18.7887 37.5068 18.8256C38.8069 18.8748 39.8985 17.8658 39.9353 16.5985C39.9843 15.2573 38.9908 14.1992 37.6662 14.1623Z" fill="#DADADA"/>
<path d="M0 4.34347C0.343424 3.70365 0.870825 3.48218 1.5822 3.50679C2.64927 3.5437 3.7286 3.51909 4.8202 3.51909C4.91832 3.273 5.00418 3.03922 5.1023 2.80544C5.88727 1.00902 7.62892 -0.0614468 9.60361 7.44611e-05C11.4924 0.0615957 13.1728 1.27972 13.8105 3.10075C13.9332 3.44526 14.0804 3.53139 14.4238 3.53139C24.7511 3.51909 35.0783 3.51909 45.4055 3.51909C45.5773 3.51909 45.749 3.50679 45.9084 3.53139C46.5339 3.59292 46.9878 4.08508 47 4.68799C47.0123 5.32781 46.5585 5.83229 45.9207 5.89381C45.749 5.90611 45.5895 5.90611 45.4178 5.90611C35.1396 5.90611 24.8492 5.90611 14.571 5.90611C14.387 5.90611 14.203 5.90611 14.0068 5.90611C13.1114 8.31775 11.4434 9.59739 8.8309 9.38822C7.48174 9.27748 5.60517 8.37927 4.83247 5.90611C3.75313 5.90611 2.6738 5.88151 1.59447 5.91842C0.870825 5.93072 0.343424 5.70925 0 5.08173C0 4.83564 0 4.58956 0 4.34347ZM9.41963 7.05041C10.7075 7.0381 11.75 5.99224 11.75 4.7003C11.75 3.40835 10.6952 2.37479 9.40736 2.37479C8.09499 2.37479 7.05246 3.42066 7.06472 4.74951C7.07699 6.02916 8.11952 7.05041 9.41963 7.05041Z" fill="#DADADA"/>
</svg>
