<svg width="41" height="41" viewBox="0 0 41 41" fill="none" xmlns="http://www.w3.org/2000/svg">
<g clip-path="url(#clip0_1_29469)">
<path d="M41.0003 20.0081C40.8613 20.8209 40.7223 21.6336 40.594 22.4463C40.3587 23.9221 40.5833 23.6868 39.2145 24.2108C32.595 26.7131 25.9756 29.2155 19.3668 31.7285C19.046 31.8462 18.7466 32.0814 18.4792 32.306C18.1156 32.6161 17.7841 32.9583 17.3884 33.3433C17.5809 33.5144 17.7413 33.632 17.8911 33.7817C18.2546 34.156 18.2653 34.4447 17.8911 34.819C16.9393 35.7708 16.0089 36.7439 15.0251 37.6743C14.2552 38.4014 13.4959 39.1928 12.6083 39.7596C7.66779 42.8715 1.04834 39.8558 0.117977 34.0705C-0.309774 31.397 0.40671 29.0123 2.26743 27.034C3.53999 25.6865 4.88741 24.4033 6.20274 23.0986C6.56633 22.735 6.85506 22.735 7.24004 23.1093C7.37906 23.2483 7.50739 23.3981 7.6571 23.5585C8.40566 22.8099 9.13284 22.1469 9.50712 21.1203C10.9722 17.078 12.5228 13.0786 14.052 9.05769C14.1055 8.91867 14.1482 8.77965 14.2231 8.65133C14.3835 8.40537 14.6081 8.28774 14.9075 8.39467C15.1962 8.49092 15.3459 8.6941 15.3245 9.00422C15.3139 9.16463 15.2604 9.31434 15.1962 9.46405C13.6349 13.6132 12.0629 17.7517 10.4803 21.8902C10.3519 22.2324 10.3626 22.4463 10.6407 22.6816C10.8118 22.8206 10.9294 23.0238 11.1112 23.259C11.4534 22.6602 11.7314 22.179 11.9988 21.6871C15.2925 15.8376 18.5755 9.98805 21.8691 4.13855C22.0189 3.88189 22.0402 3.67871 21.9119 3.40067C21.6125 2.79113 21.3772 2.16019 21.0885 1.53995C21.035 1.43302 20.8639 1.31538 20.757 1.32608C19.9763 1.42232 19.2064 1.56134 18.4257 1.65759C18.1905 1.68967 18.0942 1.77522 18.0087 1.98909C17.4633 3.45414 16.8965 4.91919 16.3405 6.39494C16.1801 6.81199 15.9234 7.00448 15.6133 6.94032C15.1962 6.85477 15.0144 6.48049 15.1962 5.99927C15.6133 4.87642 16.041 3.75357 16.4581 2.64141C16.6506 2.13881 16.8538 1.65759 17.0142 1.14428C17.1425 0.727226 17.4205 0.556126 17.8269 0.502657C18.8214 0.374331 19.8052 0.224618 20.7891 0.0855987C20.8532 0.0749049 20.9067 0.0428236 20.9709 0.0107422C21.1847 0.0107422 21.3986 0.0107422 21.6125 0.0107422C21.7622 0.256699 21.944 0.481269 22.0616 0.748614C22.3824 1.4651 22.7033 2.18158 22.992 2.90876C23.0882 3.14402 23.2166 3.21888 23.4732 3.21888C24.5212 3.20819 25.5799 3.20819 26.6279 3.21888C27.184 3.21888 27.3016 3.30443 27.462 3.82843C27.7828 4.83364 28.1036 5.82816 28.4031 6.83338C28.4779 7.07934 28.5955 7.17558 28.8308 7.21836C30.0071 7.43223 31.1834 7.6568 32.3598 7.88137C32.9265 7.98831 33.0442 8.10594 33.1404 8.67271C33.3543 9.84903 33.5788 11.0253 33.8034 12.2017C33.8462 12.4369 33.9531 12.5546 34.1884 12.6187C35.1615 12.8968 36.1133 13.2069 37.0757 13.517C37.7173 13.7202 37.7922 13.8164 37.7922 14.4794C37.7922 15.506 37.8029 16.5326 37.7815 17.5593C37.7815 17.8159 37.8564 17.9335 38.0916 18.0298C38.8188 18.3292 39.5353 18.6393 40.2518 18.9601C40.5084 19.0778 40.7437 19.2596 40.9896 19.4093C41.0003 19.5804 41.0003 19.7943 41.0003 20.0081ZM15.9234 27.9536C16.1907 28.2103 16.4367 28.4028 16.6292 28.638C16.8538 28.9161 17.0356 28.9054 17.335 28.7343C19.7411 27.3655 22.1579 26.0073 24.5747 24.6492C25.0452 24.3819 25.3981 24.4247 25.5906 24.7562C25.7938 25.1091 25.6441 25.4299 25.1628 25.7079C25.1308 25.7293 25.088 25.7507 25.0559 25.7614C22.7888 27.034 20.5324 28.3065 18.2653 29.5791C18.137 29.6539 17.998 29.7288 17.7948 29.8571C18.0301 30.0603 18.2333 30.1993 18.383 30.3811C18.5862 30.6271 18.7786 30.6378 19.0674 30.5201C21.142 29.7181 23.2166 28.9374 25.2912 28.1568C29.8574 26.4244 34.4237 24.692 38.9899 22.9703C39.2145 22.8848 39.3214 22.7778 39.3535 22.5319C39.4497 21.7512 39.5995 20.9813 39.6957 20.2006C39.7064 20.1044 39.5674 19.9226 39.4604 19.8798C38.8616 19.6018 38.2306 19.3665 37.6318 19.0671C37.3431 18.9281 37.1185 18.9601 36.8618 19.1099C34.3274 20.5428 31.7823 21.9758 29.2372 23.3981C28.7666 23.6654 28.2854 23.9434 27.8042 24.1894C27.4834 24.3605 27.1412 24.2536 26.9808 23.9541C26.8204 23.6547 26.9059 23.3339 27.2267 23.1307C27.3444 23.0559 27.4834 22.981 27.6117 22.9168C30.499 21.2914 33.397 19.6659 36.2844 18.0405C36.4127 17.9656 36.5838 17.8373 36.5838 17.7304C36.6052 16.6824 36.5945 15.6237 36.5945 14.565C35.6855 14.2763 34.8086 14.0196 33.9424 13.7202C33.6002 13.6025 33.365 13.6667 33.0869 13.8913C28.2213 17.8801 23.3449 21.8475 18.4685 25.8256C17.6344 26.5527 16.8003 27.2371 15.9234 27.9536ZM15.1 27.0446C15.1534 27.0019 15.2176 26.9484 15.2818 26.9056C18.1691 24.553 21.0457 22.2004 23.933 19.8477C26.7455 17.5593 29.5473 15.2601 32.3704 12.9823C32.6057 12.7898 32.6806 12.6294 32.6164 12.3193C32.4025 11.3141 32.2421 10.3089 32.0282 9.30365C32.0069 9.17532 31.8465 9.00422 31.7181 8.98283C30.7343 8.77965 29.7291 8.61924 28.7453 8.39467C28.3924 8.31982 28.1999 8.41606 27.986 8.68341C24.1469 13.4101 20.2865 18.126 16.4367 22.8527C15.6026 23.8686 14.7792 24.8952 13.945 25.9218C14.33 26.2961 14.6936 26.6597 15.1 27.0446ZM2.87698 28.1996C0.599198 30.8302 0.57781 35.0864 3.3582 37.7812C6.13858 40.476 10.3412 40.2836 12.8008 38.0913C12.234 37.5246 11.678 36.9578 11.1005 36.4017C10.1808 35.5355 10.1701 35.3644 10.5016 34.9474C10.8118 34.5517 11.1112 34.6907 11.9453 35.5248C12.4586 36.0381 12.9612 36.5407 13.4745 37.054C13.5494 37.1289 13.6242 37.1824 13.667 37.2144C14.0413 36.8615 14.3835 36.53 14.6936 36.2413C11.3678 32.9155 8.05277 29.6005 4.82324 26.3709C4.49174 26.6811 4.13884 27.0126 3.76456 27.3548C5.56112 29.1406 7.35767 30.9372 9.15423 32.7444C9.25047 32.8407 9.34672 32.9262 9.42157 33.0439C9.59267 33.3112 9.58198 33.5786 9.35741 33.8138C9.13284 34.0384 8.8655 34.0705 8.59815 33.8887C8.48052 33.8031 8.37358 33.6962 8.27734 33.5999C6.57703 31.8996 4.88741 30.21 3.18709 28.5097C3.09085 28.3921 2.98391 28.2958 2.87698 28.1996ZM13.0361 25.0663C13.1644 24.9273 13.25 24.831 13.3355 24.7241C15.5705 21.9865 17.8055 19.2489 20.0405 16.5113C22.4145 13.6025 24.7779 10.7045 27.1519 7.80652C27.3123 7.61403 27.3658 7.44293 27.2802 7.19697C27.0022 6.36285 26.7455 5.52874 26.4996 4.68393C26.4354 4.47005 26.3392 4.3952 26.1146 4.3952C25.2591 4.40589 24.4036 4.41658 23.5588 4.3952C23.238 4.3845 23.0669 4.48075 22.9064 4.76948C19.5058 10.8329 16.0945 16.8962 12.6939 22.9596C12.4907 23.3232 12.1057 23.751 12.1699 24.0718C12.2127 24.4247 12.7046 24.7134 13.0361 25.0663ZM16.6078 34.3271C13.2927 31.012 9.97765 27.697 6.70535 24.4247C6.39523 24.7241 6.05303 25.0449 5.74291 25.3443C9.04729 28.6487 12.3624 31.9638 15.6561 35.2575C15.9662 34.9581 16.3084 34.6158 16.6078 34.3271ZM8.60885 24.3712C9.10076 24.8631 9.57129 25.3443 9.99904 25.7828C10.3305 25.4727 10.6941 25.1411 11.0043 24.8524C10.523 24.3605 10.0418 23.8793 9.58198 23.4194C9.27186 23.7296 8.92966 24.0611 8.60885 24.3712ZM15.1855 30.9586C15.6561 31.4291 16.1373 31.9103 16.5864 32.3595C16.9179 32.0386 17.2601 31.6964 17.5809 31.3863C17.1211 30.9265 16.6399 30.4453 16.1801 29.9854C15.8592 30.3063 15.517 30.6378 15.1855 30.9586ZM12.1271 27.9215C12.4586 27.59 12.8008 27.2478 13.1216 26.9377C12.7366 26.542 12.3517 26.1357 11.9774 25.7614C11.6245 26.1036 11.2716 26.4458 10.9615 26.7452C11.3572 27.1409 11.7528 27.5473 12.1271 27.9215ZM14.2017 30.0389C14.5653 29.686 14.9182 29.3545 15.2176 29.0551C14.8219 28.6594 14.4263 28.253 14.0841 27.9108C13.7419 28.221 13.3783 28.5418 13.0361 28.8519C13.4424 29.269 13.8381 29.6646 14.2017 30.0389Z" fill="black"/>
</g>
<defs>
<clipPath id="clip0_1_29469">
<rect width="41" height="41" fill="white"/>
</clipPath>
</defs>
</svg>
