<svg width="93" height="77" viewBox="0 0 93 77" fill="none" xmlns="http://www.w3.org/2000/svg">
<g filter="url(#filter0_d_17_1448)">
<g filter="url(#filter1_d_17_1448)">
<rect x="4" width="85" height="69" rx="5" fill="white"/>
</g>
<path d="M22.108 28.454V29.786H18.688V41H17.05V29.786H13.612V28.454H22.108ZM34.9243 35.69C34.9243 36.002 34.9063 36.332 34.8703 36.68H26.9863C27.0463 37.652 27.3763 38.414 27.9763 38.966C28.5883 39.506 29.3263 39.776 30.1903 39.776C30.8983 39.776 31.4863 39.614 31.9543 39.29C32.4343 38.954 32.7703 38.51 32.9623 37.958H34.7263C34.4623 38.906 33.9343 39.68 33.1423 40.28C32.3503 40.868 31.3663 41.162 30.1903 41.162C29.2543 41.162 28.4143 40.952 27.6703 40.532C26.9383 40.112 26.3623 39.518 25.9423 38.75C25.5223 37.97 25.3123 37.07 25.3123 36.05C25.3123 35.03 25.5163 34.136 25.9243 33.368C26.3323 32.6 26.9023 32.012 27.6343 31.604C28.3783 31.184 29.2303 30.974 30.1903 30.974C31.1263 30.974 31.9543 31.178 32.6743 31.586C33.3943 31.994 33.9463 32.558 34.3303 33.278C34.7263 33.986 34.9243 34.79 34.9243 35.69ZM33.2323 35.348C33.2323 34.724 33.0943 34.19 32.8183 33.746C32.5423 33.29 32.1643 32.948 31.6843 32.72C31.2163 32.48 30.6943 32.36 30.1183 32.36C29.2903 32.36 28.5823 32.624 27.9943 33.152C27.4183 33.68 27.0883 34.412 27.0043 35.348H33.2323ZM43.6924 30.956C44.8924 30.956 45.8644 31.322 46.6084 32.054C47.3524 32.774 47.7244 33.818 47.7244 35.186V41H46.1044V35.42C46.1044 34.436 45.8584 33.686 45.3664 33.17C44.8744 32.642 44.2024 32.378 43.3504 32.378C42.4864 32.378 41.7964 32.648 41.2804 33.188C40.7764 33.728 40.5244 34.514 40.5244 35.546V41H38.8864V31.136H40.5244V32.54C40.8484 32.036 41.2864 31.646 41.8384 31.37C42.4024 31.094 43.0204 30.956 43.6924 30.956ZM57.0061 30.956C58.2061 30.956 59.1781 31.322 59.9221 32.054C60.6661 32.774 61.0381 33.818 61.0381 35.186V41H59.4181V35.42C59.4181 34.436 59.1721 33.686 58.6801 33.17C58.1881 32.642 57.5161 32.378 56.6641 32.378C55.8001 32.378 55.1101 32.648 54.5941 33.188C54.0901 33.728 53.8381 34.514 53.8381 35.546V41H52.2001V31.136H53.8381V32.54C54.1621 32.036 54.6001 31.646 55.1521 31.37C55.7161 31.094 56.3341 30.956 57.0061 30.956ZM66.3597 29.534C66.0477 29.534 65.7837 29.426 65.5677 29.21C65.3517 28.994 65.2437 28.73 65.2437 28.418C65.2437 28.106 65.3517 27.842 65.5677 27.626C65.7837 27.41 66.0477 27.302 66.3597 27.302C66.6597 27.302 66.9117 27.41 67.1157 27.626C67.3317 27.842 67.4397 28.106 67.4397 28.418C67.4397 28.73 67.3317 28.994 67.1157 29.21C66.9117 29.426 66.6597 29.534 66.3597 29.534ZM67.1517 31.136V41H65.5137V31.136H67.1517ZM75.2354 41.162C74.4794 41.162 73.8014 41.036 73.2014 40.784C72.6014 40.52 72.1274 40.16 71.7794 39.704C71.4314 39.236 71.2394 38.702 71.2034 38.102H72.8954C72.9434 38.594 73.1714 38.996 73.5794 39.308C73.9994 39.62 74.5454 39.776 75.2174 39.776C75.8414 39.776 76.3334 39.638 76.6934 39.362C77.0534 39.086 77.2334 38.738 77.2334 38.318C77.2334 37.886 77.0414 37.568 76.6574 37.364C76.2734 37.148 75.6794 36.938 74.8754 36.734C74.1434 36.542 73.5434 36.35 73.0754 36.158C72.6194 35.954 72.2234 35.66 71.8874 35.276C71.5634 34.88 71.4014 34.364 71.4014 33.728C71.4014 33.224 71.5514 32.762 71.8514 32.342C72.1514 31.922 72.5774 31.592 73.1294 31.352C73.6814 31.1 74.3114 30.974 75.0194 30.974C76.1114 30.974 76.9934 31.25 77.6654 31.802C78.3374 32.354 78.6974 33.11 78.7454 34.07H77.1074C77.0714 33.554 76.8614 33.14 76.4774 32.828C76.1054 32.516 75.6014 32.36 74.9654 32.36C74.3774 32.36 73.9094 32.486 73.5614 32.738C73.2134 32.99 73.0394 33.32 73.0394 33.728C73.0394 34.052 73.1414 34.322 73.3454 34.538C73.5614 34.742 73.8254 34.91 74.1374 35.042C74.4614 35.162 74.9054 35.3 75.4694 35.456C76.1774 35.648 76.7534 35.84 77.1974 36.032C77.6414 36.212 78.0194 36.488 78.3314 36.86C78.6554 37.232 78.8234 37.718 78.8354 38.318C78.8354 38.858 78.6854 39.344 78.3854 39.776C78.0854 40.208 77.6594 40.55 77.1074 40.802C76.5674 41.042 75.9434 41.162 75.2354 41.162Z" fill="black"/>
</g>
<defs>
<filter id="filter0_d_17_1448" x="0" y="0" width="93" height="77" filterUnits="userSpaceOnUse" color-interpolation-filters="sRGB">
<feFlood flood-opacity="0" result="BackgroundImageFix"/>
<feColorMatrix in="SourceAlpha" type="matrix" values="0 0 0 0 0 0 0 0 0 0 0 0 0 0 0 0 0 0 127 0" result="hardAlpha"/>
<feOffset dy="4"/>
<feGaussianBlur stdDeviation="2"/>
<feComposite in2="hardAlpha" operator="out"/>
<feColorMatrix type="matrix" values="0 0 0 0 0 0 0 0 0 0 0 0 0 0 0 0 0 0 0.25 0"/>
<feBlend mode="normal" in2="BackgroundImageFix" result="effect1_dropShadow_17_1448"/>
<feBlend mode="normal" in="SourceGraphic" in2="effect1_dropShadow_17_1448" result="shape"/>
</filter>
<filter id="filter1_d_17_1448" x="0" y="0" width="93" height="77" filterUnits="userSpaceOnUse" color-interpolation-filters="sRGB">
<feFlood flood-opacity="0" result="BackgroundImageFix"/>
<feColorMatrix in="SourceAlpha" type="matrix" values="0 0 0 0 0 0 0 0 0 0 0 0 0 0 0 0 0 0 127 0" result="hardAlpha"/>
<feOffset dy="4"/>
<feGaussianBlur stdDeviation="2"/>
<feComposite in2="hardAlpha" operator="out"/>
<feColorMatrix type="matrix" values="0 0 0 0 0 0 0 0 0 0 0 0 0 0 0 0 0 0 0.25 0"/>
<feBlend mode="normal" in2="BackgroundImageFix" result="effect1_dropShadow_17_1448"/>
<feBlend mode="normal" in="SourceGraphic" in2="effect1_dropShadow_17_1448" result="shape"/>
</filter>
</defs>
</svg>
