<svg width="93" height="77" viewBox="0 0 93 77" fill="none" xmlns="http://www.w3.org/2000/svg">
<g filter="url(#filter0_d_17_1445)">
<rect x="4" width="85" height="69" rx="5" fill="white"/>
</g>
<g clip-path="url(#clip0_17_1445)">
<path d="M71 33.4068C71 34.469 71 35.5312 71 36.5934C70.93 37.1746 70.86 37.7659 70.78 38.3471C70.2598 41.8844 69.0796 45.1713 67.0792 48.1375C63.1184 54.0197 57.6372 57.5671 50.6258 58.7195C49.9556 58.8298 49.2755 58.8999 48.5953 58.9901C47.5351 58.9901 46.4749 58.9901 45.4047 58.9901C44.8245 58.9199 44.2344 58.8498 43.6543 58.7696C39.6835 58.1884 36.0427 56.7554 32.822 54.3504C27.5409 50.4122 24.3503 45.1713 23.2801 38.6577C23.17 37.9663 23.09 37.2748 23 36.5834C23 35.5212 23 34.459 23 33.3968C23.03 33.2565 23.07 33.1262 23.09 32.9859C23.2 32.1542 23.2601 31.3024 23.4201 30.4807C24.6103 24.5483 27.571 19.6682 32.392 15.9805C37.6731 11.932 43.6743 10.3688 50.2657 11.2306C54.9667 11.8419 59.1275 13.7458 62.6983 16.8723C67.1292 20.7504 69.8198 25.6005 70.7299 31.4327C70.83 32.084 70.91 32.7454 71 33.4068ZM47.8552 21.9529C47.8552 23.1755 47.8452 24.388 47.8752 25.6105C47.8752 25.821 48.0052 26.0915 48.1652 26.2218C50.5958 28.1859 53.0363 30.14 55.4868 32.074C55.6268 32.1842 55.8969 32.2343 56.0569 32.1842C58.5774 31.3625 61.0879 30.5208 63.5885 29.669C63.7485 29.6089 63.9385 29.4085 63.9785 29.2481C64.5086 27.1036 65.0088 24.9492 65.5089 22.7947C65.5489 22.6444 65.4989 22.4239 65.4088 22.2936C63.1084 18.9867 60.1377 16.4815 56.507 14.7579C56.3369 14.6778 56.0769 14.6677 55.8969 14.7379C53.3263 15.75 50.7758 16.7821 48.2053 17.7842C47.9152 17.8945 47.8552 18.0548 47.8552 18.3454C47.8652 19.5479 47.8552 20.7504 47.8552 21.9529ZM46.1448 22.0231C46.1448 20.7905 46.1348 19.5579 46.1548 18.3254C46.1548 18.0548 46.0948 17.9145 45.8248 17.8043C43.2242 16.7922 40.6337 15.76 38.0431 14.7479C37.8931 14.6878 37.6731 14.6978 37.523 14.7579C33.8723 16.4815 30.8916 19.0068 28.5912 22.3237C28.5111 22.4439 28.4711 22.6444 28.5011 22.7846C29.0013 24.9391 29.5114 27.0936 30.0115 29.2481C30.0715 29.5187 30.2015 29.6289 30.4516 29.7091C32.9521 30.5308 35.4426 31.3725 37.9431 32.1943C38.1131 32.2444 38.3832 32.2043 38.5132 32.094C40.9737 30.15 43.4243 28.1859 45.8648 26.2118C46.0148 26.0915 46.1348 25.831 46.1348 25.6306C46.1648 24.4281 46.1448 23.2256 46.1448 22.0231ZM36.1027 48.5082C36.1627 48.4581 36.3128 48.368 36.4128 48.2277C37.553 46.7245 38.6733 45.2014 39.8235 43.7082C40.0135 43.4577 40.0436 43.2373 39.9635 42.9467C39.2334 40.0807 38.5232 37.2047 37.8131 34.3387C37.7431 34.0782 37.633 33.9178 37.353 33.8277C34.8825 33.016 32.412 32.1943 29.9514 31.3625C29.7014 31.2723 29.5414 31.2924 29.3613 31.5128C27.901 33.2865 26.4207 35.0402 24.9704 36.8139C24.8404 36.9742 24.7604 37.2348 24.7804 37.4352C25.1304 40.9124 26.2807 44.1091 28.1511 47.0452C28.2311 47.1654 28.4011 47.2757 28.5412 47.3057C29.1813 47.426 29.8314 47.5262 30.4816 47.6264C32.3119 47.907 34.1423 48.1976 36.1027 48.5082ZM69.2796 37.1847C69.2396 37.1145 69.1796 36.9642 69.0796 36.8339C67.6093 35.0502 66.119 33.2865 64.6487 31.5028C64.4686 31.2824 64.3086 31.2623 64.0586 31.3525C61.598 32.1842 59.1275 32.9959 56.667 33.8377C56.487 33.8978 56.2769 34.1082 56.2269 34.2886C55.4768 37.2147 54.7566 40.1508 54.0365 43.0769C53.9965 43.2272 54.0365 43.4577 54.1265 43.578C55.2967 45.1513 56.487 46.7245 57.6872 48.2778C57.7772 48.388 57.9973 48.4782 58.1373 48.4581C60.3878 48.1174 62.6283 47.7166 64.8787 47.416C65.5289 47.3258 65.8789 47.0652 66.199 46.5241C67.8894 43.6682 68.9196 40.5918 69.2796 37.1847ZM37.6431 49.4803C37.6631 49.5304 37.6831 49.5805 37.7031 49.6206C39.2034 51.9755 40.7037 54.3304 42.214 56.6853C42.294 56.8055 42.4641 56.9158 42.6141 56.9458C45.7447 57.5972 48.8754 57.517 51.996 56.8156C52.1761 56.7755 52.3861 56.6151 52.4861 56.4548C53.7664 54.2602 55.0267 52.0456 56.2669 49.831C56.347 49.6907 56.3269 49.4001 56.2269 49.2698C55.0967 47.7366 53.9464 46.2235 52.7762 44.7103C52.6662 44.57 52.4261 44.4498 52.2361 44.4498C48.7354 44.4297 45.2346 44.4398 41.7339 44.4498C41.5739 44.4498 41.3538 44.54 41.2638 44.6602C40.0536 46.2535 38.8533 47.8769 37.6431 49.4803Z" fill="black"/>
</g>
<defs>
<filter id="filter0_d_17_1445" x="0" y="0" width="93" height="77" filterUnits="userSpaceOnUse" color-interpolation-filters="sRGB">
<feFlood flood-opacity="0" result="BackgroundImageFix"/>
<feColorMatrix in="SourceAlpha" type="matrix" values="0 0 0 0 0 0 0 0 0 0 0 0 0 0 0 0 0 0 127 0" result="hardAlpha"/>
<feOffset dy="4"/>
<feGaussianBlur stdDeviation="2"/>
<feComposite in2="hardAlpha" operator="out"/>
<feColorMatrix type="matrix" values="0 0 0 0 0 0 0 0 0 0 0 0 0 0 0 0 0 0 0.25 0"/>
<feBlend mode="normal" in2="BackgroundImageFix" result="effect1_dropShadow_17_1445"/>
<feBlend mode="normal" in="SourceGraphic" in2="effect1_dropShadow_17_1445" result="shape"/>
</filter>
<clipPath id="clip0_17_1445">
<rect width="48" height="48" fill="white" transform="translate(23 11)"/>
</clipPath>
</defs>
</svg>
