<svg width="93" height="77" viewBox="0 0 93 77" fill="none" xmlns="http://www.w3.org/2000/svg">
<g filter="url(#filter0_d_17_1446)">
<rect x="4" width="85" height="69" rx="5" fill="white"/>
</g>
<g clip-path="url(#clip0_17_1446)">
<path d="M71.0003 34.0081C70.8613 34.8209 70.7223 35.6336 70.594 36.4463C70.3587 37.9221 70.5833 37.6868 69.2145 38.2108C62.595 40.7131 55.9756 43.2155 49.3668 45.7285C49.046 45.8462 48.7466 46.0814 48.4792 46.306C48.1156 46.6161 47.7841 46.9583 47.3884 47.3433C47.5809 47.5144 47.7413 47.632 47.8911 47.7817C48.2546 48.156 48.2653 48.4447 47.8911 48.819C46.9393 49.7708 46.0089 50.7439 45.0251 51.6743C44.2552 52.4014 43.4959 53.1928 42.6083 53.7596C37.6678 56.8715 31.0483 53.8558 30.118 48.0705C29.6902 45.397 30.4067 43.0123 32.2674 41.034C33.54 39.6865 34.8874 38.4033 36.2027 37.0986C36.5663 36.735 36.8551 36.735 37.24 37.1093C37.3791 37.2483 37.5074 37.3981 37.6571 37.5585C38.4057 36.8099 39.1328 36.1469 39.5071 35.1203C40.9722 31.078 42.5228 27.0786 44.052 23.0577C44.1055 22.9187 44.1482 22.7797 44.2231 22.6513C44.3835 22.4054 44.6081 22.2877 44.9075 22.3947C45.1962 22.4909 45.3459 22.6941 45.3245 23.0042C45.3139 23.1646 45.2604 23.3143 45.1962 23.4641C43.6349 27.6132 42.0629 31.7517 40.4803 35.8902C40.3519 36.2324 40.3626 36.4463 40.6407 36.6816C40.8118 36.8206 40.9294 37.0238 41.1112 37.259C41.4534 36.6602 41.7314 36.179 41.9988 35.6871C45.2925 29.8376 48.5755 23.988 51.8691 18.1385C52.0189 17.8819 52.0402 17.6787 51.9119 17.4007C51.6125 16.7911 51.3772 16.1602 51.0885 15.54C51.035 15.433 50.8639 15.3154 50.757 15.3261C49.9763 15.4223 49.2064 15.5613 48.4257 15.6576C48.1905 15.6897 48.0942 15.7752 48.0087 15.9891C47.4633 17.4541 46.8965 18.9192 46.3405 20.3949C46.1801 20.812 45.9234 21.0045 45.6133 20.9403C45.1962 20.8548 45.0144 20.4805 45.1962 19.9993C45.6133 18.8764 46.041 17.7536 46.4581 16.6414C46.6506 16.1388 46.8538 15.6576 47.0142 15.1443C47.1425 14.7272 47.4205 14.5561 47.8269 14.5027C48.8214 14.3743 49.8052 14.2246 50.7891 14.0856C50.8532 14.0749 50.9067 14.0428 50.9709 14.0107C51.1847 14.0107 51.3986 14.0107 51.6125 14.0107C51.7622 14.2567 51.944 14.4813 52.0616 14.7486C52.3824 15.4651 52.7033 16.1816 52.992 16.9088C53.0882 17.144 53.2166 17.2189 53.4732 17.2189C54.5212 17.2082 55.5799 17.2082 56.6279 17.2189C57.184 17.2189 57.3016 17.3044 57.462 17.8284C57.7828 18.8336 58.1036 19.8282 58.4031 20.8334C58.4779 21.0793 58.5955 21.1756 58.8308 21.2184C60.0071 21.4322 61.1834 21.6568 62.3598 21.8814C62.9265 21.9883 63.0442 22.1059 63.1404 22.6727C63.3543 23.849 63.5788 25.0253 63.8034 26.2017C63.8462 26.4369 63.9531 26.5546 64.1884 26.6187C65.1615 26.8968 66.1133 27.2069 67.0757 27.517C67.7173 27.7202 67.7922 27.8164 67.7922 28.4794C67.7922 29.506 67.8029 30.5326 67.7815 31.5593C67.7815 31.8159 67.8564 31.9335 68.0916 32.0298C68.8188 32.3292 69.5353 32.6393 70.2518 32.9601C70.5084 33.0778 70.7437 33.2596 70.9896 33.4093C71.0003 33.5804 71.0003 33.7943 71.0003 34.0081ZM45.9234 41.9536C46.1907 42.2103 46.4367 42.4028 46.6292 42.638C46.8538 42.9161 47.0356 42.9054 47.335 42.7343C49.7411 41.3655 52.1579 40.0073 54.5747 38.6492C55.0452 38.3819 55.3981 38.4247 55.5906 38.7562C55.7938 39.1091 55.6441 39.4299 55.1628 39.7079C55.1308 39.7293 55.088 39.7507 55.0559 39.7614C52.7888 41.034 50.5324 42.3065 48.2653 43.5791C48.137 43.6539 47.998 43.7288 47.7948 43.8571C48.0301 44.0603 48.2333 44.1993 48.383 44.3811C48.5862 44.6271 48.7786 44.6378 49.0674 44.5201C51.142 43.7181 53.2166 42.9374 55.2912 42.1568C59.8574 40.4244 64.4237 38.692 68.9899 36.9703C69.2145 36.8848 69.3214 36.7778 69.3535 36.5319C69.4497 35.7512 69.5995 34.9813 69.6957 34.2006C69.7064 34.1044 69.5674 33.9226 69.4604 33.8798C68.8616 33.6018 68.2306 33.3665 67.6318 33.0671C67.3431 32.9281 67.1185 32.9601 66.8618 33.1099C64.3274 34.5428 61.7823 35.9758 59.2372 37.3981C58.7666 37.6654 58.2854 37.9434 57.8042 38.1894C57.4834 38.3605 57.1412 38.2536 56.9808 37.9541C56.8204 37.6547 56.9059 37.3339 57.2267 37.1307C57.3444 37.0559 57.4834 36.981 57.6117 36.9168C60.499 35.2914 63.397 33.6659 66.2844 32.0405C66.4127 31.9656 66.5838 31.8373 66.5838 31.7304C66.6052 30.6824 66.5945 29.6237 66.5945 28.565C65.6855 28.2763 64.8086 28.0196 63.9424 27.7202C63.6002 27.6025 63.365 27.6667 63.0869 27.8913C58.2213 31.8801 53.3449 35.8475 48.4685 39.8256C47.6344 40.5527 46.8003 41.2371 45.9234 41.9536ZM45.1 41.0446C45.1534 41.0019 45.2176 40.9484 45.2818 40.9056C48.1691 38.553 51.0457 36.2004 53.933 33.8477C56.7455 31.5593 59.5473 29.2601 62.3704 26.9823C62.6057 26.7898 62.6806 26.6294 62.6164 26.3193C62.4025 25.3141 62.2421 24.3089 62.0282 23.3036C62.0069 23.1753 61.8465 23.0042 61.7181 22.9828C60.7343 22.7797 59.7291 22.6192 58.7453 22.3947C58.3924 22.3198 58.1999 22.4161 57.986 22.6834C54.1469 27.4101 50.2865 32.126 46.4367 36.8527C45.6026 37.8686 44.7792 38.8952 43.945 39.9218C44.33 40.2961 44.6936 40.6597 45.1 41.0446ZM32.877 42.1996C30.5992 44.8302 30.5778 49.0864 33.3582 51.7812C36.1386 54.476 40.3412 54.2836 42.8008 52.0913C42.234 51.5246 41.678 50.9578 41.1005 50.4017C40.1808 49.5355 40.1701 49.3644 40.5016 48.9474C40.8118 48.5517 41.1112 48.6907 41.9453 49.5248C42.4586 50.0381 42.9612 50.5407 43.4745 51.054C43.5494 51.1289 43.6242 51.1824 43.667 51.2144C44.0413 50.8615 44.3835 50.53 44.6936 50.2413C41.3678 46.9155 38.0528 43.6005 34.8232 40.3709C34.4917 40.6811 34.1388 41.0126 33.7646 41.3548C35.5611 43.1406 37.3577 44.9372 39.1542 46.7444C39.2505 46.8407 39.3467 46.9262 39.4216 47.0439C39.5927 47.3112 39.582 47.5786 39.3574 47.8138C39.1328 48.0384 38.8655 48.0705 38.5982 47.8887C38.4805 47.8031 38.3736 47.6962 38.2773 47.5999C36.577 45.8996 34.8874 44.21 33.1871 42.5097C33.0909 42.3921 32.9839 42.2958 32.877 42.1996ZM43.0361 39.0663C43.1644 38.9273 43.25 38.831 43.3355 38.7241C45.5705 35.9865 47.8055 33.2489 50.0405 30.5113C52.4145 27.6025 54.7779 24.7045 57.1519 21.8065C57.3123 21.614 57.3658 21.4429 57.2802 21.197C57.0022 20.3629 56.7455 19.5287 56.4996 18.6839C56.4354 18.4701 56.3392 18.3952 56.1146 18.3952C55.2591 18.4059 54.4036 18.4166 53.5588 18.3952C53.238 18.3845 53.0669 18.4807 52.9064 18.7695C49.5058 24.8329 46.0945 30.8962 42.6939 36.9596C42.4907 37.3232 42.1057 37.751 42.1699 38.0718C42.2127 38.4247 42.7046 38.7134 43.0361 39.0663ZM46.6078 48.3271C43.2927 45.012 39.9777 41.697 36.7054 38.4247C36.3952 38.7241 36.053 39.0449 35.7429 39.3443C39.0473 42.6487 42.3624 45.9638 45.6561 49.2575C45.9662 48.9581 46.3084 48.6158 46.6078 48.3271ZM38.6088 38.3712C39.1008 38.8631 39.5713 39.3443 39.999 39.7828C40.3305 39.4727 40.6941 39.1411 41.0043 38.8524C40.523 38.3605 40.0418 37.8793 39.582 37.4194C39.2719 37.7296 38.9297 38.0611 38.6088 38.3712ZM45.1855 44.9586C45.6561 45.4291 46.1373 45.9103 46.5864 46.3595C46.9179 46.0386 47.2601 45.6964 47.5809 45.3863C47.1211 44.9265 46.6399 44.4453 46.1801 43.9854C45.8592 44.3063 45.517 44.6378 45.1855 44.9586ZM42.1271 41.9215C42.4586 41.59 42.8008 41.2478 43.1216 40.9377C42.7366 40.542 42.3517 40.1357 41.9774 39.7614C41.6245 40.1036 41.2716 40.4458 40.9615 40.7452C41.3572 41.1409 41.7528 41.5473 42.1271 41.9215ZM44.2017 44.0389C44.5653 43.686 44.9182 43.3545 45.2176 43.0551C44.8219 42.6594 44.4263 42.253 44.0841 41.9108C43.7419 42.221 43.3783 42.5418 43.0361 42.8519C43.4424 43.269 43.8381 43.6646 44.2017 44.0389Z" fill="black"/>
</g>
<defs>
<filter id="filter0_d_17_1446" x="0" y="0" width="93" height="77" filterUnits="userSpaceOnUse" color-interpolation-filters="sRGB">
<feFlood flood-opacity="0" result="BackgroundImageFix"/>
<feColorMatrix in="SourceAlpha" type="matrix" values="0 0 0 0 0 0 0 0 0 0 0 0 0 0 0 0 0 0 127 0" result="hardAlpha"/>
<feOffset dy="4"/>
<feGaussianBlur stdDeviation="2"/>
<feComposite in2="hardAlpha" operator="out"/>
<feColorMatrix type="matrix" values="0 0 0 0 0 0 0 0 0 0 0 0 0 0 0 0 0 0 0.25 0"/>
<feBlend mode="normal" in2="BackgroundImageFix" result="effect1_dropShadow_17_1446"/>
<feBlend mode="normal" in="SourceGraphic" in2="effect1_dropShadow_17_1446" result="shape"/>
</filter>
<clipPath id="clip0_17_1446">
<rect width="41" height="41" fill="white" transform="translate(30 14)"/>
</clipPath>
</defs>
</svg>
