<svg width="93" height="77" viewBox="0 0 93 77" fill="none" xmlns="http://www.w3.org/2000/svg">
<g filter="url(#filter0_d_17_1447)">
<rect x="4" width="85" height="69" rx="5" fill="white"/>
</g>
<path d="M15.112 58.9513C15.416 58.9993 15.692 59.1233 15.94 59.3233C16.196 59.5233 16.396 59.7713 16.54 60.0673C16.692 60.3633 16.768 60.6793 16.768 61.0153C16.768 61.4393 16.66 61.8233 16.444 62.1673C16.228 62.5033 15.912 62.7713 15.496 62.9713C15.088 63.1633 14.604 63.2593 14.044 63.2593H10.924V54.8953H13.924C14.492 54.8953 14.976 54.9913 15.376 55.1833C15.776 55.3673 16.076 55.6193 16.276 55.9393C16.476 56.2593 16.576 56.6193 16.576 57.0193C16.576 57.5153 16.44 57.9273 16.168 58.2553C15.904 58.5753 15.552 58.8073 15.112 58.9513ZM12.016 58.5073H13.852C14.364 58.5073 14.76 58.3873 15.04 58.1473C15.32 57.9073 15.46 57.5753 15.46 57.1513C15.46 56.7273 15.32 56.3953 15.04 56.1553C14.76 55.9153 14.356 55.7953 13.828 55.7953H12.016V58.5073ZM13.948 62.3593C14.492 62.3593 14.916 62.2313 15.22 61.9753C15.524 61.7193 15.676 61.3633 15.676 60.9073C15.676 60.4433 15.516 60.0793 15.196 59.8153C14.876 59.5433 14.448 59.4073 13.912 59.4073H12.016V62.3593H13.948ZM19.0754 59.9473C19.0754 59.2753 19.2114 58.6873 19.4834 58.1833C19.7554 57.6713 20.1274 57.2753 20.5994 56.9953C21.0794 56.7153 21.6114 56.5753 22.1954 56.5753C22.7714 56.5753 23.2714 56.6993 23.6954 56.9473C24.1194 57.1953 24.4354 57.5073 24.6434 57.8833V56.6833H25.7474V63.2593H24.6434V62.0353C24.4274 62.4193 24.1034 62.7393 23.6714 62.9953C23.2474 63.2433 22.7514 63.3673 22.1834 63.3673C21.5994 63.3673 21.0714 63.2233 20.5994 62.9353C20.1274 62.6473 19.7554 62.2433 19.4834 61.7233C19.2114 61.2033 19.0754 60.6113 19.0754 59.9473ZM24.6434 59.9593C24.6434 59.4633 24.5434 59.0313 24.3434 58.6633C24.1434 58.2953 23.8714 58.0153 23.5274 57.8233C23.1914 57.6233 22.8194 57.5233 22.4114 57.5233C22.0034 57.5233 21.6314 57.6193 21.2954 57.8113C20.9594 58.0033 20.6914 58.2833 20.4914 58.6513C20.2914 59.0193 20.1914 59.4513 20.1914 59.9473C20.1914 60.4513 20.2914 60.8913 20.4914 61.2673C20.6914 61.6353 20.9594 61.9193 21.2954 62.1193C21.6314 62.3113 22.0034 62.4073 22.4114 62.4073C22.8194 62.4073 23.1914 62.3113 23.5274 62.1193C23.8714 61.9193 24.1434 61.6353 24.3434 61.2673C24.5434 60.8913 24.6434 60.4553 24.6434 59.9593ZM31.1207 63.3673C30.6167 63.3673 30.1647 63.2833 29.7647 63.1153C29.3647 62.9393 29.0487 62.6993 28.8167 62.3953C28.5847 62.0833 28.4567 61.7273 28.4327 61.3273H29.5607C29.5927 61.6553 29.7447 61.9233 30.0167 62.1313C30.2967 62.3393 30.6607 62.4433 31.1087 62.4433C31.5247 62.4433 31.8527 62.3513 32.0927 62.1673C32.3327 61.9833 32.4527 61.7513 32.4527 61.4713C32.4527 61.1833 32.3247 60.9713 32.0687 60.8353C31.8127 60.6913 31.4167 60.5513 30.8807 60.4153C30.3927 60.2873 29.9927 60.1593 29.6807 60.0313C29.3767 59.8953 29.1127 59.6993 28.8887 59.4433C28.6727 59.1793 28.5647 58.8353 28.5647 58.4113C28.5647 58.0753 28.6647 57.7673 28.8647 57.4873C29.0647 57.2073 29.3487 56.9873 29.7167 56.8273C30.0847 56.6593 30.5047 56.5753 30.9767 56.5753C31.7047 56.5753 32.2927 56.7593 32.7407 57.1273C33.1887 57.4953 33.4287 57.9993 33.4607 58.6393H32.3687C32.3447 58.2953 32.2047 58.0193 31.9487 57.8113C31.7007 57.6033 31.3647 57.4993 30.9407 57.4993C30.5487 57.4993 30.2367 57.5833 30.0047 57.7513C29.7727 57.9193 29.6567 58.1393 29.6567 58.4113C29.6567 58.6273 29.7247 58.8073 29.8607 58.9513C30.0047 59.0873 30.1807 59.1993 30.3887 59.2873C30.6047 59.3673 30.9007 59.4593 31.2767 59.5633C31.7487 59.6913 32.1327 59.8193 32.4287 59.9473C32.7247 60.0673 32.9767 60.2513 33.1847 60.4993C33.4007 60.7473 33.5127 61.0713 33.5207 61.4713C33.5207 61.8313 33.4207 62.1553 33.2207 62.4433C33.0207 62.7313 32.7368 62.9593 32.3687 63.1273C32.0087 63.2873 31.5927 63.3673 31.1207 63.3673ZM39.9343 63.2593L37.3543 60.3553V63.2593H36.2623V54.3793H37.3543V59.5993L39.8863 56.6833H41.4103L38.3143 59.9593L41.4223 63.2593H39.9343ZM49.6381 59.7193C49.6381 59.9273 49.6261 60.1473 49.6021 60.3793H44.3461C44.3861 61.0273 44.6061 61.5353 45.0061 61.9033C45.4141 62.2633 45.9061 62.4433 46.4821 62.4433C46.9541 62.4433 47.3461 62.3353 47.6581 62.1193C47.9781 61.8953 48.2021 61.5993 48.3301 61.2313H49.5061C49.3301 61.8633 48.9781 62.3793 48.4501 62.7793C47.9221 63.1713 47.2661 63.3673 46.4821 63.3673C45.8581 63.3673 45.2981 63.2273 44.8021 62.9473C44.3141 62.6673 43.9301 62.2713 43.6501 61.7593C43.3701 61.2393 43.2301 60.6393 43.2301 59.9593C43.2301 59.2793 43.3661 58.6833 43.6381 58.1713C43.9101 57.6593 44.2901 57.2673 44.7781 56.9953C45.2741 56.7153 45.8421 56.5753 46.4821 56.5753C47.1061 56.5753 47.6581 56.7113 48.1381 56.9833C48.6181 57.2553 48.9861 57.6313 49.2421 58.1113C49.5061 58.5833 49.6381 59.1193 49.6381 59.7193ZM48.5101 59.4913C48.5101 59.0753 48.4181 58.7193 48.2341 58.4233C48.0501 58.1193 47.7981 57.8913 47.4781 57.7393C47.1661 57.5793 46.8181 57.4993 46.4341 57.4993C45.8821 57.4993 45.4101 57.6753 45.0181 58.0273C44.6341 58.3793 44.4141 58.8673 44.3581 59.4913H48.5101ZM53.6115 57.5833V61.4593C53.6115 61.7793 53.6795 62.0073 53.8155 62.1433C53.9515 62.2713 54.1875 62.3353 54.5235 62.3353H55.3275V63.2593H54.3435C53.7355 63.2593 53.2795 63.1193 52.9755 62.8393C52.6715 62.5593 52.5195 62.0993 52.5195 61.4593V57.5833H51.6675V56.6833H52.5195V55.0273H53.6115V56.6833H55.3275V57.5833H53.6115ZM58.9426 57.9073C59.1666 57.5153 59.4946 57.1953 59.9266 56.9473C60.3586 56.6993 60.8506 56.5753 61.4026 56.5753C61.9946 56.5753 62.5266 56.7153 62.9986 56.9953C63.4706 57.2753 63.8426 57.6713 64.1146 58.1833C64.3866 58.6873 64.5226 59.2753 64.5226 59.9473C64.5226 60.6113 64.3866 61.2033 64.1146 61.7233C63.8426 62.2433 63.4666 62.6473 62.9866 62.9353C62.5146 63.2233 61.9866 63.3673 61.4026 63.3673C60.8346 63.3673 60.3346 63.2433 59.9026 62.9953C59.4786 62.7473 59.1586 62.4313 58.9426 62.0473V63.2593H57.8506V54.3793H58.9426V57.9073ZM63.4066 59.9473C63.4066 59.4513 63.3066 59.0193 63.1066 58.6513C62.9066 58.2833 62.6346 58.0033 62.2906 57.8113C61.9546 57.6193 61.5826 57.5233 61.1746 57.5233C60.7746 57.5233 60.4026 57.6233 60.0586 57.8233C59.7226 58.0153 59.4506 58.2993 59.2426 58.6753C59.0426 59.0433 58.9426 59.4713 58.9426 59.9593C58.9426 60.4553 59.0426 60.8913 59.2426 61.2673C59.4506 61.6353 59.7226 61.9193 60.0586 62.1193C60.4026 62.3113 60.7746 62.4073 61.1746 62.4073C61.5826 62.4073 61.9546 62.3113 62.2906 62.1193C62.6346 61.9193 62.9066 61.6353 63.1066 61.2673C63.3066 60.8913 63.4066 60.4513 63.4066 59.9473ZM66.7519 59.9473C66.7519 59.2753 66.8879 58.6873 67.1599 58.1833C67.4319 57.6713 67.8039 57.2753 68.2759 56.9953C68.7559 56.7153 69.2879 56.5753 69.8719 56.5753C70.4479 56.5753 70.9479 56.6993 71.3719 56.9473C71.7959 57.1953 72.1119 57.5073 72.3199 57.8833V56.6833H73.4239V63.2593H72.3199V62.0353C72.1039 62.4193 71.7799 62.7393 71.3479 62.9953C70.9239 63.2433 70.4279 63.3673 69.8599 63.3673C69.2759 63.3673 68.7479 63.2233 68.2759 62.9353C67.8039 62.6473 67.4319 62.2433 67.1599 61.7233C66.8879 61.2033 66.7519 60.6113 66.7519 59.9473ZM72.3199 59.9593C72.3199 59.4633 72.2199 59.0313 72.0199 58.6633C71.8199 58.2953 71.5479 58.0153 71.2039 57.8233C70.8679 57.6233 70.4959 57.5233 70.0879 57.5233C69.6799 57.5233 69.3079 57.6193 68.9719 57.8113C68.6359 58.0033 68.3679 58.2833 68.1679 58.6513C67.9679 59.0193 67.8679 59.4513 67.8679 59.9473C67.8679 60.4513 67.9679 60.8913 68.1679 61.2673C68.3679 61.6353 68.6359 61.9193 68.9719 62.1193C69.3079 62.3113 69.6799 62.4073 70.0879 62.4073C70.4959 62.4073 70.8679 62.3113 71.2039 62.1193C71.5479 61.9193 71.8199 61.6353 72.0199 61.2673C72.2199 60.8913 72.3199 60.4553 72.3199 59.9593ZM77.5613 54.3793V63.2593H76.4693V54.3793H77.5613ZM81.7144 54.3793V63.2593H80.6224V54.3793H81.7144Z" fill="black"/>
<g clip-path="url(#clip0_17_1447)">
<path d="M48.32 9C47.4357 9 46.5514 9 45.6671 9C45.1946 9.053 44.7222 9.0954 44.2498 9.15899C40.3006 9.66778 36.8118 11.0351 33.8197 13.3565C30.1977 16.1654 27.9808 19.6632 27.2298 23.8607C27.145 24.3483 27.0723 24.8465 26.9996 25.3446C26.9996 26.1184 26.9996 26.8922 26.9996 27.666C27.0602 28.0793 27.1086 28.5033 27.1813 28.9167C27.9808 33.5594 30.4521 37.3858 34.6798 40.2689C39.489 43.5442 44.9524 44.6678 50.9487 43.6502C54.8494 42.993 58.2049 41.3925 61.0275 38.9652C64.068 36.3365 65.9699 33.1566 66.7089 29.4573C67.0723 27.6766 67.1086 25.8746 66.8179 24.0833C66.2607 20.649 64.6859 17.6069 62.0693 15.01C58.8591 11.8195 54.8373 9.86917 50.0281 9.21199C49.4466 9.1272 48.8894 9.0636 48.32 9ZM61.9481 17.1405C56.4727 23.2883 49.8342 28.1959 41.7664 31.6938C41.2697 30.6869 40.7852 29.7329 40.3006 28.7577C40.4702 28.7047 40.5429 28.6729 40.6398 28.6517C43.6683 27.878 45.6428 26.1184 46.5029 23.5003C47.1207 21.6348 47.5326 19.7268 48.0051 17.8295C48.5865 15.4446 49.3981 13.1445 50.973 11.0987C51.1304 10.8973 51.2516 10.8125 51.5544 10.8867C54.1468 11.4803 56.4727 12.5191 58.5562 13.9818C59.8403 14.8828 60.9669 15.9216 61.9481 17.1405ZM42.5538 32.8916C50.6095 29.3937 57.2964 24.4755 62.893 18.3383C63.2322 18.9213 63.5593 19.4512 63.8379 20.0024C65.2915 22.8855 65.7155 25.8958 65.1825 29.0015C65.1704 29.0969 65.0856 29.2135 64.9887 29.2771C63.2443 30.4643 61.3545 31.4288 59.2467 32.033C56.6665 32.7856 53.9772 32.9128 51.3 33.1248C49.3981 33.2732 47.5084 33.5276 45.7034 34.1105C45.1341 34.2907 44.5768 34.5027 43.9711 34.7253C43.5108 34.1317 43.0384 33.5276 42.5538 32.8916ZM49.3981 10.5263C49.3981 10.5793 49.4103 10.6111 49.4103 10.6217C49.3497 10.7277 49.2891 10.8231 49.2286 10.9185C48.2594 12.3071 47.5205 13.7804 47.0844 15.3598C46.5393 17.3101 46.0911 19.2816 45.5944 21.2426C45.2794 22.4933 44.9039 23.7335 44.1044 24.8465C43.111 26.2244 41.6332 26.9982 39.8524 27.401C39.8161 27.3374 39.804 27.295 39.7797 27.2526C39.0892 25.2386 38.641 23.1929 38.4957 21.0942C38.3866 19.5042 38.3503 17.9037 38.423 16.3243C38.4836 14.957 38.7379 13.5896 38.9318 12.2223C38.9439 12.1057 39.0771 11.9573 39.2104 11.9149C42.4448 10.5793 45.8367 10.1342 49.3981 10.5263ZM45.0372 35.8701C45.1341 35.8277 45.1704 35.8065 45.2189 35.7853C46.9996 35.0645 48.8894 34.7359 50.8276 34.5663C52.6083 34.3967 54.4012 34.2801 56.1819 34.0787C58.7137 33.8031 61.0759 33.093 63.2928 31.9694C63.7046 31.7574 64.1165 31.5348 64.5768 31.291C64.5526 31.3864 64.5405 31.4288 64.5163 31.4712C62.6507 36.2199 59.065 39.5588 53.7591 41.4667C53.6259 41.5197 53.3957 41.4879 53.2625 41.4243C52.148 40.8625 51.0214 40.3219 49.9433 39.6965C48.102 38.6366 46.4908 37.3646 45.0372 35.8701ZM38.1686 27.4434C38.0959 27.454 38.0475 27.4646 37.999 27.4646C37.466 27.3692 36.9209 27.3056 36.4 27.1784C33.0202 26.3834 30.6338 24.7193 30.0765 21.5182C30.0038 21.0836 29.9069 20.5642 30.0886 20.1826C31.506 17.2359 33.7713 14.8828 36.8118 13.0915C36.9087 13.0385 37.0178 12.9749 37.1753 12.8795C36.4363 17.8401 36.6665 22.6629 38.1686 27.4434ZM40.2885 32.2768C40.2885 32.2662 40.2885 32.2874 40.2764 32.2874C37.4418 33.4004 34.486 34.2271 31.4575 34.8101C31.3606 34.8313 31.191 34.7465 31.1425 34.6617C30.9245 34.3543 30.7186 34.0363 30.5369 33.7078C28.7925 30.6445 28.2352 27.4116 28.7925 24.0303C28.8288 23.8395 28.8772 23.6487 28.9378 23.3837C29.0226 23.5215 29.059 23.5851 29.0832 23.6487C29.9069 25.4506 31.3727 26.7332 33.3352 27.613C34.9342 28.3337 36.6422 28.7365 38.423 28.8955C38.5562 28.9061 38.7379 29.0121 38.7864 29.1181C39.2952 30.1569 39.7797 31.1956 40.2885 32.2768ZM51.2273 42.1663C51.2516 42.1557 51.2152 42.1769 51.1789 42.1875C47.9081 42.8552 44.6859 42.728 41.4757 41.8801C41.3909 41.8589 41.3061 41.8059 41.2576 41.7529C40.5429 40.7777 40.2158 39.6859 40.979 38.5412C41.4878 37.778 42.251 37.2374 43.0868 36.7498C43.4381 36.5485 43.5956 36.5697 43.8985 36.8452C45.0008 37.831 46.0911 38.838 47.2903 39.7071C48.5381 40.5975 49.919 41.3501 51.2273 42.1663ZM39.1256 41.0321C36.8118 40.2265 32.9717 37.4282 32.2691 36.0715C35.3097 35.4673 38.2534 34.5875 41.1123 33.4852C41.5968 34.1317 42.0693 34.7571 42.5538 35.4037C40.2279 36.718 38.4593 38.2974 39.1256 41.0321Z" fill="black"/>
</g>
<defs>
<filter id="filter0_d_17_1447" x="0" y="0" width="93" height="77" filterUnits="userSpaceOnUse" color-interpolation-filters="sRGB">
<feFlood flood-opacity="0" result="BackgroundImageFix"/>
<feColorMatrix in="SourceAlpha" type="matrix" values="0 0 0 0 0 0 0 0 0 0 0 0 0 0 0 0 0 0 127 0" result="hardAlpha"/>
<feOffset dy="4"/>
<feGaussianBlur stdDeviation="2"/>
<feComposite in2="hardAlpha" operator="out"/>
<feColorMatrix type="matrix" values="0 0 0 0 0 0 0 0 0 0 0 0 0 0 0 0 0 0 0.25 0"/>
<feBlend mode="normal" in2="BackgroundImageFix" result="effect1_dropShadow_17_1447"/>
<feBlend mode="normal" in="SourceGraphic" in2="effect1_dropShadow_17_1447" result="shape"/>
</filter>
<clipPath id="clip0_17_1447">
<rect width="40" height="35" fill="white" transform="matrix(-1 0 0 1 67 9)"/>
</clipPath>
</defs>
</svg>
