<svg width="93" height="77" viewBox="0 0 93 77" fill="none" xmlns="http://www.w3.org/2000/svg">
<g filter="url(#filter0_d_17_1449)">
<rect x="4" width="85" height="69" rx="5" fill="white"/>
</g>
<path d="M23.136 30.636V36.816C23.136 37.504 22.924 38.056 22.5 38.472C22.076 38.88 21.516 39.084 20.82 39.084C20.116 39.084 19.552 38.876 19.128 38.46C18.704 38.036 18.492 37.46 18.492 36.732H19.584C19.592 37.14 19.696 37.472 19.896 37.728C20.104 37.984 20.412 38.112 20.82 38.112C21.228 38.112 21.532 37.992 21.732 37.752C21.932 37.504 22.032 37.192 22.032 36.816V30.636H23.136ZM29.3553 39.108C28.7393 39.108 28.1793 38.968 27.6753 38.688C27.1793 38.408 26.7873 38.012 26.4993 37.5C26.2193 36.98 26.0793 36.38 26.0793 35.7C26.0793 35.028 26.2233 34.436 26.5113 33.924C26.8073 33.404 27.2073 33.008 27.7113 32.736C28.2153 32.456 28.7793 32.316 29.4033 32.316C30.0273 32.316 30.5913 32.456 31.0953 32.736C31.5993 33.008 31.9953 33.4 32.2833 33.912C32.5793 34.424 32.7273 35.02 32.7273 35.7C32.7273 36.38 32.5753 36.98 32.2713 37.5C31.9753 38.012 31.5713 38.408 31.0593 38.688C30.5473 38.968 29.9793 39.108 29.3553 39.108ZM29.3553 38.148C29.7473 38.148 30.1153 38.056 30.4593 37.872C30.8033 37.688 31.0793 37.412 31.2873 37.044C31.5033 36.676 31.6113 36.228 31.6113 35.7C31.6113 35.172 31.5073 34.724 31.2993 34.356C31.0913 33.988 30.8193 33.716 30.4833 33.54C30.1473 33.356 29.7833 33.264 29.3913 33.264C28.9913 33.264 28.6233 33.356 28.2873 33.54C27.9593 33.716 27.6953 33.988 27.4953 34.356C27.2953 34.724 27.1953 35.172 27.1953 35.7C27.1953 36.236 27.2913 36.688 27.4833 37.056C27.6833 37.424 27.9473 37.7 28.2753 37.884C28.6033 38.06 28.9633 38.148 29.3553 38.148ZM38.0751 32.316C38.6431 32.316 39.1391 32.44 39.5631 32.688C39.9951 32.936 40.3151 33.248 40.5231 33.624V32.424H41.6271V39.144C41.6271 39.744 41.4991 40.276 41.2431 40.74C40.9871 41.212 40.6191 41.58 40.1391 41.844C39.6671 42.108 39.1151 42.24 38.4831 42.24C37.6191 42.24 36.8991 42.036 36.3231 41.628C35.7471 41.22 35.4071 40.664 35.3031 39.96H36.3831C36.5031 40.36 36.7511 40.68 37.1271 40.92C37.5031 41.168 37.9551 41.292 38.4831 41.292C39.0831 41.292 39.5711 41.104 39.9471 40.728C40.3311 40.352 40.5231 39.824 40.5231 39.144V37.764C40.3071 38.148 39.9871 38.468 39.5631 38.724C39.1391 38.98 38.6431 39.108 38.0751 39.108C37.4911 39.108 36.9591 38.964 36.4791 38.676C36.0071 38.388 35.6351 37.984 35.3631 37.464C35.0911 36.944 34.9551 36.352 34.9551 35.688C34.9551 35.016 35.0911 34.428 35.3631 33.924C35.6351 33.412 36.0071 33.016 36.4791 32.736C36.9591 32.456 37.4911 32.316 38.0751 32.316ZM40.5231 35.7C40.5231 35.204 40.4231 34.772 40.2231 34.404C40.0231 34.036 39.7511 33.756 39.4071 33.564C39.0711 33.364 38.6991 33.264 38.2911 33.264C37.8831 33.264 37.5111 33.36 37.1751 33.552C36.8391 33.744 36.5711 34.024 36.3711 34.392C36.1711 34.76 36.0711 35.192 36.0711 35.688C36.0711 36.192 36.1711 36.632 36.3711 37.008C36.5711 37.376 36.8391 37.66 37.1751 37.86C37.5111 38.052 37.8831 38.148 38.2911 38.148C38.6991 38.148 39.0711 38.052 39.4071 37.86C39.7511 37.66 40.0231 37.376 40.2231 37.008C40.4231 36.632 40.5231 36.196 40.5231 35.7ZM47.3844 32.316C47.9524 32.316 48.4484 32.44 48.8724 32.688C49.3044 32.936 49.6244 33.248 49.8324 33.624V32.424H50.9364V39.144C50.9364 39.744 50.8084 40.276 50.5524 40.74C50.2964 41.212 49.9284 41.58 49.4484 41.844C48.9764 42.108 48.4244 42.24 47.7924 42.24C46.9284 42.24 46.2084 42.036 45.6324 41.628C45.0564 41.22 44.7164 40.664 44.6124 39.96H45.6924C45.8124 40.36 46.0604 40.68 46.4364 40.92C46.8124 41.168 47.2644 41.292 47.7924 41.292C48.3924 41.292 48.8804 41.104 49.2564 40.728C49.6404 40.352 49.8324 39.824 49.8324 39.144V37.764C49.6164 38.148 49.2964 38.468 48.8724 38.724C48.4484 38.98 47.9524 39.108 47.3844 39.108C46.8004 39.108 46.2684 38.964 45.7884 38.676C45.3164 38.388 44.9444 37.984 44.6724 37.464C44.4004 36.944 44.2644 36.352 44.2644 35.688C44.2644 35.016 44.4004 34.428 44.6724 33.924C44.9444 33.412 45.3164 33.016 45.7884 32.736C46.2684 32.456 46.8004 32.316 47.3844 32.316ZM49.8324 35.7C49.8324 35.204 49.7324 34.772 49.5324 34.404C49.3324 34.036 49.0604 33.756 48.7164 33.564C48.3804 33.364 48.0084 33.264 47.6004 33.264C47.1924 33.264 46.8204 33.36 46.4844 33.552C46.1484 33.744 45.8804 34.024 45.6804 34.392C45.4804 34.76 45.3804 35.192 45.3804 35.688C45.3804 36.192 45.4804 36.632 45.6804 37.008C45.8804 37.376 46.1484 37.66 46.4844 37.86C46.8204 38.052 47.1924 38.148 47.6004 38.148C48.0084 38.148 48.3804 38.052 48.7164 37.86C49.0604 37.66 49.3324 37.376 49.5324 37.008C49.7324 36.632 49.8324 36.196 49.8324 35.7ZM54.5458 31.356C54.3378 31.356 54.1618 31.284 54.0178 31.14C53.8738 30.996 53.8018 30.82 53.8018 30.612C53.8018 30.404 53.8738 30.228 54.0178 30.084C54.1618 29.94 54.3378 29.868 54.5458 29.868C54.7458 29.868 54.9138 29.94 55.0498 30.084C55.1938 30.228 55.2658 30.404 55.2658 30.612C55.2658 30.82 55.1938 30.996 55.0498 31.14C54.9138 31.284 54.7458 31.356 54.5458 31.356ZM55.0738 32.424V39H53.9818V32.424H55.0738ZM61.3389 32.304C62.1389 32.304 62.7869 32.548 63.2829 33.036C63.7789 33.516 64.0269 34.212 64.0269 35.124V39H62.9469V35.28C62.9469 34.624 62.7829 34.124 62.4549 33.78C62.1269 33.428 61.6789 33.252 61.1109 33.252C60.5349 33.252 60.0749 33.432 59.7309 33.792C59.3949 34.152 59.2269 34.676 59.2269 35.364V39H58.1349V32.424H59.2269V33.36C59.4429 33.024 59.7349 32.764 60.1029 32.58C60.4789 32.396 60.8909 32.304 61.3389 32.304ZM69.7227 32.316C70.2907 32.316 70.7867 32.44 71.2107 32.688C71.6427 32.936 71.9627 33.248 72.1707 33.624V32.424H73.2747V39.144C73.2747 39.744 73.1467 40.276 72.8907 40.74C72.6347 41.212 72.2667 41.58 71.7867 41.844C71.3147 42.108 70.7627 42.24 70.1307 42.24C69.2667 42.24 68.5467 42.036 67.9707 41.628C67.3947 41.22 67.0547 40.664 66.9507 39.96H68.0307C68.1507 40.36 68.3987 40.68 68.7747 40.92C69.1507 41.168 69.6027 41.292 70.1307 41.292C70.7307 41.292 71.2187 41.104 71.5947 40.728C71.9787 40.352 72.1707 39.824 72.1707 39.144V37.764C71.9547 38.148 71.6347 38.468 71.2107 38.724C70.7867 38.98 70.2907 39.108 69.7227 39.108C69.1387 39.108 68.6067 38.964 68.1267 38.676C67.6547 38.388 67.2827 37.984 67.0107 37.464C66.7387 36.944 66.6027 36.352 66.6027 35.688C66.6027 35.016 66.7387 34.428 67.0107 33.924C67.2827 33.412 67.6547 33.016 68.1267 32.736C68.6067 32.456 69.1387 32.316 69.7227 32.316ZM72.1707 35.7C72.1707 35.204 72.0707 34.772 71.8707 34.404C71.6707 34.036 71.3987 33.756 71.0547 33.564C70.7187 33.364 70.3467 33.264 69.9387 33.264C69.5307 33.264 69.1587 33.36 68.8227 33.552C68.4867 33.744 68.2187 34.024 68.0187 34.392C67.8187 34.76 67.7187 35.192 67.7187 35.688C67.7187 36.192 67.8187 36.632 68.0187 37.008C68.2187 37.376 68.4867 37.66 68.8227 37.86C69.1587 38.052 69.5307 38.148 69.9387 38.148C70.3467 38.148 70.7187 38.052 71.0547 37.86C71.3987 37.66 71.6707 37.376 71.8707 37.008C72.0707 36.632 72.1707 36.196 72.1707 35.7Z" fill="black"/>
<defs>
<filter id="filter0_d_17_1449" x="0" y="0" width="93" height="77" filterUnits="userSpaceOnUse" color-interpolation-filters="sRGB">
<feFlood flood-opacity="0" result="BackgroundImageFix"/>
<feColorMatrix in="SourceAlpha" type="matrix" values="0 0 0 0 0 0 0 0 0 0 0 0 0 0 0 0 0 0 127 0" result="hardAlpha"/>
<feOffset dy="4"/>
<feGaussianBlur stdDeviation="2"/>
<feComposite in2="hardAlpha" operator="out"/>
<feColorMatrix type="matrix" values="0 0 0 0 0 0 0 0 0 0 0 0 0 0 0 0 0 0 0.25 0"/>
<feBlend mode="normal" in2="BackgroundImageFix" result="effect1_dropShadow_17_1449"/>
<feBlend mode="normal" in="SourceGraphic" in2="effect1_dropShadow_17_1449" result="shape"/>
</filter>
</defs>
</svg>
