<svg width="56" height="14" viewBox="0 0 56 14" fill="none" xmlns="http://www.w3.org/2000/svg">
<path d="M5.136 1.636V7.816C5.136 8.504 4.924 9.056 4.5 9.472C4.076 9.88 3.516 10.084 2.82 10.084C2.116 10.084 1.552 9.876 1.128 9.46C0.704 9.036 0.492 8.46 0.492 7.732H1.584C1.592 8.14 1.696 8.472 1.896 8.728C2.104 8.984 2.412 9.112 2.82 9.112C3.228 9.112 3.532 8.992 3.732 8.752C3.932 8.504 4.032 8.192 4.032 7.816V1.636H5.136ZM11.3553 10.108C10.7393 10.108 10.1793 9.968 9.67528 9.688C9.17928 9.408 8.78728 9.012 8.49928 8.5C8.21928 7.98 8.07928 7.38 8.07928 6.7C8.07928 6.028 8.22328 5.436 8.51128 4.924C8.80728 4.404 9.20728 4.008 9.71128 3.736C10.2153 3.456 10.7793 3.316 11.4033 3.316C12.0273 3.316 12.5913 3.456 13.0953 3.736C13.5993 4.008 13.9953 4.4 14.2833 4.912C14.5793 5.424 14.7273 6.02 14.7273 6.7C14.7273 7.38 14.5753 7.98 14.2713 8.5C13.9753 9.012 13.5713 9.408 13.0593 9.688C12.5473 9.968 11.9793 10.108 11.3553 10.108ZM11.3553 9.148C11.7473 9.148 12.1153 9.056 12.4593 8.872C12.8033 8.688 13.0793 8.412 13.2873 8.044C13.5033 7.676 13.6113 7.228 13.6113 6.7C13.6113 6.172 13.5073 5.724 13.2993 5.356C13.0913 4.988 12.8193 4.716 12.4833 4.54C12.1473 4.356 11.7833 4.264 11.3913 4.264C10.9913 4.264 10.6233 4.356 10.2873 4.54C9.95928 4.716 9.69528 4.988 9.49528 5.356C9.29528 5.724 9.19528 6.172 9.19528 6.7C9.19528 7.236 9.29128 7.688 9.48328 8.056C9.68328 8.424 9.94728 8.7 10.2753 8.884C10.6033 9.06 10.9633 9.148 11.3553 9.148ZM20.0751 3.316C20.6431 3.316 21.1391 3.44 21.5631 3.688C21.9951 3.936 22.3151 4.248 22.5231 4.624V3.424H23.6271V10.144C23.6271 10.744 23.4991 11.276 23.2431 11.74C22.9871 12.212 22.6191 12.58 22.1391 12.844C21.6671 13.108 21.1151 13.24 20.4831 13.24C19.6191 13.24 18.8991 13.036 18.3231 12.628C17.7471 12.22 17.4071 11.664 17.3031 10.96H18.3831C18.5031 11.36 18.7511 11.68 19.1271 11.92C19.5031 12.168 19.9551 12.292 20.4831 12.292C21.0831 12.292 21.5711 12.104 21.9471 11.728C22.3311 11.352 22.5231 10.824 22.5231 10.144V8.764C22.3071 9.148 21.9871 9.468 21.5631 9.724C21.1391 9.98 20.6431 10.108 20.0751 10.108C19.4911 10.108 18.9591 9.964 18.4791 9.676C18.0071 9.388 17.6351 8.984 17.3631 8.464C17.0911 7.944 16.9551 7.352 16.9551 6.688C16.9551 6.016 17.0911 5.428 17.3631 4.924C17.6351 4.412 18.0071 4.016 18.4791 3.736C18.9591 3.456 19.4911 3.316 20.0751 3.316ZM22.5231 6.7C22.5231 6.204 22.4231 5.772 22.2231 5.404C22.0231 5.036 21.7511 4.756 21.4071 4.564C21.0711 4.364 20.6991 4.264 20.2911 4.264C19.8831 4.264 19.5111 4.36 19.1751 4.552C18.8391 4.744 18.5711 5.024 18.3711 5.392C18.1711 5.76 18.0711 6.192 18.0711 6.688C18.0711 7.192 18.1711 7.632 18.3711 8.008C18.5711 8.376 18.8391 8.66 19.1751 8.86C19.5111 9.052 19.8831 9.148 20.2911 9.148C20.6991 9.148 21.0711 9.052 21.4071 8.86C21.7511 8.66 22.0231 8.376 22.2231 8.008C22.4231 7.632 22.5231 7.196 22.5231 6.7ZM29.3844 3.316C29.9524 3.316 30.4484 3.44 30.8724 3.688C31.3044 3.936 31.6244 4.248 31.8324 4.624V3.424H32.9364V10.144C32.9364 10.744 32.8084 11.276 32.5524 11.74C32.2964 12.212 31.9284 12.58 31.4484 12.844C30.9764 13.108 30.4244 13.24 29.7924 13.24C28.9284 13.24 28.2084 13.036 27.6324 12.628C27.0564 12.22 26.7164 11.664 26.6124 10.96H27.6924C27.8124 11.36 28.0604 11.68 28.4364 11.92C28.8124 12.168 29.2644 12.292 29.7924 12.292C30.3924 12.292 30.8804 12.104 31.2564 11.728C31.6404 11.352 31.8324 10.824 31.8324 10.144V8.764C31.6164 9.148 31.2964 9.468 30.8724 9.724C30.4484 9.98 29.9524 10.108 29.3844 10.108C28.8004 10.108 28.2684 9.964 27.7884 9.676C27.3164 9.388 26.9444 8.984 26.6724 8.464C26.4004 7.944 26.2644 7.352 26.2644 6.688C26.2644 6.016 26.4004 5.428 26.6724 4.924C26.9444 4.412 27.3164 4.016 27.7884 3.736C28.2684 3.456 28.8004 3.316 29.3844 3.316ZM31.8324 6.7C31.8324 6.204 31.7324 5.772 31.5324 5.404C31.3324 5.036 31.0604 4.756 30.7164 4.564C30.3804 4.364 30.0084 4.264 29.6004 4.264C29.1924 4.264 28.8204 4.36 28.4844 4.552C28.1484 4.744 27.8804 5.024 27.6804 5.392C27.4804 5.76 27.3804 6.192 27.3804 6.688C27.3804 7.192 27.4804 7.632 27.6804 8.008C27.8804 8.376 28.1484 8.66 28.4844 8.86C28.8204 9.052 29.1924 9.148 29.6004 9.148C30.0084 9.148 30.3804 9.052 30.7164 8.86C31.0604 8.66 31.3324 8.376 31.5324 8.008C31.7324 7.632 31.8324 7.196 31.8324 6.7ZM36.5458 2.356C36.3378 2.356 36.1618 2.284 36.0178 2.14C35.8738 1.996 35.8018 1.82 35.8018 1.612C35.8018 1.404 35.8738 1.228 36.0178 1.084C36.1618 0.94 36.3378 0.868 36.5458 0.868C36.7458 0.868 36.9138 0.94 37.0498 1.084C37.1938 1.228 37.2658 1.404 37.2658 1.612C37.2658 1.82 37.1938 1.996 37.0498 2.14C36.9138 2.284 36.7458 2.356 36.5458 2.356ZM37.0738 3.424V10H35.9818V3.424H37.0738ZM43.3389 3.304C44.1389 3.304 44.7869 3.548 45.2829 4.036C45.7789 4.516 46.0269 5.212 46.0269 6.124V10H44.9469V6.28C44.9469 5.624 44.7829 5.124 44.4549 4.78C44.1269 4.428 43.6789 4.252 43.1109 4.252C42.5349 4.252 42.0749 4.432 41.7309 4.792C41.3949 5.152 41.2269 5.676 41.2269 6.364V10H40.1349V3.424H41.2269V4.36C41.4429 4.024 41.7349 3.764 42.1029 3.58C42.4789 3.396 42.8909 3.304 43.3389 3.304ZM51.7227 3.316C52.2907 3.316 52.7867 3.44 53.2107 3.688C53.6427 3.936 53.9627 4.248 54.1707 4.624V3.424H55.2747V10.144C55.2747 10.744 55.1467 11.276 54.8907 11.74C54.6347 12.212 54.2667 12.58 53.7867 12.844C53.3147 13.108 52.7627 13.24 52.1307 13.24C51.2667 13.24 50.5467 13.036 49.9707 12.628C49.3947 12.22 49.0547 11.664 48.9507 10.96H50.0307C50.1507 11.36 50.3987 11.68 50.7747 11.92C51.1507 12.168 51.6027 12.292 52.1307 12.292C52.7307 12.292 53.2187 12.104 53.5947 11.728C53.9787 11.352 54.1707 10.824 54.1707 10.144V8.764C53.9547 9.148 53.6347 9.468 53.2107 9.724C52.7867 9.98 52.2907 10.108 51.7227 10.108C51.1387 10.108 50.6067 9.964 50.1267 9.676C49.6547 9.388 49.2827 8.984 49.0107 8.464C48.7387 7.944 48.6027 7.352 48.6027 6.688C48.6027 6.016 48.7387 5.428 49.0107 4.924C49.2827 4.412 49.6547 4.016 50.1267 3.736C50.6067 3.456 51.1387 3.316 51.7227 3.316ZM54.1707 6.7C54.1707 6.204 54.0707 5.772 53.8707 5.404C53.6707 5.036 53.3987 4.756 53.0547 4.564C52.7187 4.364 52.3467 4.264 51.9387 4.264C51.5307 4.264 51.1587 4.36 50.8227 4.552C50.4867 4.744 50.2187 5.024 50.0187 5.392C49.8187 5.76 49.7187 6.192 49.7187 6.688C49.7187 7.192 49.8187 7.632 50.0187 8.008C50.2187 8.376 50.4867 8.66 50.8227 8.86C51.1587 9.052 51.5307 9.148 51.9387 9.148C52.3467 9.148 52.7187 9.052 53.0547 8.86C53.3987 8.66 53.6707 8.376 53.8707 8.008C54.0707 7.632 54.1707 7.196 54.1707 6.7Z" fill="black"/>
</svg>
