<svg width="229" height="52" viewBox="0 0 229 52" fill="none" xmlns="http://www.w3.org/2000/svg">
<path d="M61.3239 33.5072C59.9613 33.5072 58.7293 33.2738 57.6279 32.8072C56.5453 32.3405 55.6866 31.6685 55.0519 30.7912C54.4173 29.9138 54.0906 28.8778 54.0719 27.6832H58.2719C58.3279 28.4858 58.6079 29.1205 59.1119 29.5872C59.6346 30.0538 60.3439 30.2872 61.2399 30.2872C62.1546 30.2872 62.8733 30.0725 63.3959 29.6432C63.9186 29.1952 64.1799 28.6165 64.1799 27.9072C64.1799 27.3285 64.0026 26.8525 63.6479 26.4792C63.2933 26.1058 62.8453 25.8165 62.3039 25.6112C61.7813 25.3872 61.0533 25.1445 60.1199 24.8832C58.8506 24.5098 57.8146 24.1458 57.0119 23.7912C56.2279 23.4178 55.5466 22.8672 54.9679 22.1392C54.4079 21.3925 54.1279 20.4032 54.1279 19.1712C54.1279 18.0138 54.4173 17.0058 54.9959 16.1472C55.5746 15.2885 56.3866 14.6352 57.4319 14.1872C58.4773 13.7205 59.6719 13.4872 61.0159 13.4872C63.0319 13.4872 64.6653 13.9818 65.9159 14.9712C67.1853 15.9418 67.8853 17.3045 68.0159 19.0592H63.7039C63.6666 18.3872 63.3773 17.8365 62.8359 17.4072C62.3133 16.9592 61.6133 16.7352 60.7359 16.7352C59.9706 16.7352 59.3546 16.9312 58.8879 17.3232C58.4399 17.7152 58.2159 18.2845 58.2159 19.0312C58.2159 19.5538 58.3839 19.9925 58.7199 20.3472C59.0746 20.6832 59.5039 20.9632 60.0079 21.1872C60.5306 21.3925 61.2586 21.6352 62.1919 21.9152C63.4613 22.2885 64.4973 22.6618 65.2999 23.0352C66.1026 23.4085 66.7933 23.9685 67.3719 24.7152C67.9506 25.4618 68.2399 26.4418 68.2399 27.6552C68.2399 28.7005 67.9693 29.6712 67.4279 30.5672C66.8866 31.4632 66.0933 32.1818 65.0479 32.7232C64.0026 33.2458 62.7613 33.5072 61.3239 33.5072ZM75.5584 20.0392C76.0624 19.3298 76.7531 18.7418 77.6304 18.2752C78.5264 17.7898 79.5438 17.5472 80.6824 17.5472C82.0078 17.5472 83.2024 17.8738 84.2664 18.5272C85.3491 19.1805 86.1984 20.1138 86.8144 21.3272C87.4491 22.5218 87.7664 23.9125 87.7664 25.4992C87.7664 27.0858 87.4491 28.4952 86.8144 29.7272C86.1984 30.9405 85.3491 31.8832 84.2664 32.5552C83.2024 33.2272 82.0078 33.5632 80.6824 33.5632C79.5438 33.5632 78.5358 33.3298 77.6584 32.8632C76.7998 32.3965 76.0998 31.8085 75.5584 31.0992V40.7032H71.6384V17.7992H75.5584V20.0392ZM83.7624 25.4992C83.7624 24.5658 83.5664 23.7632 83.1744 23.0912C82.8011 22.4005 82.2971 21.8778 81.6624 21.5232C81.0464 21.1685 80.3744 20.9912 79.6464 20.9912C78.9371 20.9912 78.2651 21.1778 77.6304 21.5512C77.0144 21.9058 76.5104 22.4285 76.1184 23.1192C75.7451 23.8098 75.5584 24.6218 75.5584 25.5552C75.5584 26.4885 75.7451 27.3005 76.1184 27.9912C76.5104 28.6818 77.0144 29.2138 77.6304 29.5872C78.2651 29.9418 78.9371 30.1192 79.6464 30.1192C80.3744 30.1192 81.0464 29.9325 81.6624 29.5592C82.2971 29.1858 82.8011 28.6538 83.1744 27.9632C83.5664 27.2725 83.7624 26.4512 83.7624 25.4992ZM97.503 33.5632C96.0097 33.5632 94.6657 33.2365 93.471 32.5832C92.2763 31.9112 91.3337 30.9685 90.643 29.7552C89.971 28.5418 89.635 27.1418 89.635 25.5552C89.635 23.9685 89.9803 22.5685 90.671 21.3552C91.3803 20.1418 92.3417 19.2085 93.555 18.5552C94.7683 17.8832 96.1217 17.5472 97.615 17.5472C99.1083 17.5472 100.462 17.8832 101.675 18.5552C102.888 19.2085 103.84 20.1418 104.531 21.3552C105.24 22.5685 105.595 23.9685 105.595 25.5552C105.595 27.1418 105.231 28.5418 104.503 29.7552C103.794 30.9685 102.823 31.9112 101.591 32.5832C100.378 33.2365 99.015 33.5632 97.503 33.5632ZM97.503 30.1472C98.2123 30.1472 98.875 29.9792 99.491 29.6432C100.126 29.2885 100.63 28.7658 101.003 28.0752C101.376 27.3845 101.563 26.5445 101.563 25.5552C101.563 24.0805 101.171 22.9512 100.387 22.1672C99.6217 21.3645 98.679 20.9632 97.559 20.9632C96.439 20.9632 95.4963 21.3645 94.731 22.1672C93.9843 22.9512 93.611 24.0805 93.611 25.5552C93.611 27.0298 93.975 28.1685 94.703 28.9712C95.4497 29.7552 96.383 30.1472 97.503 30.1472ZM112.39 20.2072C112.894 19.3858 113.548 18.7418 114.35 18.2752C115.172 17.8085 116.105 17.5752 117.15 17.5752V21.6912H116.114C114.882 21.6912 113.949 21.9805 113.314 22.5592C112.698 23.1378 112.39 24.1458 112.39 25.5832V33.3112H108.47V17.7992H112.39V20.2072ZM124.355 21.0192V28.5232C124.355 29.0458 124.476 29.4285 124.719 29.6712C124.98 29.8952 125.409 30.0072 126.007 30.0072H127.827V33.3112H125.363C122.059 33.3112 120.407 31.7058 120.407 28.4952V21.0192H118.559V17.7992H120.407V13.9632H124.355V17.7992H127.827V21.0192H124.355ZM136.582 33.5632C135.313 33.5632 134.174 33.3392 133.166 32.8912C132.158 32.4245 131.356 31.7992 130.758 31.0152C130.18 30.2312 129.862 29.3632 129.806 28.4112H133.754C133.829 29.0085 134.118 29.5032 134.622 29.8952C135.145 30.2872 135.789 30.4832 136.554 30.4832C137.301 30.4832 137.88 30.3338 138.29 30.0352C138.72 29.7365 138.934 29.3538 138.934 28.8872C138.934 28.3832 138.673 28.0098 138.15 27.7672C137.646 27.5058 136.834 27.2258 135.714 26.9272C134.557 26.6472 133.605 26.3578 132.858 26.0592C132.13 25.7605 131.496 25.3032 130.954 24.6872C130.432 24.0712 130.17 23.2405 130.17 22.1952C130.17 21.3365 130.413 20.5525 130.898 19.8432C131.402 19.1338 132.112 18.5738 133.026 18.1632C133.96 17.7525 135.052 17.5472 136.302 17.5472C138.15 17.5472 139.625 18.0138 140.726 18.9472C141.828 19.8618 142.434 21.1032 142.546 22.6712H138.794C138.738 22.0552 138.477 21.5698 138.01 21.2152C137.562 20.8418 136.956 20.6552 136.19 20.6552C135.481 20.6552 134.93 20.7858 134.538 21.0472C134.165 21.3085 133.978 21.6725 133.978 22.1392C133.978 22.6618 134.24 23.0632 134.762 23.3432C135.285 23.6045 136.097 23.8752 137.198 24.1552C138.318 24.4352 139.242 24.7245 139.97 25.0232C140.698 25.3218 141.324 25.7885 141.846 26.4232C142.388 27.0392 142.668 27.8605 142.686 28.8872C142.686 29.7832 142.434 30.5858 141.93 31.2952C141.445 32.0045 140.736 32.5645 139.802 32.9752C138.888 33.3672 137.814 33.5632 136.582 33.5632ZM149.908 30.0072H158.7V33.3112H145.372V30.2872L154.108 17.0712H145.372V13.7672H158.7V16.7912L149.908 30.0072ZM164.025 15.9512C163.334 15.9512 162.756 15.7365 162.289 15.3072C161.841 14.8592 161.617 14.3085 161.617 13.6552C161.617 13.0018 161.841 12.4605 162.289 12.0312C162.756 11.5832 163.334 11.3592 164.025 11.3592C164.716 11.3592 165.285 11.5832 165.733 12.0312C166.2 12.4605 166.433 13.0018 166.433 13.6552C166.433 14.3085 166.2 14.8592 165.733 15.3072C165.285 15.7365 164.716 15.9512 164.025 15.9512ZM165.957 17.7992V33.3112H162.037V17.7992H165.957ZM173.75 12.5912V33.3112H169.83V12.5912H173.75ZM181.543 12.5912V33.3112H177.623V12.5912H181.543ZM184.408 25.4992C184.408 23.9312 184.716 22.5405 185.332 21.3272C185.966 20.1138 186.816 19.1805 187.88 18.5272C188.962 17.8738 190.166 17.5472 191.492 17.5472C192.649 17.5472 193.657 17.7805 194.516 18.2472C195.393 18.7138 196.093 19.3018 196.616 20.0112V17.7992H200.564V33.3112H196.616V31.0432C196.112 31.7712 195.412 32.3778 194.516 32.8632C193.638 33.3298 192.621 33.5632 191.464 33.5632C190.157 33.5632 188.962 33.2272 187.88 32.5552C186.816 31.8832 185.966 30.9405 185.332 29.7272C184.716 28.4952 184.408 27.0858 184.408 25.4992ZM196.616 25.5552C196.616 24.6032 196.429 23.7912 196.056 23.1192C195.682 22.4285 195.178 21.9058 194.544 21.5512C193.909 21.1778 193.228 20.9912 192.5 20.9912C191.772 20.9912 191.1 21.1685 190.484 21.5232C189.868 21.8778 189.364 22.4005 188.972 23.0912C188.598 23.7632 188.412 24.5658 188.412 25.4992C188.412 26.4325 188.598 27.2538 188.972 27.9632C189.364 28.6538 189.868 29.1858 190.484 29.5592C191.118 29.9325 191.79 30.1192 192.5 30.1192C193.228 30.1192 193.909 29.9418 194.544 29.5872C195.178 29.2138 195.682 28.6912 196.056 28.0192C196.429 27.3285 196.616 26.5072 196.616 25.5552Z" fill="white"/>
<path d="M28.7587 0C29.6377 1.02969 30.8432 1.5822 31.8729 2.43609C32.4505 2.93837 33.5305 3.21463 33.5807 3.8676C33.6058 4.36989 32.6263 4.92241 32.0989 5.42469C30.8934 6.55484 29.6628 7.65987 28.4825 8.81512C28.1309 9.16673 27.8546 9.26718 27.3523 9.01604C25.3181 8.01147 25.3181 8.03658 26.3226 6.00232C27.1514 4.31966 28.0053 2.66212 28.3569 0.803658C28.4071 0.552515 28.5829 0.276257 28.4322 0C28.5076 0 28.6332 0 28.7587 0Z" fill="#050509"/>
<path d="M6.55769 49.3998C7.08509 48.7217 7.66272 48.4204 8.19012 48.0688C12.0577 45.7331 15.9504 43.3975 19.8181 41.0619C21.2496 40.1829 22.656 39.2536 23.987 38.1988C24.866 37.5207 25.5943 36.7171 26.0966 35.7125C27.1514 33.628 26.4733 31.7696 24.2884 30.9408C22.9825 30.4385 21.6263 30.0618 20.2952 29.6348C18.9642 29.1828 17.6582 28.6554 16.4276 28.0024C13.7153 26.5458 12.8614 23.959 14.1422 21.1964C14.9208 19.5389 16.2267 18.3083 17.608 17.1782C23.0829 12.8083 29.1857 9.895 36.3182 9.34249C39.3821 9.11646 42.4209 8.76486 45.4849 8.78997C45.9369 8.78997 46.389 8.78997 46.8662 8.91554C45.8365 9.51829 44.7063 9.56852 43.6013 9.7192C38.6789 10.3471 33.8821 11.3767 29.5122 13.8882C26.5738 15.5708 24.0373 17.7558 21.9528 20.3928C19.8934 22.9796 20.6217 24.6873 23.9117 25.1394C25.7953 25.3905 27.7039 25.4659 29.4871 26.2444C31.2199 26.9978 32.7017 27.9773 33.1537 29.9362C33.4802 31.2673 33.1286 32.5481 32.551 33.7536C31.4711 36.039 29.7633 37.797 27.6035 39.0025C21.5761 42.3427 15.624 45.8336 9.32027 48.6715C8.51661 49.0482 7.68784 49.4249 6.55769 49.3998Z" fill="#54D2E0"/>
<path d="M13.7404 27.8768C15.3728 28.9819 16.8043 30.112 18.4367 30.8905C19.1148 31.217 19.7929 31.5938 20.5463 30.9659C20.7975 31.418 20.5463 31.7444 20.3957 32.0458C18.7883 35.2604 16.9299 38.1988 13.8408 40.3084C9.49605 43.2719 5.50287 46.6875 1.83618 50.4546C1.43435 50.8564 0.881839 51.1076 0.630696 51.7103C0.555353 51.8861 0.329324 52.1122 0.103295 51.9363C-0.147848 51.7354 0.12841 51.5345 0.203753 51.3587C1.25855 49.5254 2.3887 47.7423 3.6193 46.0094C5.82936 42.8701 8.39102 39.9819 10.802 36.9933C11.5052 36.1143 12.1833 35.2102 12.786 34.281C14.3933 31.9202 14.5691 30.6394 13.7404 27.8768Z" fill="#050509"/>
<path d="M13.6901 20.8449C13.1879 17.4294 12.9116 14.0138 13.7404 10.6234C14.4938 7.50922 16.1011 6.55487 19.2906 6.85624C22.0532 7.10739 24.3888 8.23753 26.6491 9.69416C27.2016 10.0458 27.2016 10.2216 26.624 10.548C25.5943 11.1257 24.5646 11.7284 23.5098 12.2558C22.6811 12.6577 21.9276 12.6577 21.1491 12.1303C20.4459 11.6531 19.6925 11.2512 18.9139 10.9499C17.2061 10.2718 16.0007 10.7741 15.2723 12.4819C14.6445 14.0138 14.3682 15.6714 14.1673 17.3038C14.0166 18.4591 13.5395 19.6143 13.6901 20.8449Z" fill="#050509"/>
</svg>
