<svg width="27" height="17" viewBox="0 0 27 17" fill="none" xmlns="http://www.w3.org/2000/svg">
<path d="M27.0001 12.9306C24.8382 12.9306 22.6763 12.924 20.5145 12.924C20.4877 12.924 20.4609 12.9306 20.4609 12.9306C20.4609 13.315 20.4609 13.6928 20.4609 14.0706C20.4609 15.7275 19.2629 16.9669 17.5963 16.9801C14.8521 17 12.1146 17 9.37045 16.9801C7.70387 16.9669 6.49911 15.7275 6.49242 14.0839C6.49242 13.7127 6.49242 13.3349 6.49242 12.9306C4.3707 12.9306 2.20883 12.9306 0.046954 12.9306C-0.200691 11.3334 0.696186 8.56299 3.61438 7.4628C2.7175 6.78015 2.26237 5.88541 2.3293 4.77196C2.37616 3.97001 2.7175 3.28073 3.31319 2.73064C4.53803 1.60393 6.43887 1.66358 7.61686 2.84331C8.70114 3.92362 8.97556 6.08424 7.25543 7.44292C7.82434 7.76767 8.39995 8.10568 9.00233 8.45032C9.34368 8.23161 9.7118 7.95325 10.1201 7.73453C10.5217 7.51582 10.9567 7.35013 11.3784 7.16455C9.05588 5.63356 9.15627 2.72401 10.6087 1.21952C12.1213 -0.344609 14.6112 -0.424141 16.184 1.10023C17.0876 1.97508 17.4758 3.04876 17.3352 4.29477C17.2014 5.52752 16.5588 6.46202 15.5147 7.17118C15.8159 7.29048 16.097 7.37001 16.3447 7.50919C16.84 7.78756 17.3219 8.09243 17.8038 8.39067C17.9109 8.45695 17.9778 8.52323 18.1183 8.42381C18.6404 8.07917 19.1759 7.75442 19.7113 7.41641C18.8211 6.73375 18.3861 5.77274 18.5132 4.59301C18.6002 3.77781 18.9951 3.10841 19.6377 2.59145C20.9161 1.56416 22.7901 1.72323 23.8878 2.94935C24.952 4.1357 25.0256 6.16377 23.3791 7.46943C23.5264 7.5357 23.6669 7.58872 23.8075 7.655C25.5945 8.5166 26.6521 9.91504 26.9466 11.8702C26.9532 11.91 26.98 11.9497 26.9934 11.9895C27.0001 12.301 27.0001 12.6125 27.0001 12.9306ZM13.4466 16.1252C13.4466 16.1185 13.4466 16.1185 13.4466 16.1252C14.8454 16.1252 16.2443 16.1318 17.6364 16.1185C18.5936 16.1053 19.4503 15.3895 19.544 14.4881C19.6377 13.6133 19.5707 12.7451 19.2696 11.9166C18.4597 9.68307 16.8801 8.28463 14.5175 7.8472C12.5898 7.48931 10.8563 8.00627 9.38384 9.28541C8.23932 10.2862 7.57001 11.5587 7.38929 13.0566C7.32905 13.5669 7.30897 14.1104 7.40937 14.6141C7.59009 15.5353 8.37987 16.1119 9.33029 16.1185C10.7091 16.1318 12.0812 16.1252 13.4466 16.1252ZM10.4213 3.87722C10.428 5.5474 11.78 6.87956 13.48 6.87956C15.16 6.87956 16.512 5.52089 16.5053 3.85071C16.4986 2.20042 15.1332 0.861629 13.4599 0.861629C11.7666 0.855002 10.4146 2.20042 10.4213 3.87722ZM18.6136 9.10646C18.6739 9.186 18.7073 9.23902 18.7475 9.27878C19.4101 10.041 19.8853 10.9026 20.1731 11.8636C20.2267 12.0359 20.3204 12.0425 20.4609 12.0425C22.2681 12.0425 24.0819 12.0425 25.889 12.0425C25.956 12.0425 26.0229 12.0293 26.1099 12.0226C25.8154 10.2531 24.8851 8.97391 23.2051 8.33103C21.5586 7.70802 20.0326 8.01952 18.6136 9.10646ZM0.863513 12.0226C0.937137 12.0359 0.96391 12.0492 0.983989 12.0492C2.83129 12.0492 4.67189 12.0492 6.51919 12.0558C6.67982 12.0558 6.7066 11.9696 6.76014 11.8503C7.02117 11.2605 7.2822 10.6573 7.59009 10.0874C7.78419 9.72947 8.0586 9.42459 8.31294 9.07333C6.85384 7.9665 5.26088 7.68814 3.56753 8.41718C2.00134 9.09321 1.13124 10.3326 0.863513 12.0226ZM21.5787 2.77703C20.3538 2.78366 19.37 3.71816 19.3566 4.98405C19.3499 6.19028 20.3672 7.19106 21.572 7.17118C22.8638 7.1513 23.8008 6.13064 23.7874 4.95754C23.7807 3.74467 22.7968 2.7704 21.5787 2.77703ZM5.40144 2.77703C4.19668 2.77703 3.19271 3.69165 3.16594 4.97079C3.14586 6.15715 4.16322 7.17118 5.37467 7.16455C6.63297 7.15793 7.59009 6.17703 7.60347 4.99067C7.61686 3.77781 6.63966 2.78366 5.40144 2.77703Z" fill="#BFBFBF"/>
</svg>
