<svg width="30" height="31" viewBox="0 0 30 31" fill="none" xmlns="http://www.w3.org/2000/svg">
<path d="M30 14.4099C30 15.0688 30 15.7276 30 16.3865C29.9562 16.7471 29.9125 17.1138 29.8625 17.4743C29.5374 19.6686 28.7998 21.7074 27.5495 23.5473C25.074 27.1961 21.6483 29.3965 17.2661 30.1113C16.8473 30.1797 16.4222 30.2232 15.9971 30.2792C15.3344 30.2792 14.6718 30.2792 14.0029 30.2792C13.6403 30.2356 13.2715 30.1921 12.9089 30.1424C10.4272 29.7819 8.1517 28.893 6.13878 27.4012C2.83809 24.9583 0.843926 21.7074 0.175036 17.667C0.106272 17.2381 0.0562617 16.8092 0 16.3803C0 15.7214 0 15.0625 0 14.4036C0.0187539 14.3166 0.0437591 14.2358 0.0562617 14.1488C0.125026 13.6329 0.162534 13.1045 0.262555 12.5948C1.00646 8.91497 2.85685 5.88781 5.86997 3.60034C9.17066 1.0891 12.9214 0.119418 17.041 0.653989C19.9792 1.03316 22.5797 2.21419 24.8114 4.15356C27.5807 6.55913 29.2623 9.56765 29.8312 13.1853C29.8937 13.5894 29.9437 13.9996 30 14.4099ZM15.5345 7.30505C15.5345 8.06339 15.5282 8.81552 15.547 9.57386C15.547 9.7044 15.6283 9.87223 15.7283 9.95304C17.2473 11.1714 18.7727 12.3835 20.3042 13.5831C20.3917 13.6515 20.5605 13.6826 20.6606 13.6515C22.2359 13.1418 23.805 12.6197 25.3678 12.0913C25.4678 12.054 25.5866 11.9297 25.6116 11.8303C25.9429 10.5 26.2555 9.16361 26.568 7.82718C26.593 7.73394 26.5618 7.59719 26.5055 7.51639C25.0677 5.46513 23.2111 3.91114 20.9419 2.842C20.8356 2.79227 20.6731 2.78606 20.5605 2.82957C18.9539 3.45738 17.3599 4.09762 15.7533 4.71921C15.572 4.78759 15.5345 4.88704 15.5345 5.06731C15.5407 5.81322 15.5345 6.55913 15.5345 7.30505ZM14.4655 7.34856C14.4655 6.584 14.4593 5.81944 14.4718 5.05487C14.4718 4.88704 14.4343 4.80002 14.2655 4.73165C12.6401 4.10384 11.021 3.46359 9.40196 2.83578C9.30819 2.79849 9.17066 2.8047 9.07689 2.842C6.79517 3.91114 4.93228 5.47756 3.49448 7.53503C3.44447 7.60963 3.41946 7.73394 3.43822 7.82097C3.75078 9.1574 4.0696 10.4938 4.38216 11.8303C4.41967 11.9981 4.50094 12.0665 4.65722 12.1162C6.22005 12.6259 7.77662 13.148 9.33945 13.6577C9.44572 13.6888 9.6145 13.664 9.69577 13.5956C11.2336 12.3897 12.7652 11.1714 14.2905 9.94682C14.3842 9.87223 14.4593 9.71061 14.4593 9.5863C14.478 8.84038 14.4655 8.09447 14.4655 7.34856ZM8.18921 23.7773C8.22671 23.7462 8.32048 23.6903 8.383 23.6032C9.09564 22.6709 9.79579 21.726 10.5147 20.7999C10.6335 20.6445 10.6522 20.5077 10.6022 20.3274C10.1459 18.5497 9.70202 16.7657 9.25818 14.9879C9.21442 14.8263 9.14566 14.7269 8.97062 14.6709C7.42655 14.1674 5.88248 13.6577 4.34466 13.1418C4.18837 13.0859 4.08835 13.0983 3.97583 13.2351C3.06314 14.3353 2.13795 15.4231 1.23151 16.5233C1.15024 16.6227 1.10023 16.7844 1.11273 16.9087C1.33153 19.0656 2.05043 21.0485 3.21942 22.8698C3.26943 22.9444 3.3757 23.0127 3.46322 23.0314C3.8633 23.106 4.26964 23.1681 4.67597 23.2303C5.81996 23.4043 6.96395 23.5846 8.18921 23.7773ZM28.9248 16.7533C28.8998 16.7098 28.8623 16.6165 28.7998 16.5357C27.8808 15.4293 26.9494 14.3353 26.0304 13.2288C25.9179 13.0921 25.8179 13.0797 25.6616 13.1356C24.1238 13.6515 22.5797 14.155 21.0419 14.6772C20.9294 14.7144 20.7981 14.845 20.7668 14.9569C20.298 16.7719 19.8479 18.5932 19.3978 20.4082C19.3728 20.5015 19.3978 20.6445 19.4541 20.719C20.1855 21.6949 20.9294 22.6709 21.6795 23.6343C21.7358 23.7027 21.8733 23.7586 21.9608 23.7462C23.3674 23.5349 24.7677 23.2862 26.1742 23.0998C26.5805 23.0438 26.7993 22.8822 26.9994 22.5465C28.0558 20.775 28.6997 18.8667 28.9248 16.7533ZM9.15191 24.3802C9.16441 24.4113 9.17691 24.4424 9.18941 24.4673C10.1271 25.928 11.0648 27.3887 12.0088 28.8495C12.0588 28.9241 12.165 28.9925 12.2588 29.0111C14.2155 29.4151 16.1721 29.3654 18.1225 28.9303C18.235 28.9054 18.3663 28.806 18.4288 28.7065C19.229 27.3452 20.0167 25.9715 20.7918 24.5978C20.8418 24.5108 20.8293 24.3305 20.7668 24.2497C20.0604 23.2987 19.3415 22.3601 18.6101 21.4214C18.5414 21.3344 18.3913 21.2598 18.2726 21.2598C16.0846 21.2474 13.8966 21.2536 11.7087 21.2598C11.6087 21.2598 11.4711 21.3158 11.4149 21.3904C10.6585 22.3787 9.90831 23.3857 9.15191 24.3802Z" fill="black"/>
</svg>
