<svg width="27" height="28" viewBox="0 0 27 28" fill="none" xmlns="http://www.w3.org/2000/svg">
<path d="M18.1645 27.9998C17.6039 27.8867 17.0283 27.8112 16.4751 27.6453C15.0698 27.238 13.8514 26.4987 12.8572 25.405C12.618 25.141 12.3713 25.0203 12.005 25.0203C9.05983 25.0354 6.11465 25.0354 3.16946 25.0278C1.64455 25.0278 0.441059 24.1 0.0972053 22.6518C0.0374046 22.3878 0.0149794 22.1087 0.0149794 21.8371C0.0075043 16.5192 0.0224545 11.1862 2.92203e-05 5.85328C-0.00744586 4.05802 1.42029 2.61729 3.10966 2.67763C3.16946 2.67763 3.23674 2.67763 3.32644 2.67763C3.34139 2.46642 3.34887 2.27785 3.36382 2.08173C3.44604 0.957804 4.2683 0.0978902 5.34471 0.007373C6.45103 -0.0831442 7.42279 0.640994 7.66199 1.75737C7.72179 2.04401 7.71432 2.35328 7.73674 2.66254C10.3455 2.66254 12.9544 2.66254 15.5781 2.66254C15.5557 1.86298 15.6977 1.1313 16.3181 0.573106C16.7218 0.21858 17.1927 0.0375454 17.7235 0.0300023C18.157 0.0224592 18.5607 0.143149 18.9269 0.392071C19.2932 0.640994 19.5997 0.965347 19.7268 1.3953C19.8464 1.79509 19.8838 2.22504 19.9585 2.63992C20.2874 2.67763 20.6462 2.68517 20.9901 2.76815C22.3879 3.11513 23.2999 4.33711 23.2999 5.85328C23.3073 8.07849 23.3073 10.3037 23.2999 12.5289C23.2999 12.7326 23.3671 12.8533 23.5316 12.974C25.4527 14.3845 26.6113 16.2778 26.9328 18.6539C27.471 22.6291 25.0117 26.4686 21.2143 27.6302C20.6462 27.8037 20.0557 27.8791 19.4726 27.9998C19.0316 27.9998 18.598 27.9998 18.1645 27.9998ZM11.6088 23.8059C9.99422 20.336 10.1886 17.0623 12.745 14.2035C15.3015 11.3447 18.5158 10.8242 22.059 12.0914C22.059 11.0354 22.059 9.97181 22.059 8.91578C15.0997 8.91578 8.15535 8.91578 1.19604 8.91578C1.19604 9.00629 1.19604 9.08173 1.19604 9.14961C1.19604 13.3662 1.19604 17.5903 1.19604 21.8069C1.19604 22.0106 1.22594 22.2293 1.27079 22.4255C1.43525 23.127 2.10053 23.8134 3.17694 23.8059C5.88292 23.7832 8.59638 23.7983 11.3024 23.7983C11.407 23.8059 11.4967 23.8059 11.6088 23.8059ZM18.7924 12.6647C14.9278 12.6722 11.8107 15.8102 11.8107 19.71C11.8032 23.6022 14.9128 26.7703 18.7849 26.7703C22.6869 26.7628 25.7891 23.6475 25.7891 19.7024C25.7816 15.6819 22.5598 12.6647 18.7924 12.6647ZM3.34887 3.89961C2.33226 3.79401 1.39787 4.38992 1.27827 5.32526C1.18109 6.07957 1.25584 6.86405 1.25584 7.64099C8.17777 7.64099 15.1221 7.64099 22.0665 7.64099C22.0665 6.94703 22.0889 6.26815 22.059 5.59681C22.0142 4.51815 20.9676 3.71858 19.9062 3.90716C19.8987 3.92224 19.8912 3.93733 19.8912 3.95996C19.8912 4.31448 19.8912 4.66901 19.8838 5.02354C19.8838 5.52892 19.6745 5.74013 19.1811 5.74013C18.2542 5.74013 17.3198 5.74013 16.3929 5.74013C15.7351 5.74013 15.5706 5.56664 15.5706 4.8953C15.5706 4.56341 15.5706 4.23151 15.5706 3.89207C12.9319 3.89207 10.3231 3.89207 7.69937 3.89207C7.69937 4.27677 7.69937 4.63884 7.69937 5.00091C7.69937 5.52138 7.49754 5.73259 6.98176 5.74013C6.01 5.74767 5.03076 5.74767 4.059 5.74013C3.55069 5.74013 3.34887 5.52892 3.34139 5.00091C3.34887 4.64638 3.34887 4.28431 3.34887 3.89961ZM6.51083 4.53323C6.51083 3.71858 6.52578 2.92655 6.50335 2.13453C6.4884 1.59897 6.02495 1.22936 5.46432 1.25198C4.96348 1.26707 4.56731 1.66686 4.55983 2.18733C4.55236 2.76815 4.55983 3.35651 4.55983 3.93733C4.55983 4.13345 4.55983 4.32957 4.55983 4.54078C5.21764 4.53323 5.84554 4.53323 6.51083 4.53323ZM16.804 4.52569C17.4469 4.52569 18.0598 4.52569 18.6952 4.52569C18.6952 3.88453 18.6952 3.25845 18.6952 2.63237C18.6952 2.41362 18.6952 2.19487 18.6578 1.98367C18.5756 1.53108 18.172 1.2369 17.6861 1.25953C17.245 1.27461 16.8339 1.60651 16.819 2.04401C16.7891 2.85867 16.804 3.68086 16.804 4.52569Z" fill="#BFBFBF"/>
<path d="M18.9946 19.7101C19.1217 19.7101 19.2188 19.7101 19.316 19.7101C20.0411 19.7101 20.7587 19.7026 21.4838 19.7101C22.0145 19.7177 22.3061 20.0571 22.179 20.4946C22.1042 20.7511 21.88 20.9246 21.5586 20.9246C20.527 20.9321 19.5029 20.9321 18.4713 20.9246C18.0453 20.917 17.7986 20.6606 17.7986 20.2306C17.7911 18.8728 17.7911 17.5151 17.7986 16.1649C17.7986 15.7651 18.0602 15.4935 18.3966 15.486C18.733 15.4785 18.9946 15.75 18.9946 16.1573C19.0021 17.2209 19.0021 18.2845 19.0021 19.3556C18.9946 19.4612 18.9946 19.5668 18.9946 19.7101Z" fill="#BFBFBF"/>
</svg>
