<svg width="44" height="41" viewBox="0 0 44 41" fill="none" xmlns="http://www.w3.org/2000/svg">
<g clip-path="url(#clip0_1_29486)">
<path d="M22.0187 3.65077C23.1956 2.53969 24.5319 1.67281 26.0276 1.12337C30.3675 -0.488302 34.6339 -0.488302 38.6919 1.917C41.6832 3.69961 43.3383 6.43457 43.8409 9.85327C44.4294 13.9679 43.4364 17.814 41.5851 21.4524C39.1332 26.2753 35.725 30.3899 31.8877 34.1627C29.8036 36.2139 27.5968 38.1064 25.2675 39.8646C23.3182 41.342 20.7927 41.3908 18.8434 39.9256C14.3809 36.568 10.3597 32.7586 6.91475 28.3631C4.53637 25.3351 2.42771 22.124 1.1527 18.4489C0.245484 15.8116 -0.195864 13.1132 0.0983681 10.3172C0.588756 5.5921 3.66594 1.88037 8.34914 0.598357C12.8239 -0.622608 17.0413 0.0611325 20.8785 2.72284C21.2586 2.99145 21.6019 3.3089 22.0187 3.65077ZM22.0064 8.55905C21.6877 8.08287 21.3812 7.66775 21.1115 7.2282C20.5843 6.39794 19.9713 5.64094 19.1499 5.0793C16.3302 3.10134 13.1917 2.52748 9.85708 3.22343C5.99528 4.02927 3.64142 6.53225 3.05295 10.4027C2.70968 12.6737 3.13877 14.8836 3.80079 17.057C4.73253 20.085 6.37533 22.7345 8.2388 25.2496C11.7083 29.987 15.9011 34.0162 20.572 37.5692C21.516 38.2896 22.5949 38.2896 23.5144 37.5081C25.4759 35.8598 27.4865 34.2482 29.35 32.5022C32.9666 29.0957 36.1418 25.3229 38.5447 20.9518C40.2611 17.814 41.3154 14.4807 41.0212 10.8545C40.776 7.81426 39.3294 5.48222 36.5832 4.05369C34.119 2.78388 31.5077 2.674 28.8596 3.28448C26.2483 3.88275 24.0661 5.16477 22.693 7.55786C22.4846 7.88752 22.2516 8.19276 22.0064 8.55905Z" fill="white"/>
</g>
<defs>
<clipPath id="clip0_1_29486">
<rect width="44" height="41" fill="white"/>
</clipPath>
</defs>
</svg>
