<svg width="25" height="25" viewBox="0 0 25 25" fill="none" xmlns="http://www.w3.org/2000/svg">
<path d="M4.17478 1.66436C4.13304 1.14424 4.17478 0.672677 4.57139 0.325936C4.81492 0.110957 5.10019 0 5.42722 0C6.21347 0.00693481 6.58224 0.485437 6.67965 1.64355C10.5552 1.64355 14.4239 1.64355 18.3343 1.64355C18.3343 1.50485 18.3343 1.37309 18.3343 1.2344C18.3412 0.540915 18.8839 0 19.5728 0C20.2755 0 20.8252 0.533981 20.8322 1.24133C20.8322 1.37309 20.8322 1.49792 20.8322 1.65742C20.9783 1.65742 21.1035 1.65742 21.2288 1.65742C22.0637 1.65742 22.8987 1.65742 23.7267 1.65742C24.4573 1.65742 24.993 2.1914 24.993 2.91956C24.993 9.00139 24.993 15.0832 24.993 21.165C24.993 21.8863 24.4503 22.4202 23.7197 22.4202C20.7626 22.4202 17.7985 22.4202 14.8414 22.4133C14.6326 22.4133 14.5143 22.4827 14.41 22.656C14.0342 23.2802 13.6515 23.8904 13.2549 24.5076C12.8375 25.1595 12.1347 25.1595 11.7242 24.5076C11.3276 23.8904 10.9379 23.2663 10.5622 22.6352C10.4648 22.4757 10.3604 22.4202 10.1726 22.4202C7.23629 22.4272 4.30699 22.4272 1.37072 22.4272C0.500974 22.4272 0 21.9279 0 21.061C0 15.0485 0 9.03606 0 3.02358C0 2.15673 0.500974 1.66436 1.37768 1.66436C2.29613 1.66436 3.21458 1.66436 4.17478 1.66436ZM12.5174 24.147C13.1297 23.1415 13.7281 22.1914 14.2986 21.2275C15.6067 19.0083 16.8592 16.7614 17.7776 14.3481C18.2021 13.2386 18.5013 12.1082 18.216 10.9085C17.6315 8.48128 16.1425 6.8932 13.6863 6.38003C11.2928 5.88072 9.29585 6.67822 7.8138 8.61304C6.86056 9.85437 6.47092 11.2968 6.77011 12.8641C6.97189 13.9112 7.39633 14.889 7.83468 15.853C9.12886 18.6893 10.7222 21.3592 12.3852 23.9875C12.42 24.0222 12.4548 24.0638 12.5174 24.147ZM16.4904 19.1054C16.6087 19.1054 16.6922 19.1054 16.7687 19.1054C19.037 19.1054 21.2984 19.1054 23.5667 19.1054C24.0398 19.1054 24.172 18.9736 24.172 18.509C24.172 14.9307 24.172 11.3454 24.172 7.76699C24.172 7.67684 24.172 7.58668 24.172 7.50347C21.8898 7.50347 19.6424 7.50347 17.3671 7.50347C17.4297 7.57975 17.4715 7.62136 17.5132 7.6699C18.9953 9.45215 19.5589 11.4424 18.8909 13.7101C18.5152 14.9931 17.9655 16.1997 17.3741 17.3925C17.0888 17.9473 16.7965 18.5021 16.4904 19.1054ZM0.827999 7.4896C0.827999 7.59362 0.827999 7.69071 0.827999 7.78086C0.827999 11.3454 0.827999 14.9098 0.827999 18.4743C0.827999 18.9806 0.953242 19.1054 1.45422 19.1054C3.70164 19.1054 5.94907 19.1054 8.19649 19.1054C8.28695 19.1054 8.3774 19.1054 8.50264 19.1054C8.43306 18.9667 8.38436 18.8696 8.33565 18.7725C7.71639 17.4549 7.07626 16.1442 6.49179 14.8058C6.14389 14.0153 5.88645 13.1831 5.83774 12.3093C5.75424 10.7906 6.1926 9.41054 7.08322 8.16921C7.25021 7.94036 7.43112 7.72538 7.62594 7.48266C5.35764 7.4896 3.11717 7.4896 0.827999 7.4896ZM0.834957 6.63662C0.911495 6.64355 0.953242 6.64355 0.99499 6.64355C3.48594 6.64355 5.9769 6.64355 8.46785 6.63662C8.58614 6.63662 8.71834 6.5742 8.81575 6.50485C11.0353 5.0208 13.9786 5.0208 16.1982 6.50485C16.3164 6.58807 16.4834 6.63662 16.6296 6.63662C19.0509 6.64355 21.4723 6.64355 23.8937 6.64355C23.9841 6.64355 24.0746 6.64355 24.179 6.64355C24.179 5.38141 24.1859 4.16782 24.179 2.9473C24.179 2.64216 23.9981 2.49653 23.671 2.4896C22.9961 2.4896 22.3142 2.4896 21.6393 2.4896C21.3819 2.4896 21.1244 2.4896 20.867 2.4896C20.867 2.78086 20.867 3.04438 20.867 3.32178C21.02 3.32178 21.1592 3.32178 21.2984 3.32178C21.9802 3.33564 22.516 3.89043 22.516 4.58391C22.509 5.25659 21.9733 5.80444 21.2984 5.81137C20.1712 5.81831 19.044 5.81831 17.9168 5.81137C17.2279 5.80444 16.6922 5.24965 16.6922 4.56311C16.6922 3.87656 17.2349 3.33564 17.9307 3.32871C18.0699 3.32871 18.2021 3.32871 18.3412 3.32871C18.3412 3.03745 18.3412 2.77393 18.3412 2.51734C14.4517 2.51734 10.5761 2.51734 6.70053 2.51734C6.70053 2.79473 6.70053 3.05132 6.70053 3.32871C6.84665 3.32871 6.98581 3.32871 7.12497 3.32871C7.8138 3.33564 8.35653 3.8835 8.35653 4.57698C8.35653 5.26352 7.8138 5.81831 7.12497 5.81831C6.00473 5.82524 4.8845 5.82524 3.76426 5.81831C3.06151 5.81831 2.51879 5.25659 2.52574 4.55617C2.50487 3.86963 3.04759 3.32871 3.75035 3.32178C3.88255 3.32178 4.02171 3.32178 4.14695 3.32178C4.14695 3.02358 4.14695 2.76006 4.14695 2.4896C3.17979 2.4896 2.23351 2.48266 1.28723 2.4896C1.00891 2.4896 0.834957 2.65603 0.834957 2.91956C0.827999 4.15395 0.834957 5.38141 0.834957 6.63662ZM9.92903 21.595C9.62984 21.0749 9.35847 20.6103 9.10103 20.1318C9.01753 19.9723 8.91316 19.9237 8.73921 19.9237C6.38742 19.9307 4.03562 19.9307 1.68383 19.9307C1.41247 19.9307 1.13415 19.9307 0.834957 19.9307C0.834957 20.2566 0.834957 20.6172 0.834957 20.9778C0.834957 21.4632 0.9602 21.595 1.44726 21.595C4.17478 21.595 6.89535 21.595 9.62288 21.595C9.70637 21.595 9.78987 21.595 9.92903 21.595ZM24.165 19.9307C23.6571 19.9307 23.184 19.9307 22.7039 19.9307C20.5539 19.9307 18.4038 19.9307 16.2469 19.9307C16.1564 19.9307 16.0242 19.9376 15.9894 19.9931C15.6763 20.5062 15.3841 21.0333 15.0849 21.5534C15.1266 21.5742 15.1406 21.5881 15.1545 21.5881C18.0072 21.5881 20.86 21.595 23.7197 21.5881C23.9841 21.5881 24.1511 21.4216 24.1581 21.172C24.172 20.749 24.165 20.3259 24.165 19.9307ZM4.99583 2.46879C4.99583 2.86408 4.99583 3.25936 4.99583 3.66158C4.99583 3.95978 5.16977 4.15395 5.4133 4.15395C5.65683 4.15395 5.83078 3.95978 5.83078 3.66158C5.83774 2.88488 5.83774 2.10818 5.83078 1.33148C5.83078 1.03329 5.65683 0.839112 5.4133 0.839112C5.16977 0.839112 5.00278 1.03329 4.99583 1.33148C4.99583 1.70596 4.99583 2.08738 4.99583 2.46879ZM19.9972 2.4896C19.9972 2.10125 19.9972 1.7129 19.9972 1.32455C19.9972 1.02635 19.8233 0.832178 19.5797 0.832178C19.3362 0.832178 19.1623 1.02635 19.1623 1.32455C19.1623 2.10125 19.1623 2.87795 19.1623 3.65465C19.1623 3.95284 19.3362 4.14702 19.5797 4.14702C19.8233 4.14702 19.9903 3.95284 19.9972 3.65465C20.0042 3.2663 19.9972 2.87795 19.9972 2.4896ZM5.7612 4.98613C6.1926 4.98613 6.62399 4.99307 7.06234 4.98613C7.29196 4.9792 7.47982 4.81276 7.49374 4.61165C7.50765 4.41054 7.4172 4.23024 7.21542 4.2025C6.99972 4.17476 6.66574 4.14702 6.58224 4.26491C6.35263 4.57004 6.11606 4.81969 5.7612 4.98613ZM19.9207 4.98613C20.359 4.98613 20.8043 4.99307 21.2427 4.9792C21.4653 4.97226 21.6184 4.83356 21.6463 4.61165C21.6741 4.39667 21.5628 4.2233 21.354 4.18863C21.1453 4.15395 20.867 4.02219 20.7208 4.26491C20.526 4.58391 20.2825 4.82663 19.9207 4.98613ZM5.02366 4.98613C4.82188 4.81276 4.52964 4.66713 4.4044 4.43135C4.24436 4.13315 4.03562 4.14702 3.7921 4.16089C3.53465 4.17476 3.34679 4.34813 3.33983 4.57004C3.33983 4.79889 3.52073 4.9792 3.77818 4.98613C4.20957 4.99307 4.64097 4.98613 5.02366 4.98613ZM19.1901 4.98613C18.9883 4.81969 18.6961 4.681 18.5778 4.45215C18.4178 4.14702 18.209 4.14008 17.9516 4.15395C17.6941 4.16782 17.5063 4.34813 17.4993 4.57004C17.4993 4.79889 17.6802 4.9792 17.9446 4.98613C18.376 4.99307 18.8074 4.98613 19.1901 4.98613Z" fill="white"/>
<path d="M12.5104 9.14016C14.1316 9.1471 15.4189 10.4439 15.4119 12.0736C15.4119 13.6686 14.1038 14.9585 12.4826 14.9515C10.8614 14.9446 9.57417 13.6478 9.58113 12.0181C9.58809 10.4162 10.8962 9.13323 12.5104 9.14016ZM12.5035 9.96541C11.3624 9.96541 10.4161 10.9085 10.4161 12.0459C10.4161 13.1693 11.3554 14.1124 12.4826 14.1194C13.6307 14.1263 14.5909 13.1762 14.5839 12.025C14.577 10.9085 13.6307 9.96541 12.5035 9.96541Z" fill="white"/>
</svg>
