<svg width="16" height="16" viewBox="0 0 16 16" fill="none" xmlns="http://www.w3.org/2000/svg">
<path d="M13.6099 2.35382C12.3035 1.03697 10.5793 0.217847 8.73459 0.037665C6.88983 -0.142517 5.04011 0.327537 3.50432 1.36679C1.96852 2.40604 0.842896 3.94936 0.321503 5.73068C-0.199891 7.512 -0.0843794 9.41969 0.648123 11.1249C0.724469 11.2833 0.749519 11.4617 0.719779 11.6352L0.0191432 15.008C-0.00785019 15.1374 -0.00233808 15.2714 0.0351843 15.398C0.0727066 15.5247 0.141063 15.64 0.234111 15.7336C0.310388 15.8095 0.401208 15.8691 0.501096 15.9088C0.600984 15.9485 0.707873 15.9676 0.81532 15.9649H0.974555L4.38219 15.2791C4.55538 15.2583 4.73101 15.283 4.89174 15.3509C6.59437 16.0845 8.49921 16.2002 10.2779 15.678C12.0565 15.1558 13.5976 14.0285 14.6353 12.4904C15.673 10.9524 16.1423 9.09986 15.9624 7.25235C15.7825 5.40484 14.9646 3.67808 13.6497 2.36977L13.6099 2.35382ZM4.7962 8.78858C4.63873 8.78858 4.4848 8.74181 4.35387 8.6542C4.22294 8.56658 4.12089 8.44205 4.06063 8.29635C4.00037 8.15065 3.9846 7.99032 4.01533 7.83565C4.04605 7.68098 4.12187 7.5389 4.23322 7.42739C4.34457 7.31587 4.48643 7.23993 4.64088 7.20916C4.79532 7.1784 4.95541 7.19419 5.10089 7.25454C5.24637 7.31489 5.37072 7.41709 5.4582 7.54822C5.54569 7.67934 5.59238 7.83351 5.59238 7.99121C5.59238 8.20268 5.5085 8.4055 5.35919 8.55503C5.20987 8.70457 5.00736 8.78858 4.7962 8.78858ZM7.98091 8.78858C7.82344 8.78858 7.66951 8.74181 7.53858 8.6542C7.40765 8.56658 7.3056 8.44205 7.24534 8.29635C7.18508 8.15065 7.16931 7.99032 7.20003 7.83565C7.23075 7.68098 7.30658 7.5389 7.41793 7.42739C7.52928 7.31587 7.67114 7.23993 7.82558 7.20916C7.98003 7.1784 8.14011 7.19419 8.28559 7.25454C8.43108 7.31489 8.55542 7.41709 8.64291 7.54822C8.73039 7.67934 8.77709 7.83351 8.77709 7.99121C8.77709 8.20268 8.6932 8.4055 8.54389 8.55503C8.39458 8.70457 8.19207 8.78858 7.98091 8.78858ZM11.1656 8.78858C11.0081 8.78858 10.8542 8.74181 10.7233 8.6542C10.5924 8.56658 10.4903 8.44205 10.43 8.29635C10.3698 8.15065 10.354 7.99032 10.3847 7.83565C10.4155 7.68098 10.4913 7.5389 10.6026 7.42739C10.714 7.31587 10.8558 7.23993 11.0103 7.20916C11.1647 7.1784 11.3248 7.19419 11.4703 7.25454C11.6158 7.31489 11.7401 7.41709 11.8276 7.54822C11.9151 7.67934 11.9618 7.83351 11.9618 7.99121C11.9618 8.20268 11.8779 8.4055 11.7286 8.55503C11.5793 8.70457 11.3768 8.78858 11.1656 8.78858Z" fill="#54D2E0"/>
</svg>
