<svg width="20" height="22" viewBox="0 0 20 22" fill="none" xmlns="http://www.w3.org/2000/svg">
<path d="M13.7502 2.56V1C13.7502 0.59 13.4102 0.25 13.0002 0.25C12.5902 0.25 12.2502 0.59 12.2502 1V2.5H5.75023V1C5.75023 0.59 5.41023 0.25 5.00023 0.25C4.59023 0.25 4.25023 0.59 4.25023 1V2.56C1.55023 2.81 0.240229 4.42 0.0402292 6.81C0.0202292 7.1 0.260229 7.34 0.540229 7.34H17.4602C17.7502 7.34 17.9902 7.09 17.9602 6.81C17.7602 4.42 16.4502 2.81 13.7502 2.56Z" fill="#54D2E0"/>
<path d="M17 8.83984H1C0.45 8.83984 0 9.28984 0 9.83984V15.9998C0 18.9998 1.5 20.9998 5 20.9998H9.93C10.62 20.9998 11.1 20.3298 10.88 19.6798C10.68 19.0998 10.51 18.4598 10.51 17.9998C10.51 14.9698 12.98 12.4998 16.01 12.4998C16.3 12.4998 16.59 12.5198 16.87 12.5698C17.47 12.6598 18.01 12.1898 18.01 11.5898V9.84984C18 9.28984 17.55 8.83984 17 8.83984ZM6.21 16.7098C6.11 16.7998 6 16.8698 5.88 16.9198C5.76 16.9698 5.63 16.9998 5.5 16.9998C5.37 16.9998 5.24 16.9698 5.12 16.9198C5 16.8698 4.89 16.7998 4.79 16.7098C4.61 16.5198 4.5 16.2598 4.5 15.9998C4.5 15.9398 4.51 15.8698 4.52 15.8098C4.53 15.7398 4.55 15.6798 4.58 15.6198C4.6 15.5598 4.63 15.4998 4.67 15.4398C4.7 15.3898 4.75 15.3398 4.79 15.2898C4.89 15.1998 5 15.1298 5.12 15.0798C5.36 14.9798 5.64 14.9798 5.88 15.0798C6 15.1298 6.11 15.1998 6.21 15.2898C6.25 15.3398 6.3 15.3898 6.33 15.4398C6.37 15.4998 6.4 15.5598 6.42 15.6198C6.45 15.6798 6.47 15.7398 6.48 15.8098C6.49 15.8698 6.5 15.9398 6.5 15.9998C6.5 16.2598 6.39 16.5198 6.21 16.7098ZM6.21 13.2098C6.11 13.2998 6 13.3698 5.88 13.4198C5.76 13.4698 5.63 13.4998 5.5 13.4998C5.37 13.4998 5.24 13.4698 5.12 13.4198C4.99 13.3698 4.89 13.2998 4.79 13.2098C4.61 13.0198 4.5 12.7598 4.5 12.4998C4.5 12.2398 4.61 11.9798 4.79 11.7898C4.89 11.6998 5 11.6298 5.12 11.5798C5.36 11.4798 5.64 11.4798 5.88 11.5798C6 11.6298 6.11 11.6998 6.21 11.7898C6.25 11.8398 6.3 11.8898 6.33 11.9398C6.37 11.9998 6.4 12.0598 6.42 12.1198C6.45 12.1798 6.47 12.2398 6.48 12.2998C6.49 12.3698 6.5 12.4398 6.5 12.4998C6.5 12.7598 6.39 13.0198 6.21 13.2098ZM9.71 13.2098C9.52 13.3898 9.27 13.4998 9 13.4998C8.87 13.4998 8.74 13.4698 8.62 13.4198C8.49 13.3698 8.39 13.2998 8.29 13.2098C8.11 13.0198 8 12.7598 8 12.4998C8 12.4398 8.01 12.3698 8.02 12.2998C8.03 12.2398 8.05 12.1798 8.08 12.1198C8.1 12.0598 8.13 11.9998 8.17 11.9398C8.21 11.8898 8.25 11.8398 8.29 11.7898C8.66 11.4198 9.33 11.4198 9.71 11.7898C9.75 11.8398 9.79 11.8898 9.83 11.9398C9.87 11.9998 9.9 12.0598 9.92 12.1198C9.95 12.1798 9.97 12.2398 9.98 12.2998C9.99 12.3698 10 12.4398 10 12.4998C10 12.7598 9.89 13.0198 9.71 13.2098Z" fill="#54D2E0"/>
<path d="M18.83 15.17C17.27 13.61 14.73 13.61 13.17 15.17C11.61 16.73 11.61 19.27 13.17 20.83C14.73 22.39 17.27 22.39 18.83 20.83C20.39 19.27 20.39 16.73 18.83 15.17ZM18.07 18.56C17.94 18.7 17.75 18.78 17.54 18.78H16.8V19.56C16.8 19.77 16.72 19.95 16.58 20.09C16.44 20.23 16.26 20.31 16.05 20.31C15.64 20.31 15.3 19.97 15.3 19.56V18.78H14.55C14.14 18.78 13.8 18.45 13.8 18.03C13.8 17.62 14.14 17.28 14.55 17.28H15.3V16.57C15.3 16.16 15.63 15.82 16.05 15.82C16.46 15.82 16.8 16.16 16.8 16.57V17.28H17.54C17.96 17.28 18.29 17.62 18.29 18.03C18.29 18.24 18.21 18.43 18.07 18.56Z" fill="#54D2E0"/>
</svg>
