<svg width="42" height="41" viewBox="0 0 42 41" fill="none" xmlns="http://www.w3.org/2000/svg">
<ellipse cx="20.6835" cy="20.5001" rx="20.0978" ry="19.919" fill="white"/>
<path d="M20.684 0C9.27897 0 0 9.19642 0 20.5C0 31.8036 9.27897 41 20.684 41C32.0891 41 41.368 31.8036 41.368 20.5C41.368 9.19642 32.0891 0 20.684 0ZM20.684 33.1154C18.6057 33.1154 16.9529 32.2422 16.7312 30.3972C16.7253 30.342 16.7312 30.2863 16.7486 30.2336C16.7659 30.1808 16.7943 30.1323 16.8318 30.0912C16.8694 30.0501 16.9152 30.0173 16.9664 29.995C17.0176 29.9726 17.073 29.9612 17.129 29.9615H24.2341C24.2906 29.9611 24.3466 29.9727 24.3982 29.9954C24.4499 30.0181 24.4961 30.0514 24.5337 30.0932C24.5713 30.135 24.5996 30.1842 24.6165 30.2376C24.6334 30.2911 24.6387 30.3475 24.6319 30.4031C24.3783 32.2136 22.7405 33.1154 20.684 33.1154ZM30.4294 28.3846H10.9387C9.76127 28.3846 9.1487 26.9062 9.82591 26.1178C11.4498 24.2117 12.5974 23.4104 12.5974 18.1543C12.5974 13.3378 15.157 11.6288 17.2712 10.795C17.4166 10.7349 17.5478 10.6453 17.6562 10.5319C17.7647 10.4185 17.8479 10.2839 17.9006 10.1367C18.2676 8.92933 19.3058 7.88462 20.684 7.88462C22.0623 7.88462 23.0985 8.92933 23.4684 10.1376C23.5215 10.2848 23.6049 10.4194 23.7135 10.5328C23.8221 10.6462 23.9533 10.7358 24.0989 10.796C26.2081 11.6278 28.7727 13.3398 28.7727 18.1553C28.7727 23.4114 29.9192 24.2127 31.5431 26.1188C32.2134 26.9063 31.5998 28.3846 30.4294 28.3846Z" fill="#54D2E0"/>
<ellipse cx="29.3934" cy="13.1964" rx="4.6895" ry="4.64777" fill="#FAB447"/>
</svg>
