<svg width="16" height="13" viewBox="0 0 16 13" fill="none" xmlns="http://www.w3.org/2000/svg">
<path d="M8.80194 3.28664V0.811516C8.80194 0.596288 8.88624 0.389876 9.0363 0.237687C9.18636 0.0854987 9.38988 0 9.6021 0C9.81201 0.000896418 10.0132 0.0854167 10.1622 0.235339L15.7633 5.91595C15.8383 5.99139 15.8978 6.08114 15.9385 6.18003C15.9791 6.27892 16 6.38499 16 6.49212C16 6.59925 15.9791 6.70532 15.9385 6.80421C15.8978 6.90311 15.8383 6.99286 15.7633 7.0683L10.1622 12.7489C10.0499 12.8606 9.90759 12.9362 9.75312 12.9663C9.59866 12.9964 9.43887 12.9797 9.29372 12.9182C9.14858 12.8567 9.02452 12.7532 8.93705 12.6206C8.84959 12.4881 8.80259 12.3323 8.80194 12.1727V9.65703H8.12181C6.85762 9.63791 5.60447 9.89803 4.44935 10.4193C3.29422 10.9406 2.26478 11.7106 1.43249 12.6759C1.33218 12.8113 1.19261 12.9115 1.03334 12.9624C0.874063 13.0134 0.703065 13.0125 0.544311 12.9599C0.382754 12.9046 0.242837 12.7984 0.144961 12.6568C0.0470848 12.5152 -0.0036335 12.3456 0.000203133 12.1727C0.000203133 4.77171 6.46548 3.50575 8.80194 3.28664ZM8.12181 8.01777C8.65699 8.01608 9.19166 8.05132 9.72212 8.12327C9.91155 8.15242 10.0844 8.24953 10.2092 8.39697C10.334 8.5444 10.4025 8.73235 10.4023 8.92667V10.217L14.067 6.49212L10.4023 2.76727V4.05758C10.4023 4.27281 10.318 4.47922 10.1679 4.63141C10.0178 4.78359 9.81431 4.86909 9.6021 4.86909C8.87395 4.86909 3.11282 5.0314 1.86457 10.0871C3.67637 8.73236 5.87083 8.00662 8.12181 8.01777Z" fill="#A4A4A4"/>
</svg>
