<svg width="66" height="58" viewBox="0 0 66 58" fill="none" xmlns="http://www.w3.org/2000/svg">
<path d="M34.3324 56.5854L32.4576 57.0865C31.019 57.4691 29.501 56.9154 28.6564 55.7005L20.6312 44.2557L34.122 45.6943L36.6826 51.7931C37.5004 53.7731 36.4052 56.0305 34.3324 56.5854ZM8.28921 20.4297L3.93321 21.6043C1.10861 22.3695 -0.581608 25.2735 0.184611 28.0991L2.94321 38.3951C3.69602 41.2197 6.60002 42.8965 9.43803 42.1303L13.794 40.9691L8.28921 20.4297ZM51.6987 41.1702L41.0201 1.31133C40.6994 0.111986 39.2752 -0.390233 38.2728 0.339892L12.1121 19.4118L17.6138 39.9441L49.8053 43.3822C51.0387 43.5142 52.0204 42.3665 51.6987 41.1702ZM53.3188 8.16399C53.0177 8.16399 52.7155 8.08768 52.4371 7.92681C51.5914 7.43902 51.3027 6.35827 51.7905 5.51368L54.3449 1.09064C54.8316 0.243986 55.9155 -0.0447644 56.758 0.444049C57.6036 0.93183 57.8924 2.01258 57.4046 2.85718L54.8502 7.28021C54.5223 7.8474 53.9283 8.16399 53.3188 8.16399ZM55.8412 20.4658C55.0606 20.4658 54.3469 19.945 54.1355 19.1561C53.8839 18.2135 54.4428 17.2452 55.3854 16.9915L60.3189 15.6705C61.2666 15.4188 62.2309 15.9757 62.4845 16.9203C62.7362 17.8629 62.1772 18.8313 61.2347 19.0849L56.3012 20.406C56.1454 20.4472 55.9928 20.4658 55.8412 20.4658ZM64.2315 34.9353C63.9304 34.9353 63.6282 34.859 63.3498 34.6981L58.9267 32.1437C58.0811 31.6559 57.7924 30.5751 58.2801 29.7305C58.7679 28.8839 59.8507 28.5951 60.6933 29.084L65.1163 31.6384C65.9619 32.1261 66.2507 33.2069 65.7629 34.0515C65.436 34.6187 64.841 34.9353 64.2315 34.9353Z" fill="white"/>
</svg>
