<svg width="12" height="12" viewBox="0 0 12 12" fill="none" xmlns="http://www.w3.org/2000/svg">
<path d="M7.04257 0.8674L8.10014 2.99672C8.24265 3.2912 8.62518 3.57058 8.9477 3.63099L10.8603 3.94812C12.0829 4.15199 12.3679 5.04299 11.4904 5.93398L9.99777 7.43659C9.75026 7.68577 9.60775 8.17657 9.69025 8.53146L10.1178 10.3889C10.4553 11.8538 9.67525 12.4277 8.39266 11.6575L6.60004 10.5853C6.27752 10.389 5.73748 10.389 5.41496 10.5853L3.62234 11.6575C2.33975 12.4201 1.5597 11.8538 1.89722 10.3889L2.32475 8.53146C2.39225 8.16902 2.24974 7.67822 2.00223 7.42904L0.509625 5.92643C-0.367935 5.04299 -0.0829153 4.15199 1.13967 3.94057L3.0523 3.62344C3.37482 3.57058 3.75735 3.28365 3.89986 2.98917L4.95743 0.859849C5.53497 -0.287872 6.46503 -0.287872 7.04257 0.8674Z" fill="#48B3EF"/>
</svg>
