<svg width="19" height="19" viewBox="0 0 19 19" fill="none" xmlns="http://www.w3.org/2000/svg">
<path d="M10.1786 0H2.03571C1.49581 0 0.978017 0.214476 0.596247 0.596247C0.214476 0.978017 0 1.49581 0 2.03571V18.3214C0 18.5014 0.0714921 18.674 0.198749 18.8013C0.326006 18.9285 0.498603 19 0.678571 19H4.07143V14.25C4.07143 14.07 4.14292 13.8974 4.27018 13.7702C4.39743 13.6429 4.57003 13.5714 4.75 13.5714H7.46429C7.64425 13.5714 7.81685 13.6429 7.94411 13.7702C8.07136 13.8974 8.14286 14.07 8.14286 14.25V19H12.2143V2.03571C12.2143 1.49581 11.9998 0.978017 11.618 0.596247C11.2363 0.214476 10.7185 0 10.1786 0ZM4.75 11.5357H3.39286C3.21289 11.5357 3.04029 11.4642 2.91303 11.337C2.78578 11.2097 2.71429 11.0371 2.71429 10.8571C2.71429 10.6772 2.78578 10.5046 2.91303 10.3773C3.04029 10.2501 3.21289 10.1786 3.39286 10.1786H4.75C4.92997 10.1786 5.10257 10.2501 5.22982 10.3773C5.35708 10.5046 5.42857 10.6772 5.42857 10.8571C5.42857 11.0371 5.35708 11.2097 5.22982 11.337C5.10257 11.4642 4.92997 11.5357 4.75 11.5357ZM4.75 8.14286H3.39286C3.21289 8.14286 3.04029 8.07136 2.91303 7.94411C2.78578 7.81685 2.71429 7.64425 2.71429 7.46429C2.71429 7.28432 2.78578 7.11172 2.91303 6.98446C3.04029 6.85721 3.21289 6.78571 3.39286 6.78571H4.75C4.92997 6.78571 5.10257 6.85721 5.22982 6.98446C5.35708 7.11172 5.42857 7.28432 5.42857 7.46429C5.42857 7.64425 5.35708 7.81685 5.22982 7.94411C5.10257 8.07136 4.92997 8.14286 4.75 8.14286ZM4.75 4.75H3.39286C3.21289 4.75 3.04029 4.67851 2.91303 4.55125C2.78578 4.42399 2.71429 4.2514 2.71429 4.07143C2.71429 3.89146 2.78578 3.71886 2.91303 3.59161C3.04029 3.46435 3.21289 3.39286 3.39286 3.39286H4.75C4.92997 3.39286 5.10257 3.46435 5.22982 3.59161C5.35708 3.71886 5.42857 3.89146 5.42857 4.07143C5.42857 4.2514 5.35708 4.42399 5.22982 4.55125C5.10257 4.67851 4.92997 4.75 4.75 4.75ZM8.82143 11.5357H7.46429C7.28432 11.5357 7.11172 11.4642 6.98446 11.337C6.85721 11.2097 6.78571 11.0371 6.78571 10.8571C6.78571 10.6772 6.85721 10.5046 6.98446 10.3773C7.11172 10.2501 7.28432 10.1786 7.46429 10.1786H8.82143C9.0014 10.1786 9.17399 10.2501 9.30125 10.3773C9.42851 10.5046 9.5 10.6772 9.5 10.8571C9.5 11.0371 9.42851 11.2097 9.30125 11.337C9.17399 11.4642 9.0014 11.5357 8.82143 11.5357ZM8.82143 8.14286H7.46429C7.28432 8.14286 7.11172 8.07136 6.98446 7.94411C6.85721 7.81685 6.78571 7.64425 6.78571 7.46429C6.78571 7.28432 6.85721 7.11172 6.98446 6.98446C7.11172 6.85721 7.28432 6.78571 7.46429 6.78571H8.82143C9.0014 6.78571 9.17399 6.85721 9.30125 6.98446C9.42851 7.11172 9.5 7.28432 9.5 7.46429C9.5 7.64425 9.42851 7.81685 9.30125 7.94411C9.17399 8.07136 9.0014 8.14286 8.82143 8.14286ZM8.82143 4.75H7.46429C7.28432 4.75 7.11172 4.67851 6.98446 4.55125C6.85721 4.42399 6.78571 4.2514 6.78571 4.07143C6.78571 3.89146 6.85721 3.71886 6.98446 3.59161C7.11172 3.46435 7.28432 3.39286 7.46429 3.39286H8.82143C9.0014 3.39286 9.17399 3.46435 9.30125 3.59161C9.42851 3.71886 9.5 3.89146 9.5 4.07143C9.5 4.2514 9.42851 4.42399 9.30125 4.55125C9.17399 4.67851 9.0014 4.75 8.82143 4.75Z" fill="#54D2E0"/>
<path d="M16.9641 3.39307H13.5713V6.78592H15.607C15.787 6.78592 15.9596 6.85742 16.0868 6.98467C16.2141 7.11193 16.2856 7.28453 16.2856 7.46449C16.2856 7.64446 16.2141 7.81706 16.0868 7.94432C15.9596 8.07157 15.787 8.14307 15.607 8.14307H13.5713V10.1788H15.607C15.787 10.1788 15.9596 10.2503 16.0868 10.3775C16.2141 10.5048 16.2856 10.6774 16.2856 10.8574C16.2856 11.0373 16.2141 11.2099 16.0868 11.3372C15.9596 11.4644 15.787 11.5359 15.607 11.5359H13.5713V13.5716H15.607C15.787 13.5716 15.9596 13.6431 16.0868 13.7704C16.2141 13.8976 16.2856 14.0702 16.2856 14.2502C16.2856 14.4302 16.2141 14.6028 16.0868 14.73C15.9596 14.8573 15.787 14.9288 15.607 14.9288H13.5713V19.0002H18.3213C18.5013 19.0002 18.6739 18.9287 18.8011 18.8015C18.9284 18.6742 18.9999 18.5016 18.9999 18.3216V5.42878C18.9999 4.88888 18.7854 4.37108 18.4036 3.98931C18.0218 3.60754 17.5041 3.39307 16.9641 3.39307Z" fill="#54D2E0"/>
</svg>
