<svg width="20" height="21" viewBox="0 0 20 21" fill="none" xmlns="http://www.w3.org/2000/svg">
<path d="M15.5349 5.77C15.4649 5.76 15.3949 5.76 15.3249 5.77C13.7749 5.72 12.5449 4.45 12.5449 2.89C12.5449 1.3 13.8349 0 15.4349 0C17.0249 0 18.3249 1.29 18.3249 2.89C18.3149 4.45 17.0849 5.72 15.5349 5.77Z" fill="#54D2E0"/>
<path d="M18.7945 12.6999C17.6745 13.4499 16.1045 13.7299 14.6545 13.5399C15.0345 12.7199 15.2345 11.8099 15.2445 10.8499C15.2445 9.84992 15.0245 8.89991 14.6045 8.06991C16.0845 7.86991 17.6545 8.14991 18.7845 8.89991C20.3645 9.93991 20.3645 11.6499 18.7945 12.6999Z" fill="#54D2E0"/>
<path d="M4.44504 5.77C4.51504 5.76 4.58504 5.76 4.65504 5.77C6.20504 5.72 7.43504 4.45 7.43504 2.89C7.43504 1.29 6.14504 0 4.54504 0C2.95504 0 1.66504 1.29 1.66504 2.89C1.66504 4.45 2.89504 5.72 4.44504 5.77Z" fill="#54D2E0"/>
<path d="M4.555 10.8501C4.555 11.8201 4.765 12.7401 5.145 13.5701C3.735 13.7201 2.265 13.4201 1.185 12.7101C-0.395 11.6601 -0.395 9.9501 1.185 8.9001C2.255 8.1801 3.765 7.8901 5.185 8.0501C4.775 8.8901 4.555 9.8401 4.555 10.8501Z" fill="#54D2E0"/>
<path d="M10.1247 13.87C10.0447 13.86 9.95469 13.86 9.86469 13.87C8.02469 13.81 6.55469 12.3 6.55469 10.44C6.56469 8.54 8.09469 7 10.0047 7C11.9047 7 13.4447 8.54 13.4447 10.44C13.4347 12.3 11.9747 13.81 10.1247 13.87Z" fill="#54D2E0"/>
<path d="M6.87469 15.9396C5.36469 16.9496 5.36469 18.6096 6.87469 19.6096C8.59469 20.7596 11.4147 20.7596 13.1347 19.6096C14.6447 18.5996 14.6447 16.9396 13.1347 15.9396C11.4247 14.7896 8.60469 14.7896 6.87469 15.9396Z" fill="#54D2E0"/>
</svg>
