<svg width="20" height="20" viewBox="0 0 20 20" fill="none" xmlns="http://www.w3.org/2000/svg">
<path d="M15.5 2H13.25V0.75C13.25 0.34 12.91 0 12.5 0C12.09 0 11.75 0.34 11.75 0.75V19.25C11.75 19.66 12.09 20 12.5 20C12.91 20 13.25 19.66 13.25 19.25V18H15.5C17.71 18 19.5 16.21 19.5 14V6C19.5 3.79 17.71 2 15.5 2Z" fill="#54D2E0"/>
<path d="M4 2C1.79 2 0 3.79 0 6V14C0 16.21 1.79 18 4 18H9C9.55 18 10 17.55 10 17V3C10 2.45 9.55 2 9 2H4ZM4.17 10.38C4.12 10.5 4.05 10.61 3.96 10.71C3.86 10.8 3.75 10.87 3.63 10.92C3.51 10.97 3.38 11 3.25 11C3.12 11 2.99 10.97 2.87 10.92C2.75 10.87 2.64 10.8 2.54 10.71C2.45 10.61 2.38 10.5 2.32 10.38C2.27 10.26 2.25 10.13 2.25 10C2.25 9.74 2.36 9.48 2.54 9.29C2.59 9.25 2.64 9.21 2.69 9.17C2.75 9.13 2.81 9.1 2.87 9.08C2.93 9.05 2.99 9.03 3.05 9.02C3.39 8.95 3.73 9.06 3.96 9.29C4.14 9.48 4.25 9.74 4.25 10C4.25 10.13 4.22 10.26 4.17 10.38ZM7.67 10.38C7.62 10.5 7.55 10.61 7.46 10.71C7.36 10.8 7.25 10.87 7.13 10.92C7.01 10.97 6.88 11 6.75 11C6.62 11 6.49 10.97 6.37 10.92C6.25 10.87 6.14 10.8 6.04 10.71C5.85 10.52 5.75 10.27 5.75 10C5.75 9.87 5.78 9.74 5.83 9.62C5.88 9.49 5.95 9.39 6.04 9.29C6.41 8.92 7.08 8.92 7.46 9.29C7.64 9.48 7.75 9.74 7.75 10C7.75 10.13 7.72 10.26 7.67 10.38Z" fill="#54D2E0"/>
</svg>
