<svg width="20" height="20" viewBox="0 0 20 20" fill="none" xmlns="http://www.w3.org/2000/svg">
<path d="M13 14.8L13 10.75L6.75 10.75C6.34 10.75 6 10.41 6 10C6 9.59 6.34 9.25 6.75 9.25L13 9.25L13 5.2C13 2 11 -8.74228e-08 7.8 -2.27299e-07L5.21 -3.40512e-07C2 -4.80825e-07 -8.74228e-08 2 -2.27299e-07 5.2L-6.46491e-07 14.79C-7.86368e-07 17.99 2 19.99 5.2 19.99L7.8 19.99C11 20 13 18 13 14.8Z" fill="#54D2E0"/>
<path d="M17.4401 10.7498L15.3701 12.8198C15.2201 12.9698 15.1501 13.1598 15.1501 13.3498C15.1501 13.5398 15.2201 13.7298 15.3701 13.8798C15.6601 14.1698 16.1401 14.1698 16.4301 13.8798L19.7801 10.5298C20.0701 10.2398 20.0701 9.75984 19.7801 9.46984L16.4301 6.11984C16.1401 5.82984 15.6601 5.82984 15.3701 6.11984C15.0801 6.40984 15.0801 6.88984 15.3701 7.17984L17.4401 9.24984L13.0001 9.24984L13.0001 10.7498L17.4401 10.7498Z" fill="#54D2E0"/>
</svg>
