<svg width="40" height="39" viewBox="0 0 40 39" fill="none" xmlns="http://www.w3.org/2000/svg">
<ellipse cx="20" cy="19.5" rx="20" ry="19.5" fill="#54D2E0"/>
<path d="M27.0123 12.9423C25.3794 11.2962 23.2242 10.2723 20.9182 10.0471C18.6123 9.82185 16.3001 10.4094 14.3804 11.7085C12.4607 13.0075 11.0536 14.9367 10.4019 17.1634C9.75014 19.39 9.89453 21.7746 10.8102 23.9061C10.9056 24.1042 10.9369 24.3272 10.8997 24.544L10.0239 28.76C9.99019 28.9217 9.99708 29.0892 10.044 29.2475C10.0909 29.4058 10.1763 29.55 10.2926 29.6671C10.388 29.7619 10.5015 29.8363 10.6264 29.886C10.7512 29.9357 10.8848 29.9595 11.0191 29.9561H11.2182L15.4777 29.0989C15.6942 29.0729 15.9138 29.1038 16.1147 29.1886C18.243 30.1056 20.624 30.2502 22.8473 29.5975C25.0707 28.9448 26.9969 27.5357 28.2941 25.6131C29.5912 23.6904 30.1779 21.3748 29.953 19.0654C29.7281 16.756 28.7057 14.5976 27.0621 12.9622L27.0123 12.9423ZM15.9953 20.9857C15.7984 20.9857 15.606 20.9273 15.4423 20.8177C15.2787 20.7082 15.1511 20.5526 15.0758 20.3704C15.0005 20.1883 14.9808 19.9879 15.0192 19.7946C15.0576 19.6012 15.1523 19.4236 15.2915 19.2842C15.4307 19.1448 15.608 19.0499 15.8011 19.0115C15.9942 18.973 16.1943 18.9927 16.3761 19.0682C16.558 19.1436 16.7134 19.2714 16.8228 19.4353C16.9321 19.5992 16.9905 19.7919 16.9905 19.989C16.9905 20.2534 16.8856 20.5069 16.699 20.6938C16.5123 20.8807 16.2592 20.9857 15.9953 20.9857V20.9857ZM19.9761 20.9857C19.7793 20.9857 19.5869 20.9273 19.4232 20.8177C19.2596 20.7082 19.132 20.5526 19.0567 20.3704C18.9813 20.1883 18.9616 19.9879 19 19.7946C19.0384 19.6012 19.1332 19.4236 19.2724 19.2842C19.4116 19.1448 19.5889 19.0499 19.782 19.0115C19.975 18.973 20.1751 18.9927 20.357 19.0682C20.5388 19.1436 20.6943 19.2714 20.8036 19.4353C20.913 19.5992 20.9714 19.7919 20.9714 19.989C20.9714 20.2534 20.8665 20.5069 20.6799 20.6938C20.4932 20.8807 20.2401 20.9857 19.9761 20.9857ZM23.957 20.9857C23.7602 20.9857 23.5678 20.9273 23.4041 20.8177C23.2404 20.7082 23.1129 20.5526 23.0376 20.3704C22.9622 20.1883 22.9425 19.9879 22.9809 19.7946C23.0193 19.6012 23.1141 19.4236 23.2533 19.2842C23.3925 19.1448 23.5698 19.0499 23.7629 19.0115C23.9559 18.973 24.156 18.9927 24.3379 19.0682C24.5197 19.1436 24.6752 19.2714 24.7845 19.4353C24.8939 19.5992 24.9522 19.7919 24.9522 19.989C24.9522 20.2534 24.8474 20.5069 24.6607 20.6938C24.4741 20.8807 24.221 20.9857 23.957 20.9857Z" fill="white"/>
<circle cx="28.5" cy="12.5" r="4.5" fill="#FAB447"/>
</svg>
