<svg width="17" height="24" viewBox="0 0 17 24" fill="none" xmlns="http://www.w3.org/2000/svg">
<path d="M8.17404 10.6637C8.0541 10.6517 7.91017 10.6517 7.77823 10.6637C4.92363 10.5677 2.65674 8.22889 2.65674 5.3503C2.65674 2.41174 5.03158 0.0249023 7.98213 0.0249023C10.9207 0.0249023 13.3075 2.41174 13.3075 5.3503C13.2955 8.22889 11.0286 10.5677 8.17404 10.6637Z" fill="#54D2E0"/>
<path d="M2.17694 15.0896C-0.725645 17.0326 -0.725645 20.1991 2.17694 22.1301C5.47532 24.337 10.8847 24.337 14.1831 22.1301C17.0856 20.1871 17.0856 17.0206 14.1831 15.0896C10.8967 12.8946 5.48732 12.8946 2.17694 15.0896Z" fill="#54D2E0"/>
</svg>
