<svg width="22" height="22" viewBox="0 0 22 22" fill="none" xmlns="http://www.w3.org/2000/svg">
    <path
        d="M17.0001 6.16C16.9401 6.15 16.8701 6.15 16.8101 6.16C15.4301 6.11 14.3301 4.98 14.3301 3.58C14.3301 2.15 15.4801 1 16.9101 1C18.3401 1 19.4901 2.16 19.4901 3.58C19.4801 4.98 18.3801 6.11 17.0001 6.16Z"
        stroke="black" stroke-width="1.5" stroke-linecap="round" stroke-linejoin="round" />
    <path
        d="M15.9699 13.44C17.3399 13.67 18.8499 13.43 19.9099 12.72C21.3199 11.78 21.3199 10.24 19.9099 9.30001C18.8399 8.59001 17.3099 8.35 15.9399 8.59"
        stroke="black" stroke-width="1.5" stroke-linecap="round" stroke-linejoin="round" />
    <path
        d="M4.96998 6.16C5.02998 6.15 5.09998 6.15 5.15998 6.16C6.53998 6.11 7.63998 4.98 7.63998 3.58C7.63998 2.15 6.48998 1 5.05998 1C3.62998 1 2.47998 2.16 2.47998 3.58C2.48998 4.98 3.58998 6.11 4.96998 6.16Z"
        stroke="black" stroke-width="1.5" stroke-linecap="round" stroke-linejoin="round" />
    <path
        d="M5.99994 13.44C4.62994 13.67 3.11994 13.43 2.05994 12.72C0.649941 11.78 0.649941 10.24 2.05994 9.30001C3.12994 8.59001 4.65994 8.35 6.02994 8.59"
        stroke="black" stroke-width="1.5" stroke-linecap="round" stroke-linejoin="round" />
    <path
        d="M11.0001 13.63C10.9401 13.62 10.8701 13.62 10.8101 13.63C9.43008 13.58 8.33008 12.45 8.33008 11.05C8.33008 9.62 9.48008 8.47 10.9101 8.47C12.3401 8.47 13.4901 9.63 13.4901 11.05C13.4801 12.45 12.3801 13.59 11.0001 13.63Z"
        stroke="black" stroke-width="1.5" stroke-linecap="round" stroke-linejoin="round" />
    <path
        d="M8.08973 16.78C6.67973 17.72 6.67973 19.26 8.08973 20.2C9.68973 21.27 12.3097 21.27 13.9097 20.2C15.3197 19.26 15.3197 17.72 13.9097 16.78C12.3197 15.72 9.68973 15.72 8.08973 16.78Z"
        stroke="black" stroke-width="1.5" stroke-linecap="round" stroke-linejoin="round" />
</svg>