<svg width="235" height="54" viewBox="0 0 235 54" fill="none" xmlns="http://www.w3.org/2000/svg">
<path d="M56.2566 34.3979C54.8931 34.3979 53.6603 34.1514 52.5582 33.6584C51.4749 33.1654 50.6157 32.4555 49.9806 31.5286C49.3456 30.6018 49.0187 29.5073 49 28.2452H53.2027C53.2587 29.0932 53.5389 29.7637 54.0432 30.2567C54.5662 30.7497 55.276 30.9962 56.1725 30.9962C57.0878 30.9962 57.8069 30.7694 58.3299 30.3158C58.8529 29.8426 59.1144 29.2312 59.1144 28.4819C59.1144 27.8705 58.9369 27.3677 58.582 26.9733C58.2272 26.5789 57.7789 26.2732 57.2372 26.0563C56.7142 25.8197 55.9857 25.5633 55.0518 25.2872C53.7817 24.8928 52.745 24.5083 51.9419 24.1336C51.1574 23.7392 50.4756 23.1574 49.8966 22.3884C49.3362 21.5996 49.056 20.5544 49.056 19.2529C49.056 18.0302 49.3456 16.9653 49.9246 16.0582C50.5036 15.1511 51.3161 14.4609 52.3621 13.9876C53.4081 13.4946 54.6035 13.2481 55.9484 13.2481C57.9657 13.2481 59.6 13.7707 60.8515 14.8158C62.1216 15.8413 62.8221 17.2809 62.9528 19.1345H58.6381C58.6007 18.4246 58.3112 17.8429 57.7695 17.3893C57.2465 16.916 56.5461 16.6794 55.6682 16.6794C54.9024 16.6794 54.286 16.8865 53.819 17.3006C53.3708 17.7147 53.1466 18.3162 53.1466 19.105C53.1466 19.6571 53.3147 20.1205 53.6509 20.4952C54.0058 20.8502 54.4354 21.146 54.9397 21.3826C55.4627 21.5996 56.1912 21.8559 57.1251 22.1517C58.3953 22.5461 59.4319 22.9405 60.2351 23.3349C61.0383 23.7293 61.7294 24.3209 62.3084 25.1097C62.8874 25.8985 63.1769 26.9338 63.1769 28.2157C63.1769 29.32 62.9061 30.3454 62.3644 31.292C61.8228 32.2386 61.0289 32.9978 59.9829 33.5697C58.9369 34.1218 57.6948 34.3979 56.2566 34.3979Z" fill="black"/>
<path d="M69.9397 20.1698C70.444 19.4205 71.1351 18.7993 72.013 18.3063C72.9096 17.7936 73.9276 17.5372 75.067 17.5372C76.3931 17.5372 77.5885 17.8823 78.6532 18.5725C79.7366 19.2627 80.5864 20.2487 81.2028 21.5305C81.8379 22.7926 82.1554 24.2618 82.1554 25.938C82.1554 27.6142 81.8379 29.1031 81.2028 30.4046C80.5864 31.6864 79.7366 32.6823 78.6532 33.3922C77.5885 34.1021 76.3931 34.4571 75.067 34.4571C73.9276 34.4571 72.9189 34.2106 72.041 33.7176C71.1818 33.2246 70.4814 32.6034 69.9397 31.854V42H66.0172V17.8034H69.9397V20.1698ZM78.1489 25.938C78.1489 24.952 77.9528 24.104 77.5605 23.3941C77.187 22.6644 76.6826 22.1123 76.0476 21.7376C75.4312 21.3629 74.7588 21.1756 74.0303 21.1756C73.3205 21.1756 72.6481 21.3728 72.013 21.7672C71.3966 22.1419 70.8923 22.694 70.5001 23.4237C70.1265 24.1533 69.9397 25.0111 69.9397 25.9971C69.9397 26.9831 70.1265 27.841 70.5001 28.5706C70.8923 29.3003 71.3966 29.8623 72.013 30.2567C72.6481 30.6314 73.3205 30.8187 74.0303 30.8187C74.7588 30.8187 75.4312 30.6215 76.0476 30.2271C76.6826 29.8327 77.187 29.2707 77.5605 28.541C77.9528 27.8114 78.1489 26.9437 78.1489 25.938Z" fill="black"/>
<path d="M91.3378 34.4571C89.8435 34.4571 88.4987 34.112 87.3032 33.4218C86.1078 32.7118 85.1646 31.716 84.4735 30.4342C83.801 29.1524 83.4648 27.6733 83.4648 25.9971C83.4648 24.3209 83.8104 22.8419 84.5015 21.5601C85.2113 20.2783 86.1732 19.2923 87.3873 18.6021C88.6014 17.8922 89.9556 17.5372 91.4499 17.5372C92.9441 17.5372 94.2983 17.8922 95.5124 18.6021C96.7265 19.2923 97.6791 20.2783 98.3702 21.5601C99.08 22.8419 99.4349 24.3209 99.4349 25.9971C99.4349 27.6733 99.0707 29.1524 98.3422 30.4342C97.6324 31.716 96.6611 32.7118 95.4284 33.4218C94.2143 34.112 92.8507 34.4571 91.3378 34.4571ZM91.3378 30.8483C92.0476 30.8483 92.7107 30.6708 93.327 30.3158C93.9621 29.9412 94.4664 29.389 94.84 28.6594C95.2136 27.9297 95.4003 27.0423 95.4003 25.9971C95.4003 24.4393 95.0081 23.2462 94.2236 22.4179C93.4578 21.57 92.5145 21.146 91.3938 21.146C90.2731 21.146 89.3299 21.57 88.564 22.4179C87.8169 23.2462 87.4433 24.4393 87.4433 25.9971C87.4433 27.555 87.8076 28.758 88.536 29.6059C89.2832 30.4342 90.2171 30.8483 91.3378 30.8483Z" fill="black"/>
<path d="M105.674 20.3473C106.179 19.4796 106.832 18.7993 107.636 18.3063C108.457 17.8133 109.391 17.5668 110.437 17.5668V21.9151H109.401C108.168 21.9151 107.234 22.2207 106.599 22.8321C105.983 23.4434 105.674 24.5083 105.674 26.0267V34.1908H101.752V17.8034H105.674V20.3473Z" fill="black"/>
<path d="M117.086 21.2052V29.1326C117.086 29.6848 117.207 30.0891 117.45 30.3454C117.712 30.5821 118.141 30.7004 118.739 30.7004H120.56V34.1908H118.094C114.788 34.1908 113.135 32.4949 113.135 29.1031V21.2052H111.286V17.8034H113.135V13.751H117.086V17.8034H120.56V21.2052H117.086Z" fill="black"/>
<path d="M128.761 34.4571C127.491 34.4571 126.351 34.2204 125.342 33.7471C124.334 33.2541 123.531 32.5935 122.933 31.7653C122.354 30.937 122.036 30.02 121.98 29.0143H125.931C126.006 29.6454 126.295 30.1679 126.799 30.5821C127.322 30.9962 127.967 31.2032 128.733 31.2032C129.48 31.2032 130.059 31.0455 130.47 30.73C130.899 30.4144 131.114 30.0102 131.114 29.5172C131.114 28.9847 130.853 28.5903 130.33 28.334C129.825 28.0579 129.013 27.7621 127.892 27.4466C126.734 27.1508 125.781 26.8451 125.034 26.5296C124.306 26.2141 123.671 25.7309 123.129 25.0802C122.606 24.4294 122.345 23.5518 122.345 22.4475C122.345 21.5404 122.587 20.7122 123.073 19.9628C123.577 19.2134 124.287 18.6218 125.202 18.188C126.136 17.7541 127.229 17.5372 128.48 17.5372C130.33 17.5372 131.805 18.0302 132.907 19.0162C134.009 19.9825 134.616 21.2939 134.728 22.9504H130.974C130.918 22.2996 130.657 21.7869 130.19 21.4122C129.741 21.0178 129.134 20.8206 128.368 20.8206C127.659 20.8206 127.108 20.9587 126.715 21.2347C126.342 21.5108 126.155 21.8954 126.155 22.3884C126.155 22.9405 126.417 23.3645 126.94 23.6603C127.463 23.9364 128.275 24.2223 129.377 24.5181C130.498 24.8139 131.422 25.1196 132.151 25.4351C132.879 25.7506 133.505 26.2436 134.028 26.9141C134.57 27.5649 134.85 28.4326 134.869 29.5172C134.869 30.4637 134.616 31.3117 134.112 32.0611C133.626 32.8104 132.917 33.402 131.983 33.8359C131.067 34.25 129.993 34.4571 128.761 34.4571Z" fill="black"/>
<path d="M149.604 13.5439V16.8865H141.45V22.1813H147.698V25.4647H141.45V34.1908H137.528V13.5439H149.604Z" fill="black"/>
<path d="M155.747 20.3473C156.251 19.4796 156.905 18.7993 157.708 18.3063C158.53 17.8133 159.464 17.5668 160.51 17.5668V21.9151H159.474C158.241 21.9151 157.307 22.2207 156.672 22.8321C156.055 23.4434 155.747 24.5083 155.747 26.0267V34.1908H151.825V17.8034H155.747V20.3473Z" fill="black"/>
<path d="M164.581 15.8511C163.89 15.8511 163.311 15.6244 162.844 15.1708C162.396 14.6975 162.172 14.1158 162.172 13.4256C162.172 12.7354 162.396 12.1635 162.844 11.7099C163.311 11.2366 163.89 11 164.581 11C165.272 11 165.842 11.2366 166.29 11.7099C166.757 12.1635 166.991 12.7354 166.991 13.4256C166.991 14.1158 166.757 14.6975 166.29 15.1708C165.842 15.6244 165.272 15.8511 164.581 15.8511ZM166.514 17.8034V34.1908H162.592V17.8034H166.514Z" fill="black"/>
<path d="M184.258 25.6422C184.258 26.2338 184.221 26.7662 184.146 27.2395H172.799C172.893 28.4227 173.285 29.3496 173.976 30.02C174.667 30.6905 175.517 31.0258 176.526 31.0258C177.982 31.0258 179.019 30.3651 179.636 29.0439H183.866C183.418 30.6215 182.559 31.923 181.289 32.9485C180.018 33.9542 178.459 34.4571 176.61 34.4571C175.115 34.4571 173.77 34.112 172.575 33.4218C171.398 32.7118 170.474 31.716 169.801 30.4342C169.148 29.1524 168.821 27.6733 168.821 25.9971C168.821 24.3012 169.148 22.8123 169.801 21.5305C170.455 20.2487 171.37 19.2627 172.547 18.5725C173.724 17.8823 175.078 17.5372 176.61 17.5372C178.085 17.5372 179.402 17.8725 180.56 18.5429C181.737 19.2134 182.643 20.1698 183.278 21.4122C183.932 22.6349 184.258 24.0448 184.258 25.6422ZM180.196 24.459C180.177 23.3941 179.813 22.5461 179.103 21.9151C178.393 21.2643 177.525 20.9389 176.498 20.9389C175.526 20.9389 174.704 21.2545 174.032 21.8855C173.378 22.4968 172.977 23.3546 172.827 24.459H180.196Z" fill="black"/>
<path d="M195.163 17.5668C197.012 17.5668 198.506 18.188 199.645 19.4303C200.785 20.653 201.354 22.3686 201.354 24.5773V34.1908H197.432V25.1393C197.432 23.8378 197.124 22.8419 196.507 22.1517C195.891 21.4418 195.051 21.0868 193.986 21.0868C192.902 21.0868 192.043 21.4418 191.408 22.1517C190.792 22.8419 190.484 23.8378 190.484 25.1393V34.1908H186.561V17.8034H190.484V19.8445C191.007 19.1345 191.67 18.5824 192.473 18.188C193.295 17.7739 194.191 17.5668 195.163 17.5668Z" fill="black"/>
<path d="M203.516 25.938C203.516 24.2815 203.824 22.8123 204.44 21.5305C205.075 20.2487 205.934 19.2627 207.018 18.5725C208.101 17.8823 209.306 17.5372 210.632 17.5372C211.641 17.5372 212.603 17.7739 213.518 18.2471C214.433 18.7007 215.162 19.312 215.703 20.0811V12.3015H219.682V34.1908H215.703V31.7653C215.218 32.5738 214.536 33.2246 213.658 33.7176C212.78 34.2106 211.762 34.4571 210.604 34.4571C209.297 34.4571 208.101 34.1021 207.018 33.3922C205.934 32.6823 205.075 31.6864 204.44 30.4046C203.824 29.1031 203.516 27.6142 203.516 25.938ZM215.731 25.9971C215.731 24.9914 215.544 24.1336 215.171 23.4237C214.797 22.694 214.293 22.1419 213.658 21.7672C213.023 21.3728 212.341 21.1756 211.613 21.1756C210.884 21.1756 210.212 21.3629 209.595 21.7376C208.979 22.1123 208.475 22.6644 208.082 23.3941C207.709 24.104 207.522 24.952 207.522 25.938C207.522 26.924 207.709 27.7917 208.082 28.541C208.475 29.2707 208.979 29.8327 209.595 30.2271C210.23 30.6215 210.903 30.8187 211.613 30.8187C212.341 30.8187 213.023 30.6314 213.658 30.2567C214.293 29.8623 214.797 29.3101 215.171 28.6002C215.544 27.8706 215.731 27.0029 215.731 25.9971Z" fill="black"/>
<path d="M228.892 34.4571C227.622 34.4571 226.483 34.2204 225.474 33.7471C224.465 33.2541 223.662 32.5935 223.064 31.7653C222.485 30.937 222.168 30.02 222.112 29.0143H226.062C226.137 29.6454 226.427 30.1679 226.931 30.5821C227.454 30.9962 228.098 31.2032 228.864 31.2032C229.611 31.2032 230.19 31.0455 230.601 30.73C231.031 30.4144 231.246 30.0102 231.246 29.5172C231.246 28.9847 230.984 28.5903 230.461 28.334C229.957 28.0579 229.144 27.7621 228.024 27.4466C226.866 27.1508 225.913 26.8451 225.166 26.5296C224.437 26.2141 223.802 25.7309 223.261 25.0802C222.738 24.4294 222.476 23.5518 222.476 22.4475C222.476 21.5404 222.719 20.7122 223.205 19.9628C223.709 19.2134 224.419 18.6218 225.334 18.188C226.268 17.7541 227.361 17.5372 228.612 17.5372C230.461 17.5372 231.937 18.0302 233.039 19.0162C234.141 19.9825 234.748 21.2939 234.86 22.9504H231.106C231.05 22.2996 230.788 21.7869 230.321 21.4122C229.873 21.0178 229.266 20.8206 228.5 20.8206C227.79 20.8206 227.239 20.9587 226.847 21.2347C226.473 21.5108 226.286 21.8954 226.286 22.3884C226.286 22.9405 226.548 23.3645 227.071 23.6603C227.594 23.9364 228.407 24.2223 229.509 24.5181C230.629 24.8139 231.554 25.1196 232.282 25.4351C233.011 25.7506 233.636 26.2436 234.159 26.9141C234.701 27.5649 234.981 28.4326 235 29.5172C235 30.4637 234.748 31.3117 234.244 32.0611C233.758 32.8104 233.048 33.402 232.114 33.8359C231.199 34.25 230.125 34.4571 228.892 34.4571Z" fill="black"/>
<path d="M29.865 0C30.7778 1.06929 32.0297 1.64306 33.099 2.52978C33.6988 3.05139 34.8203 3.33827 34.8724 4.01636C34.8985 4.53796 33.8814 5.11173 33.3337 5.63333C32.0819 6.80695 30.8039 7.95448 29.5782 9.15417C29.213 9.51929 28.9261 9.62361 28.4045 9.36281C26.292 8.3196 26.292 8.34568 27.3352 6.23318C28.1959 4.4858 29.0826 2.76451 29.4478 0.834568C29.4999 0.573766 29.6825 0.286883 29.526 0C29.6042 0 29.7346 0 29.865 0Z" fill="#050509"/>
<path d="M6.81006 51.2999C7.35774 50.5957 7.95759 50.2827 8.50527 49.9176C12.5216 47.4921 16.5641 45.0667 20.5804 42.6412C22.067 41.7284 23.5275 40.7634 24.9097 39.6681C25.8226 38.9639 26.5789 38.1293 27.1005 37.0861C28.1959 34.9215 27.4917 32.9915 25.2227 32.1309C23.8665 31.6093 22.4582 31.2181 21.076 30.7747C19.6937 30.3053 18.3375 29.7576 17.0596 29.0795C14.2429 27.5668 13.3562 24.8806 14.6863 22.0117C15.4948 20.2904 16.851 19.0125 18.2854 17.8389C23.9709 13.3009 30.3084 10.2756 37.7151 9.70186C40.8969 9.46714 44.0526 9.10201 47.2344 9.12809C47.7039 9.12809 48.1733 9.12809 48.6688 9.2585C47.5996 9.88442 46.4259 9.93658 45.2784 10.0931C40.1667 10.7451 35.1854 11.8144 30.6474 14.4224C27.596 16.1698 24.9619 18.4387 22.7972 21.1772C20.6587 23.8634 21.415 25.6369 24.8315 26.1063C26.7875 26.3671 28.7696 26.4454 30.6213 27.2539C32.4209 28.0363 33.9596 29.0534 34.429 31.0877C34.7681 32.4699 34.403 33.8 33.8031 35.0519C32.6817 37.4252 30.9082 39.2508 28.6653 40.5026C22.406 43.9713 16.225 47.5965 9.67889 50.5435C8.84432 50.9347 7.98367 51.3259 6.81006 51.2999Z" fill="#54D2E0"/>
<path d="M14.2688 28.9491C15.9641 30.0966 17.4506 31.2702 19.1459 32.0787C19.85 32.4178 20.5542 32.809 21.3366 32.157C21.5974 32.6264 21.3366 32.9655 21.1801 33.2784C19.511 36.6167 17.581 39.6681 14.3732 41.8588C9.86128 44.9363 5.71452 48.4832 1.90681 52.3952C1.48952 52.8125 0.915756 53.0733 0.654954 53.6993C0.576713 53.8818 0.341991 54.1165 0.107268 53.934C-0.153534 53.7253 0.133348 53.5167 0.211589 53.3341C1.30696 51.4303 2.48057 49.5786 3.7585 47.779C6.05357 44.519 8.71375 41.5198 11.2175 38.4162C11.9477 37.5034 12.6519 36.5645 13.2778 35.5996C14.9469 33.148 15.1295 31.8179 14.2688 28.9491Z" fill="#050509"/>
<path d="M14.2166 21.6466C13.695 18.0997 13.4081 14.5527 14.2688 11.0319C15.0512 7.79796 16.7203 6.80691 20.0325 7.11987C22.9014 7.38067 25.3268 8.55428 27.674 10.0669C28.2478 10.4321 28.2478 10.6146 27.648 10.9537C26.5787 11.5535 25.5094 12.1794 24.414 12.7271C23.5534 13.1444 22.771 13.1444 21.9625 12.5967C21.2322 12.1012 20.4498 11.6839 19.6413 11.371C17.8679 10.6668 16.616 11.1884 15.8597 12.9618C15.2077 14.5527 14.9208 16.274 14.7122 17.9693C14.5557 19.1689 14.0602 20.3686 14.2166 21.6466Z" fill="#050509"/>
</svg>
