<svg width="56" height="55" viewBox="0 0 56 55" fill="none" xmlns="http://www.w3.org/2000/svg">
<g filter="url(#filter0_d_687_2517)">
<ellipse cx="25.7755" cy="24.5" rx="17.0265" ry="16.875" fill="white"/>
<path d="M25.776 7.13281C16.1139 7.13281 8.25293 14.9238 8.25293 24.5C8.25293 34.0762 16.1139 41.8672 25.776 41.8672C35.4382 41.8672 43.2991 34.0762 43.2991 24.5C43.2991 14.9238 35.4382 7.13281 25.776 7.13281ZM25.776 35.1875C24.0153 35.1875 22.6151 34.4477 22.4273 32.8847C22.4223 32.838 22.4273 32.7907 22.442 32.7461C22.4567 32.7014 22.4807 32.6603 22.5125 32.6255C22.5443 32.5907 22.5832 32.5629 22.6266 32.5439C22.6699 32.525 22.7168 32.5154 22.7642 32.5156H28.7836C28.8315 32.5153 28.8789 32.5251 28.9226 32.5443C28.9664 32.5635 29.0055 32.5918 29.0374 32.6272C29.0693 32.6626 29.0932 32.7043 29.1075 32.7495C29.1219 32.7948 29.1263 32.8426 29.1206 32.8897C28.9057 34.4235 27.5182 35.1875 25.776 35.1875ZM34.0321 31.1797H17.5199C16.5225 31.1797 16.0035 29.9272 16.5772 29.2593C17.953 27.6445 18.9252 26.9656 18.9252 22.5128C18.9252 18.4323 21.0936 16.9845 22.8847 16.2781C23.008 16.2272 23.1191 16.1513 23.2109 16.0552C23.3028 15.9592 23.3733 15.8451 23.418 15.7204C23.7289 14.6976 24.6084 13.8125 25.776 13.8125C26.9437 13.8125 27.8215 14.6976 28.1349 15.7212C28.1798 15.8459 28.2506 15.9599 28.3425 16.056C28.4345 16.152 28.5457 16.228 28.669 16.279C30.4559 16.9837 32.6286 18.434 32.6286 22.5136C32.6286 26.9665 33.5999 27.6453 34.9756 29.2601C35.5435 29.9272 35.0237 31.1797 34.0321 31.1797Z" fill="#54D2E0"/>
<ellipse cx="33.1545" cy="18.3125" rx="3.97285" ry="3.9375" fill="#FAB447"/>
</g>
<defs>
<filter id="filter0_d_687_2517" x="-3.79102" y="-3.875" width="63.1338" height="62.75" filterUnits="userSpaceOnUse" color-interpolation-filters="sRGB">
<feFlood flood-opacity="0" result="BackgroundImageFix"/>
<feColorMatrix in="SourceAlpha" type="matrix" values="0 0 0 0 0 0 0 0 0 0 0 0 0 0 0 0 0 0 127 0" result="hardAlpha"/>
<feOffset dx="2" dy="3"/>
<feGaussianBlur stdDeviation="5"/>
<feColorMatrix type="matrix" values="0 0 0 0 0 0 0 0 0 0 0 0 0 0 0 0 0 0 0.25 0"/>
<feBlend mode="normal" in2="BackgroundImageFix" result="effect1_dropShadow_687_2517"/>
<feBlend mode="normal" in="SourceGraphic" in2="effect1_dropShadow_687_2517" result="shape"/>
</filter>
</defs>
</svg>
