<svg width="21" height="21" viewBox="0 0 21 21" fill="none" xmlns="http://www.w3.org/2000/svg">
<path d="M16.1743 4.53469C14.7899 3.14124 12.9627 2.27446 11.0077 2.0838C9.05274 1.89314 7.09249 2.39053 5.46493 3.49024C3.83736 4.58994 2.64448 6.22304 2.09193 8.10798C1.53939 9.99292 1.6618 12.0116 2.43807 13.8159C2.51898 13.9836 2.54552 14.1724 2.51401 14.3559L1.77151 17.925C1.7429 18.0618 1.74874 18.2036 1.78851 18.3377C1.82827 18.4717 1.90071 18.5937 1.99932 18.6928C2.08016 18.7731 2.1764 18.8361 2.28226 18.8782C2.38812 18.9202 2.50139 18.9404 2.61526 18.9375H2.78401L6.39526 18.2119C6.5788 18.1898 6.76492 18.216 6.93526 18.2878C8.73962 19.0641 10.7583 19.1865 12.6432 18.634C14.5282 18.0814 16.1613 16.8885 17.261 15.261C18.3607 13.6334 18.8581 11.6732 18.6674 9.71817C18.4767 7.76318 17.61 5.93598 16.2165 4.55157L16.1743 4.53469ZM6.83401 11.3438C6.66713 11.3438 6.504 11.2943 6.36525 11.2016C6.22649 11.1088 6.11835 10.9771 6.05448 10.8229C5.99062 10.6687 5.97391 10.4991 6.00647 10.3354C6.03903 10.1717 6.11939 10.0214 6.23739 9.90338C6.35539 9.78538 6.50573 9.70502 6.6694 9.67247C6.83307 9.63991 7.00272 9.65662 7.1569 9.72048C7.31107 9.78434 7.44285 9.89249 7.53556 10.0312C7.62827 10.17 7.67776 10.3331 7.67776 10.5C7.67776 10.7238 7.58886 10.9384 7.43063 11.0966C7.2724 11.2549 7.05778 11.3438 6.83401 11.3438ZM10.209 11.3438C10.0421 11.3438 9.879 11.2943 9.74025 11.2016C9.60149 11.1088 9.49335 10.9771 9.42948 10.8229C9.36562 10.6687 9.34891 10.4991 9.38147 10.3354C9.41403 10.1717 9.49439 10.0214 9.61239 9.90338C9.73039 9.78538 9.88073 9.70502 10.0444 9.67247C10.2081 9.63991 10.3777 9.65662 10.5319 9.72048C10.6861 9.78434 10.8178 9.89249 10.9106 10.0312C11.0033 10.17 11.0528 10.3331 11.0528 10.5C11.0528 10.7238 10.9639 10.9384 10.8056 11.0966C10.6474 11.2549 10.4328 11.3438 10.209 11.3438ZM13.584 11.3438C13.4171 11.3438 13.254 11.2943 13.1152 11.2016C12.9765 11.1088 12.8683 10.9771 12.8045 10.8229C12.7406 10.6687 12.7239 10.4991 12.7565 10.3354C12.789 10.1717 12.8694 10.0214 12.9874 9.90338C13.1054 9.78538 13.2557 9.70502 13.4194 9.67247C13.5831 9.63991 13.7527 9.65662 13.9069 9.72048C14.0611 9.78434 14.1928 9.89249 14.2856 10.0312C14.3783 10.17 14.4278 10.3331 14.4278 10.5C14.4278 10.7238 14.3389 10.9384 14.1806 11.0966C14.0224 11.2549 13.8078 11.3438 13.584 11.3438Z" fill="white"/>
</svg>
