<svg width="30" height="33" viewBox="0 0 30 33" fill="none" xmlns="http://www.w3.org/2000/svg">
<path d="M13.7119 3.38866C14.06 3.0458 14.5209 2.85477 15 2.85477C15.4791 2.85477 15.94 3.0458 16.2881 3.38866L25.3706 12.3324C25.9331 12.8851 26.25 13.6567 26.25 14.4614V25.3407C26.25 26.1178 25.9537 26.863 25.4262 27.4124C24.8988 27.9619 24.1834 28.2705 23.4375 28.2705H19.6875C19.318 28.2705 18.9521 28.1947 18.6108 28.0473C18.2694 27.9 17.9593 27.684 17.6981 27.4117C17.4369 27.1395 17.2298 26.8162 17.0886 26.4606C16.9473 26.1049 16.8748 25.7237 16.875 25.3388V20.4558C16.875 20.1968 16.7762 19.9483 16.6004 19.7652C16.4246 19.5821 16.1861 19.4792 15.9375 19.4792H14.0625C13.8139 19.4792 13.5754 19.5821 13.3996 19.7652C13.2238 19.9483 13.125 20.1968 13.125 20.4558V25.3388C13.125 26.1158 12.8287 26.861 12.3012 27.4105C11.7738 27.9599 11.0584 28.2686 10.3125 28.2686H6.5625C5.81658 28.2686 5.10121 27.9599 4.57376 27.4105C4.04632 26.861 3.75 26.1158 3.75 25.3388V14.4594C3.75 13.6547 4.06875 12.8832 4.63125 12.3304L13.7119 3.38475V3.38866ZM15 4.80669L5.9175 13.7524C5.8253 13.8434 5.75182 13.9531 5.70154 14.0746C5.65126 14.1961 5.62522 14.3271 5.625 14.4594V25.3388C5.625 25.5978 5.72377 25.8462 5.89959 26.0293C6.0754 26.2125 6.31386 26.3154 6.5625 26.3154H10.3125C10.5611 26.3154 10.7996 26.2125 10.9754 26.0293C11.1512 25.8462 11.25 25.5978 11.25 25.3388V20.4558C11.25 19.6787 11.5463 18.9335 12.0738 18.3841C12.6012 17.8346 13.3166 17.526 14.0625 17.526H15.9375C16.6834 17.526 17.3988 17.8346 17.9262 18.3841C18.4537 18.9335 18.75 19.6787 18.75 20.4558V25.3388C18.75 25.5978 18.8488 25.8462 19.0246 26.0293C19.2004 26.2125 19.4389 26.3154 19.6875 26.3154H23.4375C23.6861 26.3154 23.9246 26.2125 24.1004 26.0293C24.2762 25.8462 24.375 25.5978 24.375 25.3388V14.4594C24.375 14.3267 24.3491 14.1954 24.2988 14.0735C24.2485 13.9516 24.1749 13.8417 24.0825 13.7504L15 4.80669Z" fill="white"/>
</svg>
