<svg width="40" height="40" viewBox="0 0 40 40" fill="none" xmlns="http://www.w3.org/2000/svg">
<g clip-path="url(#clip0_1_29472)">
<path d="M21.32 0C20.4357 0 19.5514 0 18.6671 0C18.1946 0.0605693 17.7222 0.109025 17.2498 0.181708C13.3006 0.763174 9.81184 2.32586 6.81971 4.9788C3.19766 8.18898 0.980826 12.1866 0.229766 16.9836C0.144969 17.5409 0.0722824 18.1102 -0.000400786 18.6796C-0.000400786 19.5639 -0.000400786 20.4482 -0.000400786 21.3325C0.0601686 21.805 0.108624 22.2895 0.181307 22.762C0.980823 28.0678 3.45206 32.4409 7.6798 35.7359C12.489 39.4791 17.9524 40.7632 23.9487 39.6002C27.8494 38.8492 31.2049 37.02 34.0275 34.2459C37.068 31.2417 38.9699 27.6075 39.7089 23.3798C40.0723 21.3446 40.1086 19.2853 39.8179 17.238C39.2607 13.3131 37.6859 9.83646 35.0693 6.86856C31.8591 3.22229 27.8373 0.993337 23.0281 0.242277C22.4466 0.145366 21.8894 0.0726832 21.32 0ZM34.9481 9.30345C29.4727 16.3295 22.8342 21.9382 14.7664 25.9358C14.2697 24.785 13.7852 23.6947 13.3006 22.5803C13.4702 22.5197 13.5429 22.4833 13.6398 22.4591C16.6683 21.5748 18.6428 19.5639 19.5029 16.5718C20.1207 14.4397 20.5326 12.2592 21.0051 10.0909C21.5865 7.36523 22.3981 4.73652 23.973 2.39855C24.1304 2.16838 24.2516 2.07147 24.5544 2.15627C27.1468 2.83465 29.4727 4.0218 31.5562 5.69352C32.8403 6.7232 33.9669 7.91036 34.9481 9.30345ZM15.5538 27.3047C23.6095 23.3071 30.2964 17.6863 35.893 10.6723C36.2322 11.3386 36.5593 11.9443 36.8379 12.5742C38.2915 15.8692 38.7155 19.3095 38.1825 22.8589C38.1704 22.9679 38.0856 23.1012 37.9887 23.1738C36.2443 24.5306 34.3545 25.6329 32.2467 26.3234C29.6665 27.1835 26.9772 27.3289 24.3 27.5712C22.3981 27.7408 20.5084 28.0315 18.7034 28.6978C18.1341 28.9037 17.5768 29.146 16.9711 29.4004C16.5108 28.722 16.0384 28.0315 15.5538 27.3047ZM22.3981 1.7444C22.3981 1.80497 22.4103 1.84131 22.4103 1.85342C22.3497 1.97456 22.2891 2.08359 22.2286 2.19261C21.2594 3.77953 20.5205 5.46336 20.0844 7.26832C19.5393 9.49727 19.0911 11.7505 18.5944 13.9915C18.2794 15.421 17.9039 16.8383 17.1044 18.1102C16.111 19.685 14.6332 20.5694 12.8524 21.0297C12.8161 20.957 12.804 20.9085 12.7797 20.8601C12.0892 18.5584 11.641 16.2205 11.4957 13.8219C11.3866 12.0048 11.3503 10.1757 11.423 8.37068C11.4836 6.80799 11.7379 5.24531 11.9318 3.68262C11.9439 3.54936 12.0771 3.37977 12.2104 3.33131C15.4448 1.80497 18.8367 1.29618 22.3981 1.7444ZM18.0372 30.7087C18.1341 30.6602 18.1704 30.636 18.2189 30.6117C19.9996 29.788 21.8894 29.4125 23.8276 29.2187C25.6083 29.0248 27.4012 28.8916 29.1819 28.6614C31.7137 28.3465 34.0759 27.5348 36.2928 26.2508C36.7046 26.0085 37.1165 25.7541 37.5768 25.4755C37.5526 25.5845 37.5405 25.6329 37.5163 25.6814C35.6507 31.1084 32.065 34.9243 26.7591 37.1048C26.6259 37.1654 26.3957 37.129 26.2625 37.0563C25.148 36.4143 24.0214 35.7965 22.9433 35.0818C21.102 33.8704 19.4908 32.4167 18.0372 30.7087ZM11.1686 21.0781C11.0959 21.0902 11.0475 21.1024 10.999 21.1024C10.466 20.9933 9.92086 20.9207 9.39996 20.7753C6.02019 19.8667 3.63376 17.9649 3.07653 14.3065C3.00384 13.8098 2.90693 13.2162 3.08864 12.7801C4.50596 9.41248 6.77126 6.7232 9.81184 4.67595C9.90875 4.61538 10.0178 4.5427 10.1753 4.43368C9.43631 10.103 9.66647 15.6148 11.1686 21.0781ZM13.2885 26.6021C13.2885 26.5899 13.2885 26.6142 13.2764 26.6142C10.4418 27.8861 7.48597 28.831 4.45751 29.4973C4.3606 29.5215 4.191 29.4246 4.14254 29.3277C3.9245 28.9764 3.71856 28.613 3.53685 28.2374C1.79245 24.7365 1.23522 21.0418 1.79245 17.1775C1.8288 16.9594 1.87725 16.7414 1.93782 16.4385C2.02262 16.596 2.05896 16.6687 2.08319 16.7414C2.90693 18.8007 4.37271 20.2665 6.33516 21.272C7.93419 22.0957 9.64224 22.556 11.423 22.7377C11.5562 22.7498 11.7379 22.871 11.7864 22.9921C12.2952 24.1793 12.7797 25.3664 13.2885 26.6021ZM24.2273 37.9043C24.2516 37.8922 24.2152 37.9164 24.1789 37.9285C20.9081 38.6917 17.6859 38.5463 14.4757 37.5772C14.3909 37.553 14.3061 37.4924 14.2576 37.4319C13.5429 36.3174 13.2158 35.0697 13.979 33.7614C14.4878 32.8892 15.251 32.2713 16.0868 31.7141C16.4381 31.4839 16.5956 31.5082 16.8985 31.8231C18.0008 32.9497 19.0911 34.1005 20.2903 35.0939C21.5381 36.1114 22.919 36.9715 24.2273 37.9043ZM12.1256 36.6081C9.81184 35.6875 5.97174 32.4894 5.26913 30.9388C8.30972 30.2483 11.2534 29.2429 14.1123 27.983C14.5968 28.722 15.0693 29.4367 15.5538 30.1757C13.2279 31.6778 11.4593 33.4827 12.1256 36.6081Z" fill="black"/>
</g>
<defs>
<clipPath id="clip0_1_29472">
<rect width="40" height="40" fill="white" transform="matrix(-1 0 0 1 40 0)"/>
</clipPath>
</defs>
</svg>
