<svg width="26" height="26" viewBox="0 0 26 26" fill="none" xmlns="http://www.w3.org/2000/svg">
<g clip-path="url(#clip0_687_2806)">
<path d="M13.8589 25.9999C13.2862 25.9999 12.7072 25.9999 12.1345 25.9999C11.8163 25.9618 11.4982 25.93 11.18 25.8791C8.66656 25.5101 6.41399 24.5368 4.51776 22.8446C1.018 19.7401 -0.445533 15.8277 0.120791 11.1901C0.426224 8.67722 1.43797 6.43793 3.12422 4.54216C6.42671 0.833326 10.5691 -0.610765 15.4497 0.235333C18.6886 0.801518 21.3039 2.49371 23.321 5.08926C24.6191 6.76237 25.4527 8.64541 25.8026 10.7384C25.879 11.2028 25.9363 11.6735 26.0063 12.1379C26.0063 12.7105 26.0063 13.2894 26.0063 13.862C25.9872 13.9447 25.9681 14.0274 25.9553 14.1101C25.8917 14.5617 25.8599 15.0198 25.7772 15.4651C25.2363 18.2388 23.9255 20.5926 21.8575 22.5201C19.9867 24.2632 17.7914 25.3701 15.2652 25.8027C14.7943 25.8791 14.3234 25.9363 13.8589 25.9999ZM21.6729 20.4526C25.1599 16.6229 25.8599 9.61238 21.0748 4.8666C16.2706 0.0953765 8.50111 0.470713 4.18687 5.65544C-0.00647282 10.7002 1.29162 17.2336 4.32686 20.4399C5.17316 17.4754 7.04394 15.4269 9.90738 14.2627C6.93577 12.1125 6.89123 8.25735 8.97199 6.02442C11.1037 3.74059 14.6607 3.67061 16.8687 5.86538C19.0386 8.01561 19.1785 12.0362 16.0988 14.2627C18.9622 15.4206 20.8203 17.4881 21.6729 20.4526ZM13.2926 24.4732C13.6426 24.435 14.2916 24.4032 14.9343 24.295C16.9005 23.9642 18.6568 23.1563 20.203 21.9031C20.273 21.8458 20.3303 21.7058 20.3176 21.6168C20.1394 20.2236 19.5794 18.9831 18.6759 17.9143C17.365 16.3621 15.6852 15.4714 13.668 15.287C11.8354 15.1216 10.1428 15.5796 8.65383 16.6802C6.98667 17.9143 5.97493 19.562 5.68222 21.6231C5.66949 21.7058 5.7204 21.8394 5.78403 21.8903C7.88388 23.5889 10.2892 24.4413 13.2926 24.4732ZM16.9451 9.73961C16.9514 7.58302 15.1697 5.7954 13.0063 5.78904C10.8491 5.78268 9.08016 7.54485 9.05471 9.72689C9.02926 11.8898 10.8173 13.6775 13.0063 13.6775C15.1761 13.6647 16.9387 11.9089 16.9451 9.73961Z" fill="white"/>
</g>
<defs>
<clipPath id="clip0_687_2806">
<rect width="26" height="26" fill="white"/>
</clipPath>
</defs>
</svg>
