<svg width="49" height="49" viewBox="0 0 49 49" fill="none" xmlns="http://www.w3.org/2000/svg">
<g clip-path="url(#clip0_1_29402)">
<path d="M33.4087 0C33.9587 0.140658 34.5215 0.230167 35.0587 0.421973C40.3283 2.26331 41.7097 8.97652 37.6168 12.7871C37.5016 12.8894 37.3865 13.0044 37.2202 13.1579C37.54 13.2346 37.8086 13.2985 38.0772 13.3625C41.6074 14.3343 44.0631 17.5055 44.1015 21.2009C44.1271 22.9911 44.1143 24.7685 44.1015 26.5587C44.1015 26.8528 44.191 27.0446 44.4212 27.2492C47.5805 29.8834 49.1153 33.2592 48.9746 37.3638C48.7828 43.0285 44.4468 47.9003 38.8446 48.8338C31.989 49.9846 25.6449 45.3941 24.6089 38.5402C24.5322 37.9904 24.5066 37.4277 24.4938 36.8779C24.481 36.328 24.4938 35.7654 24.4938 35.1388C24.3915 35.1388 24.1996 35.1388 24.0206 35.1388C20.4648 35.1388 16.9091 35.1388 13.3406 35.1388C11.6011 35.1388 10.6034 34.1542 10.6034 32.428C10.6034 31.9804 10.6034 31.5457 10.6034 31.047C10.386 31.047 10.2069 31.047 10.0407 31.047C7.7128 31.047 5.38495 31.0086 3.0571 31.0598C1.5862 31.0981 0.537387 30.7273 -0.0253906 29.0138C-0.0253906 26.1368 -0.0253906 23.2725 -0.0253906 20.3954C0.000190172 20.3186 0.0513518 20.2547 0.0641422 20.178C0.550177 17.0579 2.26409 14.8841 5.16751 13.6566C5.69192 13.4392 6.26749 13.3113 6.85584 13.1323C6.74073 13.0172 6.63841 12.9277 6.53608 12.8254C2.55827 9.20669 3.56871 2.81315 8.49301 0.626566C9.13253 0.332464 9.8488 0.204593 10.5267 0C11.1278 0 11.7418 0 12.3429 0C12.4197 0.0255741 12.4836 0.0767224 12.5604 0.0895094C14.4917 0.396399 16.0777 1.30428 17.2416 2.8643C17.7277 3.51644 18.0858 4.25809 18.5207 4.99974C19.5951 4.42432 20.7974 4.10465 22.0764 4.10465C23.3555 4.10465 24.5322 4.46268 25.6833 5.0381C26.4379 2.97939 27.7426 1.49609 29.7123 0.664927C30.403 0.370825 31.1576 0.230167 31.8867 0.0127871C32.3983 0 32.8971 0 33.4087 0ZM36.7214 47.3505C42.5538 47.3889 47.3502 42.6193 47.363 36.75C47.3886 30.9319 42.6306 26.1623 36.7854 26.124C30.9657 26.0984 26.1821 30.8424 26.131 36.6733C26.0926 42.517 30.8506 47.3121 36.7214 47.3505ZM22.0508 17.1475C25.1973 17.1475 27.7681 14.6028 27.7681 11.4828C27.7809 8.32438 25.2101 5.74139 22.0764 5.74139C18.9428 5.74139 16.3719 8.28602 16.3719 11.4188C16.3591 14.59 18.8916 17.1475 22.0508 17.1475ZM29.9809 20.7662C29.9041 20.9708 29.8402 21.1242 29.7762 21.2905C29.0728 23.3492 28.1774 25.3184 26.9879 27.1341C25.8368 28.8988 24.4554 30.446 22.6776 31.6224C22.2555 31.9037 21.859 31.9421 21.4497 31.6224C21.066 31.3283 20.6695 31.0726 20.2986 30.7657C18.1114 28.9371 16.6149 26.5971 15.4382 24.0397C14.9522 22.9911 14.5557 21.8915 14.108 20.7918C14.0057 20.9068 13.8906 21.0219 13.7882 21.137C12.7522 22.3774 12.2662 23.8095 12.2534 25.4079C12.2406 27.7096 12.2534 29.9984 12.2534 32.3001C12.2534 33.2336 12.5092 33.4893 13.4557 33.4893C17.1137 33.4893 20.759 33.4893 24.4171 33.4893C24.5961 33.4893 24.7624 33.4893 24.9287 33.4893C25.0949 33.0162 25.2356 32.5686 25.4147 32.1467C26.6298 29.2568 28.6507 27.1086 31.4646 25.702C31.6181 25.6253 31.8355 25.4335 31.8355 25.2928C31.8099 23.5666 31.2216 22.0705 29.9809 20.7662ZM14.8371 13.0812C14.8371 12.9021 14.8498 12.8254 14.8371 12.7487C14.4405 10.2936 15.0929 8.15815 16.7812 6.3296C16.9091 6.20173 16.9475 5.89484 16.8963 5.70303C16.1289 3.08168 13.6348 1.44494 10.8464 1.70068C8.19884 1.94363 6.16516 3.98956 5.76866 6.78993C5.43611 9.16832 6.99654 11.7385 9.32439 12.6592C11.1023 13.3497 12.9697 12.9277 14.8371 13.0812ZM29.3158 13.0556C30.4541 13.0556 31.5669 13.0684 32.6797 13.0556C36.197 13.0044 38.7551 10.0762 38.3202 6.57255C37.9877 3.88727 35.7621 1.85412 32.9227 1.66232C30.4413 1.4833 27.896 3.31185 27.2054 5.74139C27.1286 5.99713 27.167 6.16336 27.3716 6.36796C28.4332 7.46764 29.1367 8.75914 29.3158 10.2808C29.3925 11.1759 29.3158 12.0838 29.3158 13.0556ZM10.629 29.3847C10.629 29.1161 10.6034 28.886 10.629 28.6814C10.7825 27.7991 10.4372 27.2364 9.7081 26.661C7.4442 24.8708 5.96052 22.4797 4.7838 19.8839C4.32335 18.8609 3.92684 17.7996 3.47918 16.6999C2.46874 17.7612 1.82922 18.9888 1.70131 20.4209C1.61178 21.6101 1.63736 22.8121 1.62457 24.0013C1.61178 25.4463 1.61178 26.904 1.62457 28.3489C1.62457 29.0266 1.90596 29.3719 2.49432 29.3719C5.19309 29.3975 7.87908 29.3847 10.629 29.3847ZM42.4387 25.8938C42.4387 24.1548 42.4515 22.5052 42.4259 20.8685C42.4132 20.4081 42.3364 19.9478 42.2085 19.5003C41.9143 18.4517 41.4027 17.5183 40.5585 16.6871C39.676 19.5514 38.3458 22.096 36.5424 24.5C38.6656 24.4872 40.5713 24.9476 42.4387 25.8938ZM25.3763 26.5715C26.7833 24.4361 27.7937 22.2367 28.4972 19.8967C28.5228 19.8072 28.4077 19.577 28.3053 19.5514C27.6019 19.3085 26.8984 19.0783 26.1821 18.8737C25.9519 18.797 25.7728 18.8865 25.6577 19.1422C25.1973 20.0757 24.724 20.9836 24.2508 21.9042C24.1868 22.0193 24.1357 22.1856 24.174 22.3006C24.5578 23.6816 24.9543 25.0626 25.3763 26.5715ZM8.08372 22.4285C8.13488 22.339 8.17325 22.2878 8.19884 22.2367C8.56976 20.9068 8.95347 19.577 9.32439 18.2471C9.34997 18.1448 9.33718 17.9914 9.28602 17.8891C8.79998 16.9045 8.30116 15.9327 7.77675 14.9609C7.72559 14.8586 7.52094 14.7563 7.41862 14.7818C6.68957 14.9736 5.96052 15.2038 5.23146 15.434C5.00124 15.5107 4.92449 15.6514 5.02682 15.9071C5.321 16.6615 5.55122 17.4416 5.8454 18.196C6.45934 19.6665 7.18839 21.0731 8.08372 22.4285ZM18.7381 26.5715C19.1602 25.0882 19.5439 23.72 19.9148 22.339C19.9532 22.2111 19.9148 22.0193 19.8509 21.8914C19.3904 20.9708 18.93 20.0373 18.4312 19.1294C18.3544 18.9888 18.0986 18.8353 17.9707 18.8609C17.2416 19.0527 16.5126 19.2829 15.7963 19.5386C15.7068 19.577 15.6173 19.8455 15.6428 19.9734C15.758 20.4209 15.9114 20.8557 16.0649 21.2905C16.7556 23.119 17.6126 24.858 18.7381 26.5715ZM35.9924 22.4797C37.4249 20.2931 38.4481 18.0425 39.1516 15.6386C38.576 15.2166 37.1563 14.7179 36.5807 14.7691C36.4784 14.7818 36.3377 14.9097 36.2866 15.012C35.9796 15.5746 35.7494 16.1756 35.404 16.6999C34.7901 17.6078 34.7261 18.4901 35.1226 19.5131C35.4808 20.4465 35.6982 21.4183 35.9924 22.4797ZM22.0508 30.1263C22.6776 29.5509 23.2403 29.0266 23.8159 28.5279C24.0589 28.3106 24.1101 28.0932 24.0206 27.7863C23.6113 26.4053 23.2148 25.0115 22.8183 23.6177C22.6008 22.8505 22.6008 22.8377 21.8078 22.9016C21.6799 22.9144 21.4753 23.0679 21.4369 23.1957C20.9637 24.7813 20.516 26.3669 20.0811 27.9653C20.0555 28.0804 20.0683 28.2722 20.1451 28.3361C20.7462 28.9243 21.3857 29.4998 22.0508 30.1263ZM10.6162 25.2417C10.6546 23.6561 11.0511 22.2111 11.9336 20.9324C12.3046 20.3954 12.4452 19.9095 12.1639 19.3213C12.1383 19.2829 12.1255 19.2317 12.1255 19.1806C12.0871 18.733 11.7674 18.7842 11.4604 18.797C11.1662 18.797 10.8848 18.7203 10.7825 19.1678C10.4755 20.3954 10.1046 21.6229 9.75926 22.8377C9.34997 24.2698 9.34997 24.2698 10.5267 25.1905C10.5267 25.2161 10.5395 25.2161 10.6162 25.2417ZM33.4982 24.8836C34.1889 24.8453 34.7773 24.2954 34.6494 23.8223C34.2145 22.2495 33.7668 20.6767 33.3064 19.1039C33.2808 19.0016 33.1913 18.8609 33.1017 18.8226C32.5645 18.6052 32.1041 18.8481 31.9378 19.4108C31.9122 19.5131 31.8867 19.6281 31.8483 19.7304C31.6948 20.0629 31.7587 20.3442 31.989 20.6383C32.6541 21.5334 33.0762 22.5436 33.3064 23.6305C33.3959 24.0397 33.4343 24.4617 33.4982 24.8836ZM17.3823 17.2753C16.794 16.5081 16.2184 15.7537 15.6301 14.9992C15.5533 14.8969 15.4382 14.7435 15.3487 14.7435C15.2463 14.7435 15.1312 14.8969 15.0673 15.012C14.6324 15.8432 14.2359 16.6999 13.7754 17.5055C13.5069 17.9786 13.5324 18.3878 13.7882 18.8609C14.8882 18.0425 16.0905 17.5055 17.3823 17.2753ZM30.4158 18.9376C30.4669 18.5285 30.6204 18.1704 30.5181 17.9275C30.0576 16.9045 29.5204 15.9071 28.996 14.9097C28.8809 14.6923 28.7274 14.6412 28.5611 14.8586C27.96 15.6642 27.3589 16.4697 26.7577 17.2753C27.9984 17.5055 29.2135 18.017 30.4158 18.9376ZM20.1579 18.8226C20.452 19.4108 20.7718 19.9095 20.9637 20.4593C21.2067 21.1242 21.616 21.38 22.2939 21.2393C22.4601 21.2137 22.7159 21.2265 22.7671 21.1242C23.1764 20.3826 23.5473 19.6281 23.9694 18.8226C22.6648 18.8226 21.4625 18.8226 20.1579 18.8226ZM9.54183 14.7435C9.82322 15.2933 10.0662 15.7664 10.3093 16.2524C10.8081 17.2242 10.8081 17.2242 11.8825 17.1347C11.9848 17.1219 12.1255 17.0835 12.1639 17.0196C12.5604 16.2779 12.9313 15.5363 13.3406 14.7435C12.0487 14.7435 10.8337 14.7435 9.54183 14.7435ZM30.7739 14.7435C31.0553 15.2933 31.2983 15.7792 31.5413 16.2524C32.0401 17.237 32.0401 17.237 33.1273 17.1347C33.2296 17.1219 33.3831 17.0579 33.4215 16.9812C33.8052 16.2651 34.1761 15.5235 34.5726 14.7563C33.2936 14.7435 32.0785 14.7435 30.7739 14.7435Z" fill="white"/>
<path d="M39.2284 34.282C40.0854 34.282 40.8784 34.2564 41.6714 34.282C42.6946 34.3203 43.4748 34.7935 43.8969 35.7397C44.3062 36.6476 44.1655 37.5171 43.5516 38.2971C43.04 38.9365 42.3365 39.205 41.5307 39.205C40.7889 39.205 40.0342 39.205 39.2284 39.205C39.2284 40.0106 39.2412 40.765 39.2284 41.5322C39.2028 42.7726 38.4738 43.7444 37.3738 44.0129C35.8006 44.3965 34.3297 43.2713 34.3041 41.6217C34.2913 40.8417 34.3041 40.0617 34.3041 39.2306C34.1123 39.2178 33.946 39.205 33.7797 39.205C33.0507 39.1922 32.3088 39.2434 31.5798 39.1538C30.2368 39.0004 29.3287 37.8751 29.4182 36.5709C29.4949 35.3177 30.5565 34.3075 31.8612 34.2692C32.6542 34.2436 33.4472 34.2692 34.3041 34.2692C34.3041 33.438 34.2913 32.6452 34.3041 31.8524C34.3297 30.3819 35.532 29.2822 36.9517 29.3845C38.2436 29.474 39.2028 30.5354 39.2284 31.9419C39.2412 32.7092 39.2284 33.4508 39.2284 34.282ZM37.5529 33.4508C37.5529 32.9393 37.5657 32.4278 37.5529 31.9164C37.5529 31.7501 37.5145 31.5583 37.425 31.4177C37.2331 31.1108 36.9262 30.9829 36.5552 31.0724C36.1587 31.1747 35.9669 31.4432 35.9669 31.8396C35.9541 32.8242 35.9669 33.8216 35.9541 34.8062C35.9541 35.6758 35.6855 35.9443 34.8029 35.9443C33.9588 35.9443 33.1146 35.9443 32.2704 35.9443C31.4519 35.9443 31.0554 36.2128 31.0554 36.7499C31.0681 37.2869 31.4391 37.5299 32.2449 37.5299C33.1018 37.5299 33.9716 37.5299 34.8285 37.5299C35.6727 37.5299 35.9541 37.7984 35.9541 38.6424C35.9541 39.6014 35.9413 40.5604 35.9541 41.5067C35.9669 42.1077 36.2611 42.4273 36.7599 42.4145C37.2587 42.4145 37.5401 42.0821 37.5401 41.4811C37.5401 40.5732 37.5401 39.6653 37.5401 38.7574C37.5401 37.7856 37.7959 37.5299 38.7424 37.5299C39.7017 37.5299 40.6609 37.5427 41.6074 37.5171C42.1958 37.5043 42.5283 37.0696 42.4004 36.5325C42.2981 36.0977 41.9656 35.9315 41.5435 35.9315C40.533 35.9315 39.5354 35.9443 38.525 35.9315C37.8471 35.9187 37.5401 35.599 37.5273 34.9213C37.5401 34.4354 37.5529 33.9495 37.5529 33.4508Z" fill="white"/>
</g>
<defs>
<clipPath id="clip0_1_29402">
<rect width="49" height="49" fill="white"/>
</clipPath>
</defs>
</svg>
