<svg width="28" height="28" viewBox="0 0 28 28" fill="none" xmlns="http://www.w3.org/2000/svg">
<path d="M17.3374 0C17.4981 0.0511212 17.6661 0.0876364 17.8267 0.146061C19.0171 0.540425 19.8278 1.61397 19.8351 2.892C19.8497 5.23628 19.8424 7.57325 19.8424 9.91752C19.8424 10.3119 19.6014 10.5675 19.2581 10.5675C18.9003 10.5675 18.6593 10.3119 18.6593 9.90292C18.6593 7.57325 18.6593 5.23628 18.652 2.90661C18.652 2.10327 18.1189 1.4314 17.3374 1.23421C17.1622 1.19039 16.9796 1.17579 16.797 1.17579C12.218 1.17579 7.6317 1.16849 3.0527 1.17579C2.11791 1.17579 1.44603 1.66509 1.24155 2.48303C1.19042 2.67291 1.18312 2.8774 1.18312 3.07458C1.18312 9.18722 1.18312 15.2999 1.18312 21.4125C1.18312 22.6029 1.89882 23.3113 3.08921 23.3186C5.48461 23.3186 7.88 23.3186 10.2754 23.3186C10.3922 23.3186 10.5164 23.3186 10.6259 23.3405C10.9254 23.3843 11.1152 23.6253 11.1079 23.9394C11.0933 24.2315 10.8742 24.4652 10.5748 24.4871C10.4945 24.4944 10.4142 24.4871 10.3265 24.4871C7.90922 24.4871 5.49921 24.4506 3.08191 24.5017C1.35109 24.5309 -0.00727373 23.1433 2.93093e-05 21.4271C0.0292415 15.2999 0.0146354 9.16531 0.0146354 3.03806C0.0146354 1.48252 0.912909 0.372455 2.43194 0.0438182C2.46846 0.0365152 2.49767 0.0146061 2.53418 0C7.46373 0 12.4006 0 17.3374 0Z" fill="white"/>
<path d="M27.9999 21.0986C27.9123 21.5441 27.8539 21.9969 27.7224 22.4278C26.7584 25.5169 24.677 27.3938 21.4929 27.905C17.4835 28.5477 13.6641 25.7506 12.963 21.7632C12.24 17.6735 14.8618 13.7956 18.9076 12.9703C23.0923 12.1086 27.1893 14.9349 27.8904 19.1487C27.9196 19.324 27.9634 19.4992 27.9926 19.6745C27.9999 20.1565 27.9999 20.6239 27.9999 21.0986ZM26.8241 20.4048C26.8168 16.8702 23.9394 13.9928 20.4121 13.9928C16.892 14.0001 14 16.8921 14 20.4121C14 23.9395 16.892 26.8242 20.4194 26.8169C23.9613 26.8096 26.8314 23.9395 26.8241 20.4048Z" fill="white"/>
<path d="M9.90285 10.4947C7.98945 10.4947 6.07606 10.4947 4.16266 10.4947C3.74639 10.4947 3.48348 10.2317 3.51269 9.85929C3.5346 9.60369 3.70988 9.3919 3.96548 9.34808C4.05312 9.33348 4.14806 9.32617 4.23569 9.32617C8.02597 9.32617 11.8162 9.32617 15.6065 9.32617C15.6795 9.32617 15.7526 9.32617 15.8256 9.34078C16.1323 9.3846 16.366 9.64751 16.3514 9.93963C16.3368 10.2391 16.0958 10.4874 15.7818 10.4947C15.5262 10.502 15.2706 10.4947 15.015 10.4947C13.3061 10.4947 11.6045 10.4947 9.90285 10.4947Z" fill="white"/>
<path d="M7.58068 13.9927C8.71995 13.9927 9.85922 13.9927 10.9912 13.9927C11.4148 13.9927 11.6631 14.2118 11.6631 14.5696C11.6631 14.9275 11.4148 15.1539 10.9912 15.1612C8.71265 15.1685 6.4414 15.1685 4.16285 15.1612C3.73928 15.1612 3.49828 14.9275 3.49828 14.5623C3.50558 14.2045 3.76119 13.9927 4.18476 13.9927C5.32404 13.9927 6.45601 13.9927 7.58068 13.9927Z" fill="white"/>
<path d="M6.99628 5.84241C6.0615 5.84241 5.1194 5.84241 4.18462 5.84241C3.81946 5.84241 3.57116 5.65254 3.52004 5.36041C3.45431 4.99526 3.70992 4.68123 4.10428 4.65932C4.32337 4.64472 4.54246 4.65932 4.76156 4.65932C6.44856 4.65932 8.12825 4.65932 9.81526 4.65932C10.2242 4.65932 10.4871 4.86381 10.5163 5.19975C10.5456 5.57951 10.2753 5.84241 9.84447 5.84972C8.88777 5.84241 7.93838 5.84241 6.99628 5.84241Z" fill="white"/>
<path d="M21.0034 19.8204C21.1203 19.8204 21.2152 19.8204 21.3174 19.8204C22.1281 19.8204 22.9387 19.8204 23.7494 19.8204C23.8808 19.8204 24.0269 19.8277 24.151 19.8716C24.3993 19.9592 24.5454 20.244 24.5016 20.5142C24.4504 20.7844 24.2168 20.9816 23.9173 20.9889C23.0629 20.9962 22.2084 20.9889 21.3467 20.9889C21.2444 20.9889 21.1495 20.9889 21.0034 20.9889C21.0034 21.0985 21.0034 21.1934 21.0034 21.2884C21.0034 22.1355 21.0034 22.9827 21.0034 23.8298C21.0034 24.2242 20.777 24.4798 20.4338 24.4871C20.0832 24.4944 19.8422 24.2534 19.8349 23.8517C19.8276 23.0119 19.8349 22.1793 19.8276 21.3395C19.8276 21.2299 19.8276 21.1277 19.8276 20.9889C19.5939 20.9889 19.3894 20.9889 19.1777 20.9889C18.44 20.9889 17.7024 20.9889 16.9648 20.9889C16.5851 20.9889 16.3368 20.7625 16.3368 20.4193C16.3295 20.076 16.5632 19.8277 16.9429 19.8204C17.7828 19.8058 18.6153 19.8131 19.4552 19.8131C19.5647 19.8131 19.6743 19.8131 19.813 19.8131C19.8203 19.6963 19.8276 19.6013 19.8276 19.5064C19.8276 18.6666 19.8276 17.834 19.8276 16.9942C19.8276 16.6509 19.9737 16.4245 20.222 16.3442C20.6237 16.22 20.9888 16.4903 20.9888 16.9357C20.9961 17.7829 20.9888 18.63 20.9888 19.4772C21.0034 19.5867 21.0034 19.689 21.0034 19.8204Z" fill="white"/>
</svg>
