<svg width="134" height="134" viewBox="0 0 134 134" fill="none" xmlns="http://www.w3.org/2000/svg">
<g clip-path="url(#clip0_2_1229)">
<path d="M134 62.5523C134 65.5176 134 68.483 134 71.4483C133.805 73.0709 133.609 74.7214 133.386 76.3439C131.934 86.2191 128.639 95.3949 123.054 103.675C111.997 120.097 96.6956 130 77.1219 133.217C75.2511 133.525 73.3524 133.721 71.4536 133.972C68.4939 133.972 65.5341 133.972 62.5464 133.972C60.9269 133.777 59.2794 133.581 57.6599 133.357C46.5747 131.734 36.4109 127.734 27.4199 121.02C12.6768 110.026 3.76954 95.3949 0.78183 77.2112C0.474682 75.2809 0.251302 73.3506 0 71.4203C0 68.455 0 65.4896 0 62.5243C0.0837675 62.1327 0.195457 61.769 0.251302 61.3773C0.55845 59.0554 0.725985 56.6775 1.17274 54.3836C4.49552 37.8224 12.7606 24.1986 26.2192 13.9038C40.9623 2.60195 57.7158 -1.76214 76.1167 0.643707C89.2403 2.35018 100.856 7.66542 110.824 16.3936C123.194 27.2199 130.705 40.7598 133.246 57.0412C133.525 58.8596 133.749 60.7059 134 62.5523ZM69.3874 30.5769C69.3874 33.9898 69.3595 37.3748 69.4432 40.7878C69.4432 41.3752 69.8062 42.1306 70.253 42.4942C77.0381 47.9773 83.8512 53.4324 90.6922 58.8316C91.0831 59.1393 91.8371 59.2792 92.2838 59.1393C99.3203 56.8454 106.329 54.4955 113.309 52.1176C113.756 51.9498 114.287 51.3903 114.398 50.9427C115.878 44.956 117.274 38.9414 118.671 32.9268C118.782 32.5072 118.643 31.8917 118.391 31.5281C111.969 22.2963 103.676 15.3026 93.5403 10.4909C93.0656 10.2671 92.3397 10.2391 91.837 10.4349C84.661 13.2604 77.5407 16.1418 70.3647 18.9393C69.5549 19.247 69.3874 19.6946 69.3874 20.5059C69.4153 23.8629 69.3874 27.2199 69.3874 30.5769ZM64.6126 30.7727C64.6126 27.3318 64.5847 23.8909 64.6406 20.45C64.6406 19.6946 64.473 19.303 63.7191 18.9953C56.4593 16.1698 49.2273 13.2884 41.9954 10.4629C41.5766 10.2951 40.9623 10.323 40.5434 10.4909C30.3517 15.3026 22.0308 22.3523 15.6087 31.612C15.3853 31.9477 15.2736 32.5072 15.3574 32.8988C16.7535 38.9134 18.1775 44.9281 19.5737 50.9427C19.7412 51.698 20.1042 52.0057 20.8023 52.2295C27.7829 54.5235 34.7356 56.8734 41.7162 59.1673C42.1909 59.3072 42.9448 59.1953 43.3078 58.8876C50.1767 53.4604 57.0177 47.9773 63.8308 42.4663C64.2496 42.1306 64.5847 41.4032 64.5847 40.8437C64.6685 37.4867 64.6126 34.1297 64.6126 30.7727ZM36.5785 104.711C36.746 104.571 37.1648 104.319 37.4441 103.927C40.6272 99.731 43.7545 95.4788 46.9656 91.3105C47.4961 90.6112 47.5799 89.9957 47.3565 89.1844C45.3182 81.1836 43.3357 73.1548 41.3532 65.1539C41.1577 64.4266 40.8506 63.979 40.0688 63.7272C33.1719 61.4613 26.2751 59.1673 19.4061 56.8454C18.7081 56.5936 18.2613 56.6496 17.7587 57.265C13.682 62.2166 9.54949 67.1122 5.50073 72.0638C5.13774 72.5114 4.91436 73.2387 4.9702 73.7982C5.94749 83.5055 9.15857 92.4295 14.3801 100.626C14.6035 100.962 15.0781 101.27 15.4691 101.354C17.2561 101.689 19.0711 101.969 20.886 102.249C25.9958 103.032 31.1056 103.843 36.5785 104.711ZM129.197 73.0988C129.086 72.903 128.918 72.4834 128.639 72.1197C124.534 67.1402 120.374 62.2166 116.269 57.237C115.767 56.6216 115.32 56.5656 114.622 56.8174C107.753 59.1393 100.856 61.4053 93.9871 63.7552C93.4845 63.923 92.8981 64.5105 92.7585 65.0141C90.6643 73.1828 88.6539 81.3794 86.6435 89.5481C86.5318 89.9677 86.6435 90.6112 86.8948 90.9469C90.1617 95.3389 93.4845 99.731 96.8352 104.067C97.0865 104.375 97.7008 104.627 98.0917 104.571C104.374 103.62 110.629 102.501 116.911 101.661C118.726 101.409 119.704 100.682 120.597 99.1715C125.316 91.1986 128.192 82.6103 129.197 73.0988ZM40.8785 107.424C40.9344 107.564 40.9902 107.704 41.0461 107.816C45.2344 114.39 49.4228 120.964 53.6391 127.538C53.8625 127.874 54.3372 128.182 54.756 128.265C63.4957 130.084 72.2355 129.86 80.9473 127.902C81.4499 127.79 82.0363 127.342 82.3155 126.895C85.8896 120.768 89.4078 114.586 92.8702 108.403C93.0936 108.012 93.0377 107.2 92.7585 106.837C89.6033 102.556 86.3922 98.3322 83.1252 94.108C82.8181 93.7164 82.1479 93.3807 81.6174 93.3807C71.8445 93.3247 62.0717 93.3527 52.2988 93.3807C51.8521 93.3807 51.2378 93.6324 50.9865 93.9681C47.6078 98.4162 44.2571 102.948 40.8785 107.424Z" fill="black"/>
</g>
<defs>
<clipPath id="clip0_2_1229">
<rect width="134" height="134" fill="white"/>
</clipPath>
</defs>
</svg>
