<svg width="40" height="39" viewBox="0 0 40 39" fill="none" xmlns="http://www.w3.org/2000/svg">
<ellipse cx="20" cy="19.5" rx="20" ry="19.5" fill="#54D2E0"/>
<path d="M21.8289 28.4211V21.8289H28.4211C29.4223 21.8289 30.25 21.0012 30.25 20C30.25 18.9988 29.4223 18.1711 28.4211 18.1711H21.8289V11.5789C21.8289 10.5777 21.0012 9.75 20 9.75C18.9988 9.75 18.1711 10.5777 18.1711 11.5789V18.1711H11.5789C10.5777 18.1711 9.75 18.9988 9.75 20C9.75 21.0012 10.5777 21.8289 11.5789 21.8289H18.1711V28.4211C18.1711 29.4223 18.9988 30.25 20 30.25C21.0012 30.25 21.8289 29.4223 21.8289 28.4211Z" fill="white" stroke="white" stroke-width="0.5"/>
</svg>
