<svg width="26" height="26" viewBox="0 0 26 26" fill="none" xmlns="http://www.w3.org/2000/svg">
<path d="M4.35175 19.3278C4.52042 19.4971 4.64967 19.7015 4.73028 19.9265C4.81089 20.1515 4.84089 20.3915 4.81812 20.6294C4.70392 21.7304 4.4874 22.8185 4.17137 23.8794C6.43825 23.3545 7.82275 22.7468 8.45163 22.4283C8.80832 22.2476 9.21909 22.2048 9.60537 22.308C10.7127 22.6032 11.854 22.7518 13 22.75C19.4935 22.75 24.375 18.1886 24.375 13C24.375 7.813 19.4935 3.25 13 3.25C6.5065 3.25 1.625 7.813 1.625 13C1.625 15.3855 2.62762 17.5988 4.35175 19.3278ZM3.55062 25.6734C3.16561 25.7497 2.77935 25.8196 2.392 25.883C2.067 25.935 1.82 25.597 1.94838 25.2948C2.09266 24.9545 2.22491 24.6092 2.34487 24.2596L2.34975 24.2434C2.75275 23.0734 3.081 21.7279 3.20125 20.475C1.20738 18.4763 0 15.86 0 13C0 6.71775 5.82075 1.625 13 1.625C20.1793 1.625 26 6.71775 26 13C26 19.2823 20.1793 24.375 13 24.375C11.7124 24.3767 10.4302 24.2096 9.18612 23.8778C8.34112 24.3051 6.52275 25.0835 3.55062 25.6734V25.6734Z" fill="white"/>
</svg>
