<svg width="17" height="17" viewBox="0 0 17 17" stroke="#A4A4A4" fill="none" xmlns="http://www.w3.org/2000/svg">
    <path
        d="M4.9939 13.2968L7.42162 15.1763C7.73487 15.4896 8.43969 15.6462 8.90957 15.6462H11.8855C12.8253 15.6462 13.8433 14.9414 14.0783 14.0016L15.9578 8.28474C16.3494 7.18835 15.6445 6.24859 14.4698 6.24859H11.3373C10.8674 6.24859 10.4758 5.85702 10.5542 5.30883L10.9457 2.80279C11.1024 2.09797 10.6325 1.31484 9.92765 1.07989C9.30114 0.844954 8.51801 1.15821 8.20475 1.62809L4.9939 6.40522"
        stroke="#currentColor" stroke-width="1.5" stroke-miterlimit="10" />
    <path
        d="M1 13.2967V5.62202C1 4.52563 1.46988 4.13406 2.56627 4.13406H3.34941C4.4458 4.13406 4.91568 4.52563 4.91568 5.62202V13.2967C4.91568 14.3931 4.4458 14.7847 3.34941 14.7847H2.56627C1.46988 14.7847 1 14.3931 1 13.2967Z"
        stroke="#currentColor" stroke-width="1.5" stroke-linecap="round" stroke-linejoin="round" />
</svg>