<svg width="26" height="26" viewBox="0 0 26 26" fill="none" xmlns="http://www.w3.org/2000/svg">
    <circle cx="13" cy="13" r="13" fill="#54D2E0" />
    <path
        d="M10.8015 16.6525V10.6082C10.8015 10.3702 10.8729 10.1382 11.0038 9.9419L12.6279 7.52655C12.8837 7.13985 13.5203 6.86619 14.0616 7.06846C14.6447 7.26479 15.0313 7.91919 14.9064 8.50221L14.5971 10.4476C14.5733 10.626 14.6209 10.7867 14.722 10.9116C14.8231 11.0246 14.9719 11.096 15.1325 11.096H17.5776C18.0476 11.096 18.4521 11.2864 18.6901 11.6196C18.9161 11.9408 18.9578 12.3572 18.809 12.7796L17.3456 17.2355C17.1611 17.9732 16.358 18.5741 15.5608 18.5741H13.2407C12.8421 18.5741 12.2828 18.4373 12.027 18.1814L11.2655 17.5925C10.974 17.3724 10.8015 17.0214 10.8015 16.6525Z"
        fill="white" />
    <path
        d="M8.90967 9.44812H8.29691C7.3748 9.44812 7 9.80507 7 10.6855V16.6704C7 17.5508 7.3748 17.9078 8.29691 17.9078H8.90967C9.83179 17.9078 10.2066 17.5508 10.2066 16.6704V10.6855C10.2066 9.80507 9.83179 9.44812 8.90967 9.44812Z"
        fill="white" />
</svg>