<svg width="18" height="20" viewBox="0 0 18 20" fill="none" xmlns="http://www.w3.org/2000/svg">
<path fill-rule="evenodd" clip-rule="evenodd" d="M0 12.77V7C0 6.00295 0 5.47704 0.211026 5.0572C0.446581 4.58856 0.945072 4.25208 2 3.54L7.5 0.36C8.33 -0.12 9.68 -0.12 10.5 0.36L16 3.54C17.0549 4.25208 17.5534 4.58856 17.789 5.0572C18 5.47704 18 6.00295 18 7V12.78C18 13.7771 18 14.303 17.789 14.7228C17.5534 15.1914 17.0549 15.5279 16 16.24L10.5 19.42C9.68 19.9 8.33 19.9 7.5 19.42L2 16.24C0.947004 15.5292 0.448409 15.1927 0.212322 14.7239C0 14.3023 0 13.7738 0 12.77ZM12 9.89014C12 11.547 10.6569 12.8901 9 12.8901C7.34315 12.8901 6 11.547 6 9.89014C6 8.23328 7.34315 6.89014 9 6.89014C10.6569 6.89014 12 8.23328 12 9.89014Z" fill="#54D2E0"/>
</svg>
